<?xml version="1.0" encoding="utf-8"?>
<!-- Generator: Adobe Illustrator 25.0.1, SVG Export Plug-In . SVG Version: 6.00 Build 0)  -->
<svg version="1.1" id="Layer_1" xmlns="http://www.w3.org/2000/svg" xmlns:xlink="http://www.w3.org/1999/xlink" x="0px" y="0px"
	 viewBox="0 0 90 90" style="enable-background:new 0 0 90 90;" xml:space="preserve">
<g>
	<path d="M78.2,41.7c-0.5-1.8-0.9-3.2-1.4-4.7c2.4-1,4.8-2,7.3-3c-1.7-5.5-4.5-10.1-8.2-14.3C70.3,13.5,63.3,9.4,55,7.6
		c-7.8-1.7-15.6-1.1-23.2,1.8c-9.9,3.9-17,10.8-21.5,20.2c-1.9,4-2.8,8.3-3.2,12.7c-0.7,7.4,1,14.3,4.3,20.7
		c3.2,6.1,7.9,11.1,14,14.7c5.1,3.1,10.5,5.1,16.4,5.6c6.1,0.6,12.1,0.1,17.9-2.1c5.7-2.1,10.8-5.3,15-9.6c4-4.1,6.9-8.8,8.8-14.1
		c0.2-0.4-0.2-1.4-0.5-1.6c-1.6-0.8-3.3-1.4-4.9-2.1c-0.5-0.2-0.9-0.3-1.4-0.5c0.3-0.6,0.5-1.1,0.7-1.6c0.9-2.6,1-2.6,3.7-1.6
		c2.8,1,5.4,2.2,7.4,4.6c1.4,1.6,1.6,3.2,0.9,5.1C87,67,83,73.2,77.2,78.2c-6.7,5.8-14.4,9.7-23.3,11.1c-10.5,1.7-20.4,0.2-29.7-4.6
		c-7.6-3.9-13.6-9.6-17.9-16.9C3,62.4,1.1,56.6,0.3,50.4c-1.4-12.1,1.5-23,9-32.7c4.5-5.8,10.1-10.2,16.8-13.4
		c4.5-2.1,9.2-3.4,14.2-4C49.8-0.7,58.8,0.7,67.4,5c7.8,4,14,9.6,18.4,17.1c1.5,2.6,2.7,5.3,3.8,8c1,2.5,0.1,5.4-2.4,6.8
		C84.3,38.7,81.2,40.2,78.2,41.7z"/>
	<path d="M76.3,35.6c-5.7,0.6-10.1-1.2-14-4.8c-3.8-3.6-8.4-5.3-13.7-5.5c-4.2-0.1-8.4,0-12,2.1c-5.3,3-8.5,7.5-8.9,13.6
		c-0.1,2.1-0.3,4.1-0.3,6.2c0,9.4,6.3,16.7,15.7,17.8c7.6,0.9,14.7-0.5,20.5-6.1c2.6-2.5,7.3-4,12.5-3.4c-0.8,1.4-1.5,2.8-2.4,4.1
		c-2.1,3.4-4,6.9-7.1,9.7c-4.1,3.6-8.8,5.8-14.3,5.9c-4.1,0.1-8.3,0.2-12.4,0c-4.6-0.3-8.9-2-12.4-5c-6.1-5.3-9.6-12.3-12-19.6
		c-1.9-6-0.6-12,2.7-17.4c2-3.3,4-6.7,6.4-9.7c3.4-4.2,7.9-7.2,13.5-7.7c4.8-0.5,9.6-0.6,14.4-0.3c5.2,0.3,9.9,2.1,13.9,5.6
		c2.7,2.3,4.4,5.2,6.2,8.2C73.8,31.1,75,33.3,76.3,35.6z"/>
	<path d="M78.3,43.3c0,1.6,0,3.1,0,4.7c-8.5-1.3-15.8,0.7-22,6.3c-2.2,1.9-4.8,3-7.8,3.1c-3,0-5.9,0-8.5-1.5c-3.1-1.8-4.5-4.7-4.7-8
		C35,44,35,40.2,37.5,36.8c1.6-2.2,3.8-3.4,6.3-3.7c5-0.7,9.7,0.2,13.5,3.9C63.1,42.6,70.2,44.2,78.3,43.3z"/>
</g>
</svg>
