<?xml version="1.0" encoding="utf-8"?>
<!-- Generator: Adobe Illustrator 24.0.1, SVG Export Plug-In . SVG Version: 6.00 Build 0)  -->
<svg version="1.1" id="Layer_1" xmlns="http://www.w3.org/2000/svg" xmlns:xlink="http://www.w3.org/1999/xlink" x="0px" y="0px"
	 viewBox="0 0 212 212" style="enable-background:new 0 0 212 212;" xml:space="preserve">
<style type="text/css">
	.st0{fill:#FEFEFE;}
	.st1{fill:#FCFCFC;}
	.st2{fill:#F6F6F6;}
	.st3{fill:#F7F7F7;}
	.st4{fill:#EDEDED;}
	.st5{fill:#C2C2C2;}
	.st6{fill:#C0C0C0;}
	.st7{fill:#C1C1C1;}
	.st8{fill:#EFEFEF;}
	.st9{fill:#E8E8E8;}
	.st10{fill:#CFCFCF;}
	.st11{fill:#DDDDDD;}
	.st12{fill:#D9D9D9;}
	.st13{fill:#E0E0E0;}
	.st14{fill:#E9E9E9;}
	.st15{fill:#CDCDCD;}
	.st16{fill:#D4D4D4;}
	.st17{fill:#E2E2E2;}
	.st18{fill:#CCCCCC;}
	.st19{fill:#E6E6E6;}
	.st20{fill:#B6B6B6;}
	.st21{fill:#F3F3F3;}
	.st22{fill:#A3A3A3;}
	.st23{fill:#EEEEEE;}
	.st24{fill:#DCDCDC;}
	.st25{fill:#B7B7B7;}
	.st26{fill:#EBEBEB;}
	.st27{fill:#A4A4A4;}
	.st28{fill:#E5E5E5;}
	.st29{fill:#D6D6D6;}
	.st30{fill:#CBCBCB;}
	.st31{fill:#E3E3E3;}
	.st32{fill:#D5D5D5;}
	.st33{fill:#D2D2D2;}
	.st34{fill:#CECECE;}
	.st35{fill:#D3D3D3;}
	.st36{fill:#AFAFAF;}
	.st37{fill:#EAEAEA;}
	.st38{fill:#F0F0F0;}
	.st39{fill:#B0B0B0;}
	.st40{fill:#ADADAD;}
	.st41{fill:#DBDBDB;}
	.st42{fill:#DADADA;}
	.st43{fill:#C3C3C3;}
</style>
<g>
	<path d="M115.9,212c-6.8,0-13.6,0-20.4,0c-3.8-0.7-7.6-1.5-11.4-2.2c-40.5-8-73.8-41.4-81.8-81.8c-0.8-3.8-1.5-7.6-2.2-11.4
		c0-7,0-14,0-21c0.7-3.8,1.5-7.6,2.2-11.4c8-40.5,41.4-73.8,81.8-81.8c3.8-0.8,7.6-1.5,11.4-2.2c6.8,0,13.6,0,20.4,0
		c4,0.7,8,1.4,12,2.2c40.5,8,73.8,41.4,81.8,81.8c0.8,4,1.5,8,2.2,12c0,6.8,0,13.6,0,20.4c-0.7,3.8-1.5,7.6-2.2,11.4
		c-8,40.5-41.4,73.8-81.8,81.8C123.9,210.6,119.9,211.3,115.9,212z M11.6,105.9c-1.6,44.1,33.9,94.4,94.2,94.8
		c53.1,0.3,95-41.5,94.8-94.7c-0.2-59.5-49.1-93.7-92.4-94.6C54.9,10.2,10.5,54.5,11.6,105.9z"/>
	<path class="st0" d="M11.6,105.9c-1.1-51.4,43.3-95.7,96.7-94.6c43.3,1,92.2,35.2,92.4,94.6c0.2,53.2-41.8,95-94.8,94.7
		C45.5,200.3,10,150,11.6,105.9z M14.9,105.7c-1.4,45.7,34.8,90,91.1,92.4c52.4-2.8,89.3-39.6,92.2-92c-2.4-54-42.7-88.8-86.8-91.3
		C52.7,11.5,12.9,61.3,14.9,105.7z"/>
	<path d="M14.9,105.7c-2.1-44.4,37.8-94.2,96.5-90.9c44.1,2.5,84.4,37.3,86.8,91.3c-2.9,52.4-39.8,89.2-92.2,92
		C49.7,195.8,13.5,151.4,14.9,105.7z M106.5,40.9c-0.4-1.3-1-2.5-2.1-0.5C100.7,47,97,53.6,93.3,60.2c-0.9,1.5-1.9,2.9-2.8,4.4
		c-4.9,8.5-9.7,17-14.5,25.5c-3.1,5.5-6.1,11-9.2,16.4c-2.2,3.9-4.4,7.8-6.6,11.6c-1.3,2.4-2.7,4.8-4,7.2c-1.1,1.8-2.1,3.7-3.2,5.5
		c-0.8,1.4-1.5,2.8-2.3,4.3c-0.7,1.3-1.5,2.6-2.2,3.9c-0.4,0.6-0.9,1.2-1.3,1.8c-1.4,2.6-1.3,2.9,1.7,2.9c7.3,0,14.5-0.1,21.8-0.1
		c0.9,0,1.8,0,2.7,0.1c14.2,0,28.4,0.1,42.7,0.1c12.5,0,24.9-0.1,37.4-0.2c3.7,0,7.3,0,11,0c0.2-0.5,0.7-1.2,0.6-1.6
		c-3.8-6.5-7.6-13-11.4-19.4c-0.6-1.3-1.2-2.5-1.8-3.8c-7.9-13.6-15.9-27.2-23.8-40.8c-2.6-4.6-5.2-9.2-7.8-13.8
		c-1.5-2.4-2.9-4.8-4.4-7.2c-0.7-1.3-1.4-2.6-2.1-3.9c-0.6-1.1-1.2-2.2-1.8-3.3c-1.1-1.8-2.2-3.7-3.3-5.5
		C107.9,43.1,107.2,42,106.5,40.9z"/>
	<path class="st1" d="M66.8,106.5c3.1-5.5,6.1-11,9.2-16.4c4.8-8.5,9.7-17,14.5-25.5c0,1.1,0.2,2.2-0.1,3.2
		c-2.7,7.6-3,15.4-2.6,23.4c0.7,3.1,1.5,6.2,2.2,9.3c-0.4-0.1-0.9-0.1-1.3-0.3c-3.8-2.2-5.3-1.7-7.5,2.1c-0.5,0.9-1.1,2.1-1.9,2.2
		C75.2,105.3,71,105.8,66.8,106.5z"/>
	<path class="st1" d="M128,77.8c7.9,13.6,15.9,27.2,23.8,40.8c-1.1-0.8-2.3-1.4-3.2-2.3c-5.2-6.1-11.8-10.2-18.9-13.6
		c-2.9-0.7-5.9-1.5-8.8-2.2c-1.9,0-3.7,0-5.6,0c-0.4-0.2-0.7-0.4-1.1-0.5c0-0.2,0-0.4,0-0.6c1.5,0,2.9,0,4.4,0c0.4,0,0.7,0,1.1,0
		c2-0.1,4.1,0.4,5.3-1.9c1.2-2.2,0.4-3.9-0.9-5.8c-0.6-0.9-1.3-2.4-0.9-3.3C124.7,84.8,126.4,81.4,128,77.8z"/>
	<path class="st1" d="M153.5,143.5c-12.5,0.1-24.9,0.2-37.4,0.2c-14.2,0-28.4-0.1-42.7-0.1c1-0.3,2.1-0.7,3.1-1
		c8.1-1.7,15.6-4.5,22.3-9.5c2.4-2.2,4.9-4.5,7.3-6.7c0,0.6,0.1,1.3,0,1.9c-0.3,3.3,1.2,5.4,4.4,5.2c3.7-0.3,6.1,1.3,8,4.2
		c0.6,1,1.2,2.2,2.1,2.9c1.4,1,3,2.1,4.6,2.3c3.6,0.3,7.4,0.1,11,0.1c3.3,0,6.6,0,9.9,0c2.2,0,4.4,0,6.6,0c0.2,0,0.4,0,0.5,0
		C153.5,143.2,153.5,143.3,153.5,143.5z"/>
	<path class="st2" d="M66.8,106.5c4.2-0.7,8.4-1.2,12.6-2.1c0.8-0.2,1.4-1.4,1.9-2.2c2.2-3.8,3.8-4.3,7.5-2.1
		c0.4,0.2,0.8,0.2,1.3,0.3c0.2,0,0.3,0.1,0.5,0.1c1,2,1.9,4,2.9,6c-2.4,0-4.5,0.6-6.1,2.5c-0.6,0.7-1.9,1.3-2.9,1.3
		c-3.7,0.1-6.1,1.5-6.6,5.5c-0.1,0.4-0.4,0.8-0.5,1.3c-1.6,0.1-3.3,0.3-4.9,0.4c-4.1,0.3-8.1,0.5-12.2,0.7
		C62.4,114.3,64.6,110.4,66.8,106.5z"/>
	<path class="st3" d="M128,77.8c-1.6,3.5-3.3,7-4.7,10.6c-0.3,0.9,0.3,2.4,0.9,3.3c1.3,1.9,2.1,3.6,0.9,5.8
		c-1.3,2.2-3.4,1.8-5.3,1.9c-0.4,0-0.7,0-1.1,0c0.3-1.7,0.3-3.5,0.8-5.1c1.6-5,1.2-6.4-3-9.8c-0.9-1-1.8-1.8-2.5-2.9
		c-0.5-0.7-1-2-0.7-2.6c2.2-5,4.6-9.9,7-14.9C122.8,68.7,125.4,73.3,128,77.8z"/>
	<path class="st4" d="M120.2,64.1c-2.3,5-4.7,9.9-7,14.9c-0.3,0.7,0.2,1.9,0.7,2.6c0.7,1.1,1.7,1.9,2.5,2.9
		c-0.7,1.9-1.4,3.7-1.9,5.6c-0.3,0.9-0.8,2.2-0.4,2.8c1.4,2.2,0.8,4.3,0.2,6.5c0,0.2,0,0.4,0,0.6c-0.7,0.2-1.4,0.4-2,0.6
		c-2.6-2.7-4-10.3-2.5-13.7c3-6.8,2.9-7.3-2.7-11.7c0-0.2,0-0.4,0-0.5c1.3-2.5,2.6-5,3.9-7.6c1.7-3.3,3.3-6.7,4.9-10.1
		C117.3,59.3,118.8,61.7,120.2,64.1z"/>
	<path class="st5" d="M87.8,91.1c-0.4-7.9-0.2-15.8,2.6-23.4c0.3-0.9,0.1-2.1,0.1-3.2c0.9-1.5,1.9-2.9,2.8-4.4
		c0.9,1.3,1.8,2.6,2.8,3.8c0.4,0.4,0.7,0.7,1.1,1.1c-1.8,4-3.6,8-5.4,12c-0.7,1.5-0.5,2.7,0.7,3.9c0.6,0.6,0.8,1.9,0.7,2.8
		c-0.4,2.8-1,5.6-1.5,8.3C90.4,91.8,89.1,91.5,87.8,91.1z"/>
	<path class="st6" d="M129.7,102.7c7.1,3.4,13.7,7.5,18.9,13.6c0.8,1,2.1,1.6,3.2,2.3c0.6,1.3,1.2,2.5,1.8,3.8
		c-1.3,0.4-2.7,0.8-4,1.2c-0.6,0-1.1,0-1.7,0c-2.6-3.7-5.2-7.3-7.9-10.9c-0.5-0.6-1.6-1.3-2.2-1.1c-2.4,0.9-3.8-0.3-5.3-1.9
		c-1.5-1.6-3-3.2-4.5-4.8C128.6,104.2,129.2,103.4,129.7,102.7z"/>
	<path class="st7" d="M98.9,133.2c-6.7,5-14.2,7.8-22.3,9.5c-1.1,0.2-2.1,0.6-3.1,1c-0.9,0-1.8,0-2.7-0.1c0.6-1.8,1.1-3.7,1.7-5.5
		c4-0.4,8-0.8,12-1.2c2.4-0.2,3.8-1.1,3.4-3.8c3.5-0.9,7-1.8,10.5-2.8C98.5,131.2,98.7,132.2,98.9,133.2z"/>
	<path class="st8" d="M60.2,118.1c4.1-0.2,8.1-0.5,12.2-0.7c1.6-0.1,3.3-0.2,4.9-0.4c-0.2,0.9-0.4,1.8-0.6,2.8
		c-0.4,1.3-0.7,2.6-1.1,3.9c-6.5,0.5-13,1.1-19.4,1.6C57.5,122.9,58.8,120.5,60.2,118.1z"/>
	<path class="st9" d="M56.2,125.3c6.5-0.5,13-1.1,19.4-1.6c0,0.4,0,0.7,0,1.1c-0.4,1.3-0.7,2.6-1.1,3.9c-0.2,0.4-0.4,0.7-0.6,1.1
		c-5.8,0.5-11.7,0.9-17.5,1.3c-1.1,0.1-2.3-0.2-3.5-0.3C54.1,129,55.1,127.1,56.2,125.3z"/>
	<path class="st10" d="M72.3,138c-0.6,1.8-1.1,3.7-1.7,5.5c-7.3,0-14.5,0.1-21.8,0.1c-3,0-3.1-0.3-1.7-2.9c0.4-0.6,0.8-1.2,1.3-1.8
		c1.5,2.1,3.6,0.8,5.3,0.7c6.2-0.6,12.3-1.4,18.5-2.2C72.3,137.6,72.3,137.8,72.3,138z"/>
	<path class="st11" d="M108.7,44.2c1.1,1.8,2.2,3.7,3.3,5.5c-0.9,0.8-2.2,1.4-2.6,2.4c-2.7,5.6-5.2,11.3-7.7,16.9
		c-0.4-0.2-0.7-0.4-1.1-0.6c-0.7-0.9-1.5-1.8-2.2-2.8c1.3-2.7,2.6-5.5,3.9-8.2C104.3,53.1,106.5,48.6,108.7,44.2z"/>
	<path class="st12" d="M72.3,137.5c-6.2,0.7-12.3,1.6-18.5,2.2c-1.7,0.2-3.8,1.5-5.3-0.7c0.7-1.3,1.5-2.6,2.2-3.9
		c1,0.2,1.9,0.8,2.9,0.7c6.6-0.6,13.3-1.4,19.9-2.1c-0.2,0.4-0.4,0.7-0.5,1.1C72.7,135.6,72.5,136.5,72.3,137.5z"/>
	<path class="st13" d="M73.4,133.6c-6.6,0.7-13.3,1.5-19.9,2.1c-0.9,0.1-1.9-0.4-2.9-0.7c0.8-1.4,1.5-2.8,2.3-4.3
		c1.2,0.1,2.3,0.3,3.5,0.3c5.8-0.4,11.7-0.9,17.5-1.3c0,0.4,0,0.7,0,1.1c-0.2,0.7-0.4,1.5-0.6,2.2C73.4,133.2,73.4,133.4,73.4,133.6
		z"/>
	<path class="st14" d="M115.9,56.9c-1.6,3.4-3.2,6.7-4.9,10.1c-1.3,2.5-2.6,5-3.9,7.6c-1.1-0.9-2.2-1.8-3.3-2.8
		c2.4-5.2,4.8-10.4,7.3-15.5c0.6-1.2,1.7-2.2,2.6-3.3C114.5,54.3,115.2,55.6,115.9,56.9z"/>
	<path class="st15" d="M149.6,123.7c1.3-0.4,2.7-0.8,4-1.2c3.8,6.5,7.6,12.9,11.4,19.4c0.2,0.3-0.4,1-0.6,1.6
		c-0.7-0.2-1.5-0.3-2.2-0.5c-0.6-1.3-1.2-2.7-2-3.8C156.8,134,153.2,128.8,149.6,123.7z"/>
	<path class="st16" d="M108.7,44.2c-2.2,4.4-4.3,8.9-6.5,13.3c-1.3,2.7-2.6,5.4-3.9,8.2c-0.4-0.2-0.7-0.4-1.1-0.6
		c-0.4-0.4-0.7-0.7-1.1-1.1c2.1-5,4.2-10.1,6.5-15.1c1.2-2.7,2.7-5.4,4-8.1C107.2,42,107.9,43.1,108.7,44.2z"/>
	<path class="st17" d="M113.7,53c-0.9,1.1-2,2-2.6,3.3c-2.5,5.1-4.9,10.3-7.3,15.5c0,0,0,0,0,0c-0.7-0.9-1.5-1.8-2.2-2.8
		c2.5-5.6,5-11.3,7.7-16.9c0.5-1,1.7-1.6,2.6-2.4C112.5,50.8,113.1,51.9,113.7,53z"/>
	<path class="st18" d="M106.5,40.9c-1.3,2.7-2.8,5.3-4,8.1c-2.2,5-4.3,10.1-6.5,15.1c-0.9-1.3-1.8-2.6-2.8-3.8
		c3.7-6.6,7.4-13.2,11.1-19.8C105.6,38.3,106.1,39.5,106.5,40.9z"/>
	<path class="st19" d="M162.3,143c0.7,0.2,1.5,0.3,2.2,0.5c-3.7,0-7.3,0-11,0c0-0.2,0-0.3,0-0.5c1.7,0,3.3,0,5,0
		C159.7,143,161,143,162.3,143z"/>
	<path class="st20" d="M87.8,91.1c1.3,0.4,2.5,0.7,3.8,1.1c0.7,0.2,1.5,0.4,2.2,0.6c0,0.8,0.2,1.7-0.1,2.4c-1.3,3.4,0,5,3.4,5.3
		c-0.4,0-0.7,0-1.1,0c-1.9,0-3.7,0-5.6,0c-0.2,0-0.3-0.1-0.5-0.1C89.3,97.3,88.6,94.2,87.8,91.1z"/>
	<path d="M112.3,100.6c0.7-0.2,1.4-0.4,2-0.6c0.4,0.2,0.7,0.4,1.1,0.5c-0.3,1.3-0.7,2.6-1,3.8c-0.3,0.9-0.5,1.8-0.8,2.7
		c-0.3,1.1-0.6,2.2-0.9,3.4c-0.4,1.3-0.7,2.6-1.1,3.9c-0.4,1.1-0.7,2.2-1.1,3.3c-0.2,0.6-0.4,1.1-0.5,1.7c-0.4,0.7-0.8,1.5-1.1,2.2
		c-1.1-0.8-2.2-1.6-3.2-2.4c-0.3-0.3-0.7-0.7-1-1c-1.2-1.2-2.4-2.4-3.6-3.6c-1.1-1.2-2.2-2.3-3.3-3.5c-0.4-0.3-0.7-0.7-1.1-1
		c-0.3-0.3-0.7-0.5-1-0.8c-0.6-0.8-1.2-1.7-1.8-2.5c0.6-0.5,1.1-1.3,1.8-1.6c1.2-0.5,2.5-0.8,3.8-1.2c0.7-0.2,1.4-0.4,2.2-0.6
		c1.3-0.3,2.6-0.7,3.9-1c0.8-0.2,1.5-0.3,2.3-0.5c0.9-0.2,1.8-0.4,2.6-0.6C111,100.9,111.6,100.7,112.3,100.6z"/>
	<path class="st21" d="M114.3,99.4c0.6-2.2,1.3-4.3-0.2-6.5c-0.4-0.6,0.2-1.9,0.4-2.8c0.6-1.9,1.3-3.7,1.9-5.6
		c4.2,3.4,4.6,4.7,3,9.8c-0.5,1.6-0.6,3.4-0.8,5.1C117.2,99.4,115.8,99.4,114.3,99.4z"/>
	<path class="st20" d="M129.7,102.7c-0.5,0.7-1.1,1.5-1.6,2.2c-0.9,0.7-1.8,1.5-2.8,2.2c-1.8-1.3-3.7-2.6-5.5-3.9
		c0.4-0.9,0.8-1.8,1.1-2.8C123.9,101.2,126.8,102,129.7,102.7z"/>
	<path class="st22" d="M120.9,100.5c-0.4,0.9-0.8,1.8-1.1,2.8c-0.5,0.7-1.1,1.5-1.6,2.2c-1.3-0.4-2.5-0.7-3.8-1.1
		c0.3-1.3,0.7-2.6,1-3.8C117.2,100.5,119.1,100.5,120.9,100.5z"/>
	<path class="st2" d="M136.4,143c-3.7,0-7.4,0.2-11-0.1c-1.6-0.2-3.2-1.3-4.6-2.3c-0.9-0.7-1.5-1.9-2.1-2.9c-1.9-2.9-4.2-4.5-8-4.2
		c-3.3,0.2-4.7-1.9-4.4-5.2c0.1-0.6,0-1.3,0-1.9c0,0-0.3,0-0.3,0c1-1.5,1.9-2.9,2.9-4.4c1.8,1.8,3.9,3.3,5.4,5.3
		c3.1,4.1,3.6,4.9,10.6,2.4c0.6,0,1.1,0,1.7,0c1.3,1.1,2.9,2.1,3.9,3.4C132.5,136.3,134.4,139.7,136.4,143z"/>
	<path class="st23" d="M136.4,143c-2-3.3-3.9-6.7-6.1-9.8c-1-1.4-2.6-2.3-3.9-3.4c0.9-0.4,1.8-0.7,2.8-1.1c2-0.4,4-0.7,6.1-1.1
		c3.7,5.2,7.4,10.3,11,15.5C143,143,139.7,143,136.4,143z"/>
	<path class="st19" d="M146.3,143c-3.7-5.2-7.4-10.3-11-15.5c0-0.2,0-0.4,0-0.6c0.6-0.2,1.1-0.4,1.7-0.5c0.7-0.2,1.5-0.4,2.2-0.5
		c0.7,0,1.5,0,2.2,0c0.9,1.2,1.8,2.3,2.6,3.5c3,4.5,6,9.1,9,13.6C150.7,143,148.5,143,146.3,143z"/>
	<path class="st24" d="M152.9,143c-3-4.5-6-9.1-9-13.6c-0.8-1.2-1.7-2.3-2.6-3.5c0.7-0.4,1.5-0.7,2.2-1.1c0.6,0,1.1,0,1.7,0
		c1.6,1.9,3.5,3.7,4.9,5.7c2.9,4.1,5.6,8.3,8.3,12.5c-1.7,0-3.3,0-5,0C153.3,143,153.1,143,152.9,143z"/>
	<path class="st25" d="M98.9,133.2c-0.2-1-0.4-1.9-0.6-2.9c0-0.6,0-1.1,0-1.7c0.7-0.9,1.4-2,2.2-2.7c1-0.9,2.2-1.5,3.3-2.2
		c0.7,0.9,1.4,1.8,2.1,2.7c0,0,0.3,0,0.3,0C103.7,128.7,101.3,130.9,98.9,133.2z"/>
	<path class="st26" d="M93.8,106.6c0.6,0.8,1.2,1.7,1.8,2.5c-1.4,1.6-2.6,3.5-4.3,4.7c-3.6,2.6-7.4,5-12.2,4.7
		c-0.8-0.1-1.6,0.8-2.4,1.3c0.2-0.9,0.4-1.8,0.6-2.8c0.2-0.4,0.5-0.8,0.5-1.3c0.5-3.9,2.8-5.4,6.6-5.5c1,0,2.2-0.6,2.9-1.3
		c1.7-1.9,3.7-2.5,6.1-2.5C93.5,106.5,93.6,106.6,93.8,106.6z"/>
	<path class="st27" d="M93.8,106.6c-0.1,0-0.3,0-0.4-0.1c-1-2-1.9-4-2.9-6c1.9,0,3.7,0,5.6,0c0.5,1.8,1.1,3.4,3.4,3.3
		c-1.3,0.4-2.6,0.7-3.8,1.2C94.9,105.3,94.4,106,93.8,106.6z"/>
	<path class="st11" d="M110.4,101c-0.9,0.2-1.8,0.4-2.6,0.6c-1.2-0.9-3.5-1.8-3.4-2.6c0.3-4-2.7-3.9-5-4.7l0,0
		c0.4-1.6,0.6-3.2,1.1-4.8c0.5-1.9,0.6-3.5-1.2-4.9c-0.6-0.4-0.7-2.1-0.3-2.9c1.5-3.4,3.2-6.7,4.8-10.1c0,0,0,0,0,0
		c1.1,0.9,2.2,1.8,3.3,2.8c0,0.2,0,0.4,0,0.5c-1.2,3.1-2.5,6.1-3.4,9.3c-0.3,1,0.2,2.2,0.5,3.3c0.3,1.3,1.2,2.7,1,4
		c-0.3,2.1-1.1,4.1,1.7,5.2c0.4,0.1,0.4,1.2,0.8,1.7C108.5,99.4,109.5,100.2,110.4,101z"/>
	<path class="st28" d="M110.4,101c-0.9-0.8-1.9-1.6-2.7-2.6c-0.4-0.4-0.4-1.5-0.8-1.7c-2.9-1.1-2-3.1-1.7-5.2c0.2-1.3-0.7-2.6-1-4
		c-0.3-1.1-0.8-2.4-0.5-3.3c1-3.1,2.3-6.2,3.4-9.3c5.5,4.5,5.7,5,2.7,11.7c-1.5,3.4-0.1,11.1,2.5,13.7
		C111.6,100.7,111,100.9,110.4,101z"/>
	<path class="st18" d="M93.8,92.8c-0.7-0.2-1.5-0.4-2.2-0.6c0.5-2.8,1.2-5.5,1.5-8.3c0.1-0.9-0.1-2.2-0.7-2.8
		c-1.3-1.3-1.4-2.4-0.7-3.9c1.8-4,3.6-8,5.4-12c0.4,0.2,0.7,0.4,1.1,0.6c0.7,0.9,1.5,1.8,2.2,2.8c-1.9,4-3.8,7.9-5.6,11.9
		c-0.3,0.6,0.2,1.5,0.4,2.2c0.3,1.5,1.1,3,1,4.5c-0.1,2.1-0.8,4.1-1.3,6.2C94.6,93.1,94.2,92.9,93.8,92.8z"/>
	<path class="st15" d="M145.2,124.8c-0.6,0-1.1,0-1.7,0c-0.7-0.7-1.5-1.3-2.1-2.1c-1.7-2.3-3.3-4.7-5.1-6.9c-0.6-0.8-2-1.9-2.5-1.7
		c-2.3,1-3.4-0.5-4.7-1.7c-1.4-1.4-2.9-2.8-4.4-4.1c0.2-0.4,0.4-0.7,0.5-1.1c0.9-0.7,1.8-1.5,2.8-2.2c1.5,1.6,3.1,3.2,4.5,4.8
		c1.4,1.6,2.9,2.8,5.3,1.9c0.5-0.2,1.7,0.5,2.2,1.1c2.7,3.6,5.3,7.3,7.9,10.9C147,124,146.1,124.4,145.2,124.8z"/>
	<path class="st29" d="M145.2,124.8c0.9-0.4,1.8-0.7,2.8-1.1c0.6,0,1.1,0,1.7,0c3.6,5.2,7.2,10.3,10.7,15.5c0.8,1.2,1.3,2.6,2,3.8
		c-1.3,0-2.6,0-3.9,0c-2.8-4.2-5.5-8.4-8.3-12.5C148.7,128.5,146.8,126.7,145.2,124.8z"/>
	<path class="st30" d="M72.3,137.5c0.2-0.9,0.4-1.8,0.6-2.8c5-0.6,9.9-1.1,14.9-1.7l0,0c0.4,2.7-1.1,3.6-3.4,3.8
		c-4,0.4-8,0.8-12,1.2C72.3,137.8,72.3,137.6,72.3,137.5z"/>
	<path class="st30" d="M98.3,128.6c0,0.6,0,1.1,0,1.7c-3.5,0.9-7,1.8-10.5,2.8c0,0,0,0,0,0c0-0.7,0-1.5,0-2.2c0-0.2,0-0.4,0-0.6
		c3.1-1.3,6.3-2.6,9.4-3.9C97.5,127.2,97.9,127.9,98.3,128.6z"/>
	<path class="st31" d="M76.7,119.8c0.8-0.5,1.6-1.3,2.4-1.3c4.8,0.3,8.6-2.1,12.2-4.7c1.7-1.2,2.9-3.1,4.3-4.7
		c0.3,0.3,0.7,0.5,1,0.8c0,0.5,0,1.1,0,1.6c-1.6,0.5-3.3,1-2.2,3.3c0,0.2,0,0.4,0,0.6c-1.3,0.5-2.7,1.2-4.1,1.6
		c-1.7,0.5-2.7,1.5-2.6,3.4c0,0.9,0,1.8,0,2.8c-4,0.6-8.1,1.1-12.1,1.7c0-0.4,0-0.7,0-1.1C76,122.4,76.4,121.1,76.7,119.8z"/>
	<path class="st24" d="M75.6,124.8c4-0.6,8.1-1.1,12.1-1.7c0,0.4,0,0.7,0,1.1c0,0.6,0,1.1,0,1.7c0,0.4,0,0.7,0,1.1
		c-1.2,0.2-2.3,0.4-3.5,0.5c-3.2,0.4-6.5,0.7-9.7,1.1C74.9,127.3,75.3,126.1,75.6,124.8z"/>
	<path class="st32" d="M74.5,128.6c3.2-0.4,6.5-0.7,9.7-1.1c1.2-0.1,2.3-0.4,3.5-0.5c0,0.6,0,1.1,0,1.7c0,0.2,0,0.4,0,0.6
		c-4.6,0.6-9.2,1.1-13.8,1.7c0-0.4,0-0.7,0-1.1C74.2,129.4,74.3,129,74.5,128.6z"/>
	<path class="st33" d="M95,93.3c0.5-2.1,1.2-4.1,1.3-6.2c0.1-1.5-0.6-3-1-4.5c-0.2-0.7-0.6-1.7-0.4-2.2c1.8-4,3.7-8,5.6-11.9
		c0.4,0.2,0.7,0.4,1.1,0.6c0.7,0.9,1.5,1.8,2.2,2.8c-1.6,3.3-3.4,6.7-4.8,10.1c-0.3,0.8-0.2,2.5,0.3,2.9c1.8,1.4,1.7,3,1.2,4.9
		c-0.5,1.6-0.7,3.2-1.1,4.8C97.9,94,96.4,93.7,95,93.3z"/>
	<path class="st34" d="M87.8,130.8c0,0.7,0,1.5,0,2.2c-5,0.6-9.9,1.1-14.9,1.7c0.2-0.4,0.4-0.7,0.5-1.1c0-0.2,0-0.4,0-0.5
		C78.2,132.3,83,131.6,87.8,130.8z"/>
	<path class="st35" d="M87.8,130.8c-4.8,0.7-9.6,1.5-14.3,2.2c0.2-0.7,0.4-1.5,0.6-2.2c4.6-0.6,9.2-1.1,13.8-1.7c0,0.4,0,0.7,0,1.1
		C87.8,130.5,87.8,130.7,87.8,130.8z"/>
	<path class="st5" d="M95,93.3c1.5,0.4,2.9,0.7,4.4,1.1c0,0,0,0,0,0c-1.1,4.9-1.1,4.9,2.2,6.1c-0.2,0-0.4,0-0.6,0
		c-1.3,0-2.6,0-3.8,0c-3.4-0.3-4.7-1.9-3.4-5.3c0.3-0.7,0.1-1.6,0.1-2.4C94.2,92.9,94.6,93.1,95,93.3z"/>
	<path class="st36" d="M97.2,100.5c1.3,0,2.6,0,3.8,0c0.2,0.9,0.4,1.8,0.6,2.7c-0.7,0.2-1.4,0.4-2.2,0.6c-2.3,0.1-2.9-1.6-3.4-3.3
		C96.4,100.5,96.8,100.5,97.2,100.5z"/>
	<path class="st31" d="M135.3,127c0,0.2,0,0.4,0,0.6c-2,0.4-4,0.7-6.1,1.1c-3.1-2.9-4.1-8.3-9.6-8.5c-2.3-3.3-6-2.1-9.1-2.6
		c0.4-1.1,0.7-2.2,1.1-3.3c0.5,0,1.1,0,1.6,0c1.2,0.4,3,1.6,3.6,1.1c2.4-1.7,3.7-0.3,5.1,1.3c1.5,1.6,3.1,2.3,5.1,0.9
		c1.8,2.1,3.5,4.3,5.4,6.4C133.3,125,134.3,126,135.3,127z"/>
	<path class="st37" d="M110.5,117.6c3.1,0.5,6.8-0.7,9.1,2.6c5.5,0.2,6.5,5.5,9.6,8.5c-0.9,0.4-1.8,0.7-2.8,1.1c-0.6,0-1.1,0-1.7,0
		c-1.4-1.3-2.9-2.7-4.3-4c-0.9-0.8-1.6-1.8-2.6-2.3c-2.6-1.5-5.3-2.8-7.9-4.2C110.1,118.7,110.3,118.1,110.5,117.6z"/>
	<path class="st38" d="M109.9,119.3c2.7,1.4,5.3,2.7,7.9,4.2c1,0.6,1.7,1.5,2.6,2.3c1.4,1.3,2.9,2.7,4.3,4c-7,2.5-7.5,1.7-10.6-2.4
		c-1.5-2-3.6-3.5-5.4-5.3c0-0.2,0-0.3,0-0.5C109.2,120.8,109.5,120,109.9,119.3z"/>
	<path class="st33" d="M101.6,100.5c-3.3-1.2-3.3-1.2-2.2-6.1c2.4,0.8,5.3,0.7,5,4.7c-0.1,0.8,2.2,1.7,3.4,2.6
		c-0.8,0.2-1.5,0.3-2.3,0.5C104.2,101.6,102.9,101,101.6,100.5z"/>
	<path class="st27" d="M108.8,121.5c0,0.2,0,0.3,0,0.5c-1,1.5-1.9,2.9-2.9,4.4c-0.7-0.9-1.4-1.8-2.1-2.7c-0.2-0.5-0.4-1.1-0.6-1.6
		c0.8-1,1.5-2,2.3-3C106.6,119.9,107.7,120.7,108.8,121.5z"/>
	<path class="st39" d="M101,114.4c1.2,1.2,2.4,2.4,3.6,3.6c-0.8,0.6-1.6,1.2-2.4,1.8c-0.2,0-0.4,0-0.5,0c-0.5-0.9-1.1-1.8-1.6-2.8
		c0-0.2,0-0.4,0-0.5C100.3,115.8,100.6,115.1,101,114.4z"/>
	<path class="st40" d="M114.3,104.3c1.3,0.4,2.5,0.7,3.8,1.1c-0.2,0.4-0.3,0.8-0.5,1.1c-0.4,0.5-0.8,1.1-1.1,1.6
		c-1-0.4-2-0.8-2.9-1.2C113.8,106.1,114.1,105.2,114.3,104.3z"/>
	<path class="st41" d="M96.6,111.5c0-0.5,0-1.1,0-1.6c0.4,0.3,0.7,0.7,1.1,1c0.2,1.1,0.4,2.2,0.5,3.4c-1.1,0.7-2.2,1.5-3.3,2.2
		c-0.2-0.4-0.4-0.7-0.6-1.1c0-0.2,0-0.4,0-0.6C95.1,113.7,95.9,112.6,96.6,111.5z"/>
	<path class="st20" d="M113.5,107c1,0.4,2,0.8,2.9,1.2c-0.5,0.9-1.1,1.8-1.6,2.8l0,0c-0.7-0.2-1.5-0.4-2.2-0.6
		C112.9,109.3,113.2,108.2,113.5,107z"/>
	<path class="st7" d="M101.6,100.5c1.3,0.6,2.6,1.1,3.9,1.7c-1.3,0.3-2.6,0.7-3.9,1c-0.2-0.9-0.4-1.8-0.6-2.7
		C101.2,100.5,101.4,100.5,101.6,100.5z"/>
	<path class="st18" d="M98.3,114.3c-0.2-1.1-0.4-2.2-0.5-3.4c1.1,1.2,2.2,2.3,3.3,3.5c-0.4,0.7-0.7,1.4-1.1,2.1
		C99.4,115.8,98.8,115,98.3,114.3z"/>
	<path class="st18" d="M112.6,110.4c0.7,0.2,1.5,0.4,2.2,0.6c-0.6,1.1-1.1,2.2-1.7,3.3c-0.5,0-1.1,0-1.6,0
		C111.9,113,112.2,111.7,112.6,110.4z"/>
	<path class="st40" d="M102.1,119.8c0.8-0.6,1.6-1.2,2.4-1.8c0.3,0.3,0.7,0.7,1,1c-0.8,1-1.5,2-2.3,3c-0.2,0-0.4,0-0.5,0
		C102.5,121.3,102.3,120.5,102.1,119.8z"/>
	<path class="st5" d="M117.6,106.6c0.2-0.4,0.3-0.8,0.5-1.1c0.5-0.7,1.1-1.5,1.6-2.2c1.8,1.3,3.7,2.6,5.5,3.9
		c-0.2,0.4-0.4,0.7-0.5,1.1c-0.7,0.6-1.5,1.1-2.2,1.7C120.9,108.8,119.3,107.7,117.6,106.6z"/>
	<path class="st16" d="M122.6,109.9c0.7-0.6,1.5-1.1,2.2-1.7c1.5,1.4,2.9,2.7,4.4,4.1c1.3,1.3,2.4,2.8,4.7,1.7
		c0.5-0.2,1.9,0.9,2.5,1.7c1.8,2.2,3.3,4.6,5.1,6.9c0.6,0.8,1.4,1.4,2.1,2.1c-0.7,0.4-1.5,0.7-2.2,1.1c-0.7,0-1.5,0-2.2,0
		c-2.1-3-4.2-5.9-6.3-9c-1.1-1.6-2.3-1.7-3.6-0.4c-0.2,0-0.4,0-0.6,0c-2.2-1.8-4.4-3.7-6.6-5.5C122.2,110.6,122.4,110.2,122.6,109.9
		z"/>
	<path class="st42" d="M129.2,116.5c1.4-1.3,2.5-1.1,3.6,0.4c2.1,3,4.2,6,6.3,9c-0.7,0.2-1.5,0.4-2.2,0.5
		C134.3,123.1,131.8,119.8,129.2,116.5z"/>
	<path class="st24" d="M129.2,116.5c2.6,3.3,5.2,6.6,7.7,9.9c-0.6,0.2-1.1,0.4-1.7,0.5c-1-1-2-2-2.9-3c-1.8-2.1-3.6-4.2-5.4-6.4
		c0.6-0.4,1.1-0.7,1.7-1.1C128.8,116.5,129,116.5,129.2,116.5z"/>
	<path class="st7" d="M102.7,122c0.2,0,0.4,0,0.5,0c0.2,0.5,0.4,1.1,0.6,1.6c-1.1,0.7-2.3,1.4-3.3,2.2c-0.9,0.8-1.5,1.8-2.2,2.7
		c-0.4-0.7-0.7-1.5-1.1-2.2c0-0.6,0-1.1,0-1.7C99,123.8,100.9,122.9,102.7,122z"/>
	<path class="st34" d="M97.2,124.8c0,0.6,0,1.1,0,1.7c-3.1,1.3-6.3,2.6-9.4,3.9c0-0.4,0-0.7,0-1.1c0-0.2,0-0.4,0-0.6
		c2.2-0.8,4.5-1.4,6.6-2.4c0.9-0.4,1.5-1.7,2.2-2.6C96.8,124,97,124.4,97.2,124.8z"/>
	<path class="st41" d="M87.8,124.2c0-0.4,0-0.7,0-1.1c0-0.9,0-1.8,0-2.8c2.4-0.7,4.8-1.5,7.2-2.2c1.1,2.2,0.2,3.3-1.9,4
		C91.3,122.8,89.5,123.5,87.8,124.2z"/>
	<path class="st17" d="M95,118.1c-2.4,0.7-4.8,1.5-7.2,2.2c-0.1-1.9,0.9-2.8,2.6-3.4c1.4-0.5,2.7-1.1,4.1-1.6
		c0.2,0.4,0.4,0.7,0.6,1.1C95,117,95,117.6,95,118.1z"/>
	<path class="st17" d="M96.6,111.5c-0.7,1.1-1.5,2.2-2.2,3.3C93.3,112.5,95,112,96.6,111.5z"/>
	<path class="st32" d="M95,118.1c0-0.6,0-1.1,0-1.7c1.1-0.7,2.2-1.5,3.3-2.2c0.5,0.7,1.1,1.5,1.6,2.2c0,0.2,0,0.4,0,0.5
		c-1.4,1.6-4.4,1.9-3.9,5c-0.7,0.7-1.2,1.8-2.1,2.2c-2,0.8-4.1,1.2-6.2,1.7c0-0.6,0-1.1,0-1.7c1.8-0.7,3.5-1.4,5.3-2
		C95.2,121.5,96.1,120.3,95,118.1z"/>
	<path class="st35" d="M87.8,125.9c2.1-0.5,4.2-0.9,6.2-1.7c0.8-0.3,1.4-1.4,2.1-2.2c0.2,0.4,0.4,0.7,0.6,1.1c0,0.2,0,0.4,0,0.5
		c-0.7,0.9-1.3,2.1-2.2,2.6c-2.1,1-4.4,1.6-6.6,2.4c0-0.6,0-1.1,0-1.7C87.8,126.6,87.8,126.2,87.8,125.9z"/>
	<path class="st42" d="M128.6,116.5c-0.6,0.4-1.1,0.7-1.7,1.1c-2,1.4-3.6,0.7-5.1-0.9c-1.4-1.6-2.7-2.9-5.1-1.3
		c-0.6,0.4-2.4-0.7-3.6-1.1c0.6-1.1,1.1-2.2,1.7-3.3c0,0,0,0,0,0c2.4,0.8,4.8,3.2,7.2,0C124.2,112.8,126.4,114.6,128.6,116.5z"/>
	<path class="st18" d="M96.6,123.1c-0.2-0.4-0.4-0.7-0.6-1.1c-0.6-3.1,2.5-3.4,3.9-5c0.5,0.9,1.1,1.8,1.6,2.8
		C99.9,120.9,98.3,122,96.6,123.1z"/>
	<path class="st43" d="M96.6,123.1c1.7-1.1,3.3-2.2,5-3.3c0.2,0,0.4,0,0.5,0c0.2,0.7,0.4,1.5,0.6,2.2c-1.8,0.9-3.7,1.8-5.5,2.8
		c-0.2-0.4-0.4-0.7-0.6-1.1C96.6,123.5,96.6,123.3,96.6,123.1z"/>
	<path class="st18" d="M122,111c-2.4,3.3-4.8,0.9-7.2,0c0.5-0.9,1.1-1.8,1.6-2.8c0.4-0.5,0.8-1.1,1.1-1.6c1.6,1.1,3.3,2.2,4.9,3.3
		C122.4,110.2,122.2,110.6,122,111z"/>
</g>
</svg>
