<?xml version="1.0" encoding="utf-8"?>
<!-- Generator: Adobe Illustrator 24.0.1, SVG Export Plug-In . SVG Version: 6.00 Build 0)  -->
<svg version="1.1" id="Layer_1" xmlns="http://www.w3.org/2000/svg" xmlns:xlink="http://www.w3.org/1999/xlink" x="0px" y="0px"
	 viewBox="0 0 128 128" style="enable-background:new 0 0 128 128;" xml:space="preserve">
<style type="text/css">
	.st0{fill:#B836CE;}
	.st1{fill:#63236F;}
	.st2{fill:#FEFDFE;}
</style>
<g>
	<path class="st0" d="M70.3,128c-4.3,0-8.7,0-13,0c-0.4-0.2-0.7-0.4-1.1-0.5c-3.7-0.8-7.4-1.6-11.1-2.4c4.6-2.7,9.3-5.5,13.9-8.2
		c7.5-4.5,15-8.9,22.5-13.4c5.5-3.4,11.6-5.8,16.2-10.6c3.4-0.6,3.8-1.4,2.2-4.5c0-0.1-0.1-0.1-0.1-0.2C88.9,68.1,78,48.1,67.1,28.1
		c-1.6-2.9-2.1-3-4.7-1.2c-0.6,0.3-1.2,0.5-1.8,0.8C45.8,36.5,31,45.3,16.1,54.1C10.7,57.2,5.4,60.3,0,63.3c0-2,0-4,0-6.1
		c0.2-0.9,0.5-1.7,0.7-2.6C5.1,27.1,25,6.4,52.3,1.1c1.7-0.3,3.3-0.7,5-1.1c4.3,0,8.7,0,13,0c0.5,0.2,1,0.4,1.6,0.5
		c27.7,3.6,49.5,24,55,51.4c0.4,2,0.8,3.9,1.2,5.8c0,4.3,0,8.7,0,13c-0.2,0.9-0.5,1.7-0.7,2.6c-4.4,27.5-24.3,48.2-51.6,53.6
		C73.9,127.3,72.1,127.6,70.3,128z"/>
	<path class="st1" d="M0,63.3c5.4-3.1,10.7-6.2,16.1-9.3C31,45.3,45.8,36.5,60.7,27.7c0.6-0.3,1.2-0.5,1.8-0.8
		c-0.2,0.6-0.3,1.2-0.6,1.8c-2.7,5-5.5,10-8.2,15c-4.8,8.8-9.6,17.6-14.4,26.5c-1.5,2.7-0.7,3.9,2.4,3.9c3.3,0,6.7-0.1,10,0
		c2.4,0.1,3.8-0.9,4.8-2.9c2-3.8,4-7.7,6.2-11.4c0.5-0.8,1.3-1.7,2.1-1.9c0.5-0.1,1.5,1,1.9,1.8c2.5,4.4,4.9,8.8,7.3,13.3
		c1.4,2.6,0.8,3.6-2.1,3.7c-4.3,0.1-8.7,0-13,0.1c-1,0-2.5,0.5-2.9,1.3c-2.2,3.8-4.3,7.7-6.2,11.6c-0.9,2-0.1,2.9,2.1,3.1
		c0.9,0.1,1.9,0,2.8,0c14.4,0,28.8,0,43.1,0c-4.6,4.8-10.7,7.2-16.2,10.6c-7.4,4.6-15,9-22.5,13.4c-4.6,2.8-9.3,5.5-13.9,8.2
		c-0.8-0.1-1.7-0.1-2.5-0.4c-22.2-8.5-36.1-24.4-41.4-47.6c-0.4-1.8-0.8-3.7-1.3-5.5C0,68.8,0,66.1,0,63.3z"/>
	<path class="st2" d="M97.6,92.9c-14.4,0-28.8,0-43.1,0c-0.9,0-1.9,0-2.8,0c-2.2-0.2-3-1.1-2.1-3.1c1.9-4,4-7.9,6.2-11.6
		c0.5-0.8,1.9-1.3,2.9-1.3c4.3-0.2,8.7,0,13-0.1c2.9-0.1,3.5-1.1,2.1-3.7c-2.4-4.4-4.8-8.9-7.3-13.3c-0.4-0.8-1.4-1.9-1.9-1.8
		c-0.8,0.2-1.6,1.1-2.1,1.9c-2.1,3.8-4.2,7.6-6.2,11.4c-1,2-2.4,3-4.8,2.9c-3.3-0.2-6.6,0-10,0c-3.1,0-3.8-1.2-2.4-3.9
		c4.7-8.8,9.6-17.6,14.4-26.5c2.7-5,5.5-10,8.2-15c0.3-0.6,0.4-1.2,0.6-1.8c2.6-1.8,3.1-1.7,4.7,1.2c10.9,20,21.8,40,32.7,60.1
		c0,0.1,0.1,0.1,0.1,0.2C101.4,91.5,101,92.3,97.6,92.9z"/>
</g>
</svg>
