<?xml version="1.0" encoding="utf-8"?>
<!-- Generator: Adobe Illustrator 24.0.1, SVG Export Plug-In . SVG Version: 6.00 Build 0)  -->
<svg version="1.1" id="Layer_1" xmlns="http://www.w3.org/2000/svg" xmlns:xlink="http://www.w3.org/1999/xlink" x="0px" y="0px"
	 viewBox="0 0 128 128" style="enable-background:new 0 0 128 128;" xml:space="preserve">
<style type="text/css">
	.st0{fill:#FE4439;}
	.st1{fill:#FEFCFC;}
</style>
<g>
	<path class="st0" d="M128,64.4c-0.8,37.1-30,63.7-64.1,63.6C29.9,128,0.4,101.3,0,64.3C-0.3,29.8,29.7,0,64.1,0
		C98.3,0,128,29.9,128,64.4z M105.4,44.3c-0.6-0.5-1.1-0.9-1.5-1.3c-12.6-9.5-25.2-19-37.8-28.5c-1.1-0.8-1.8-0.7-2.8,0.1
		c-11,8.3-22.1,16.7-33.2,25c-2,1.5-4,3-6.1,4.7c2.6,2,4.8,3.9,7.2,5.6c1.3,0.9,1.6,1.9,1.6,3.3c-0.1,10.6-0.4,21.2,0.1,31.7
		c0.2,5.2-1,8.8-5.7,11.1c-1.8,0.9-1.6,1.7-0.1,3c21,18,52.5,18.1,73.5,0.1c2.7-2.3,2.7-2.3-0.2-4.4c-0.8-0.6-1.7-1.1-2.4-1.8
		c-0.6-0.7-1.2-1.6-1.2-2.4c-0.1-12.6-0.1-25.1,0-37.7c0-0.8,0.6-1.9,1.2-2.4C100.4,48.2,102.9,46.3,105.4,44.3z"/>
	<path class="st1" d="M105.4,44.3c-2.6,2-5.1,3.9-7.4,5.9c-0.6,0.6-1.2,1.6-1.2,2.4c-0.1,12.6-0.1,25.1,0,37.7
		c0,0.8,0.7,1.8,1.2,2.4c0.6,0.7,1.6,1.2,2.4,1.8c2.9,2.1,2.9,2.1,0.2,4.4c-21,18-52.5,17.9-73.5-0.1c-1.5-1.2-1.6-2.1,0.1-3
		c4.7-2.3,5.9-5.9,5.7-11.1c-0.5-10.5-0.2-21.1-0.1-31.7c0-1.5-0.3-2.4-1.6-3.3c-2.4-1.7-4.6-3.6-7.2-5.6c2.1-1.6,4.1-3.2,6.1-4.7
		c11.1-8.3,22.2-16.6,33.2-25c1-0.8,1.7-0.9,2.8-0.1c12.6,9.5,25.2,19,37.8,28.5C104.4,43.4,104.8,43.8,105.4,44.3z M83.5,82.1
		c0-7.8,0-15.1,0-22.4c0-1.2-0.4-2.5-0.8-3.7C79.8,46.9,70.9,41.1,62,42.5c-9.6,1.5-16,9-16,19.1c0,6.2,0,12.4,0,18.5
		c0,0.5,0.1,1.1,0.2,1.9c0.9-0.6,1.5-1,2-1.4c5-3.8,10-7.5,15-11.3c1.3-1,2.2-1,3.4,0.1c1.8,1.5,3.7,2.8,5.5,4.2
		C75.8,76.3,79.5,79,83.5,82.1z"/>
	<path class="st0" d="M83.5,82.1c-4.1-3-7.8-5.8-11.5-8.6c-1.9-1.4-3.8-2.7-5.5-4.2c-1.2-1-2.1-1.1-3.4-0.1c-4.9,3.9-10,7.6-15,11.3
		c-0.6,0.4-1.2,0.8-2,1.4c-0.1-0.8-0.2-1.3-0.2-1.9c0-6.2,0-12.4,0-18.5C46,51.5,52.4,44,62,42.5c8.9-1.4,17.8,4.4,20.8,13.5
		c0.4,1.2,0.7,2.5,0.8,3.7C83.6,67,83.5,74.3,83.5,82.1z"/>
</g>
</svg>
