<?xml version="1.0" encoding="utf-8"?>
<!-- Generator: Adobe Illustrator 24.0.1, SVG Export Plug-In . SVG Version: 6.00 Build 0)  -->
<svg version="1.1" id="Layer_1" xmlns="http://www.w3.org/2000/svg" xmlns:xlink="http://www.w3.org/1999/xlink" x="0px" y="0px"
	 viewBox="0 0 128 128" style="enable-background:new 0 0 128 128;" xml:space="preserve">
<style type="text/css">
	.st0{fill:#1E1D3D;}
	.st1{fill:#EAEDF1;}
	.st2{fill:#FFFFFF;}
</style>
<circle class="st0" cx="64" cy="64" r="64"/>
<path class="st1" d="M64,10c29.4-0.3,51,23.1,53.9,47.8c3.7,32.7-22.6,61-55.1,60.3c-30.4-0.7-51.4-25.3-52.9-50.9
	C8.1,33.9,36,9,64,10z M113.6,64.1c0-27.2-22.5-49.7-49.7-49.6C36.8,14.7,14.6,37,14.5,64.1c0,27.2,22.5,49.7,49.7,49.6
	C91.4,113.6,113.6,91.2,113.6,64.1z"/>
<circle class="st0" cx="64.2" cy="64" r="49.5"/>
<g>
	<path class="st2" d="M64.4,71.4c8.3,0,16.5,0,24.8,0c0,4.3,0,8.4,0,12.8c-0.9,0-1.7,0-2.6,0c-14.9,0-29.9,0-44.8,0
		c-2.2,0-2.9-0.6-2.9-2.8c0.1-16.7,0.1-33.4,0-50.1c0-1.6,0.1-2.5,2.1-2.5c15.6,0.1,31.2,0,46.7,0.1c0.4,0,0.8,0.1,1.4,0.1
		c0,4.1,0,8.2,0,12.5c-8.3,0-16.5,0-24.8,0C64.4,51.6,64.4,61.4,64.4,71.4z"/>
	<path class="st2" d="M89.4,96.7c0,0.9-0.1,1.6-0.1,2.5c-0.9,0-1.7,0-2.5,0c-15,0-30,0-45,0c-0.6,0-1.2,0.2-1.7-0.1
		c-0.4-0.2-0.9-0.9-0.9-1.4c0-0.4,0.5-0.9,0.9-1.2c0.3-0.2,0.8-0.1,1.2-0.1c15.5,0,31,0,46.5,0C88.1,96.6,88.6,96.7,89.4,96.7z"/>
</g>
</svg>
