<?xml version="1.0" encoding="utf-8"?>
<!-- Generator: Adobe Illustrator 24.0.1, SVG Export Plug-In . SVG Version: 6.00 Build 0)  -->
<svg version="1.1" id="Layer_1" xmlns="http://www.w3.org/2000/svg" xmlns:xlink="http://www.w3.org/1999/xlink" x="0px" y="0px"
	 viewBox="0 0 212 212" style="enable-background:new 0 0 212 212;" xml:space="preserve">
<style type="text/css">
	.st0{fill:#55AFF2;}
	.st1{fill:#E7E6E8;}
</style>
<g>
	<path class="st0" d="M105.1,212c-35.5-1-65.3-15.3-86-45.9C-1.4,135.8-5.8,102.3,7.9,67.6C21.5,32.9,47.1,11.4,82.2,3
		c28.1-6.8,55-2,80,13.5c25.2,15.6,41.1,38.1,47.2,67.2c6.7,31.9,0.5,61.4-19.6,87.2C168.3,198.3,139.9,211.3,105.1,212z
		 M100.7,186.4c-22-36.3-46.7-70.7-65.2-109.9c-1.1,2.7-2.2,4.6-2.8,6.7c-3,9.6-3.2,19.3-2.1,29.2c1.8,16,8.3,29.2,21,38.8
		c9.5,7.2,19.2,14.1,28.9,21.1C87.2,177.1,94,181.7,100.7,186.4z M172.9,131.5c4.5-7.7,6.8-16.1,7.3-24.8c0.4-8.1-1.5-15.9-2.9-23.9
		c-2.5-14-10.2-23.4-20.5-31.2c-12.8-9.7-26-18.8-39.2-28.1c-1.7-1.2-3.7-1.8-6.8-3.3c1.2,2.3,1.6,3.4,2.2,4.3
		c14.9,23.5,30.2,46.7,44.7,70.5C164.4,106.2,172.1,117.3,172.9,131.5z M111.1,181.8c0.2,0.4,0.4,0.8,0.7,1.2
		c1.8-0.8,3.8-1.3,5.4-2.4c8.1-5.6,16.1-11.4,24.2-17.2c3.3-2.4,6.5-5.1,10-7.1c15.9-9.2,15.5-33,4.7-45.6c-1.7-2-2.3-1.3-3.5,0.8
		c-8,13.8-16.3,27.6-24.5,41.4C122.4,162.5,116.8,172.2,111.1,181.8z M55.4,95.8c14.9-25.2,29.3-49.6,43.8-74.1
		c-0.4-0.4-0.8-0.7-1.3-1.1c-1,0.5-2.1,0.8-3,1.4c-5.5,4-10.8,8.2-16.4,12.1C71,39.6,63,44.5,55.7,50.3c-3,2.4-5.5,6.2-6.9,9.9
		C44,72.8,47.4,84.2,55.4,95.8z"/>
	<path class="st1" d="M100.7,186.4c-6.7-4.7-13.5-9.3-20.2-14.1c-9.7-6.9-19.4-13.8-28.9-21.1c-12.7-9.6-19.2-22.8-21-38.8
		c-1.1-10-0.9-19.7,2.1-29.2c0.6-2.1,1.7-4,2.8-6.7C54.1,115.7,78.7,150.1,100.7,186.4z"/>
	<path class="st1" d="M172.9,131.5c-0.8-14.2-8.4-25.3-15.2-36.4c-14.5-23.8-29.8-47-44.7-70.5c-0.6-1-1-2-2.2-4.3
		c3.1,1.5,5.1,2.1,6.8,3.3c13.1,9.3,26.3,18.4,39.2,28.1c10.3,7.8,18.1,17.2,20.5,31.2c1.4,8,3.3,15.8,2.9,23.9
		C179.7,115.4,177.4,123.7,172.9,131.5z"/>
	<path class="st1" d="M111.1,181.8c5.6-9.6,11.3-19.3,16.9-28.9c8.2-13.8,16.4-27.5,24.5-41.4c1.2-2.1,1.8-2.7,3.5-0.8
		c10.8,12.6,11.2,36.3-4.7,45.6c-3.5,2-6.7,4.7-10,7.1c-8.1,5.7-16.1,11.5-24.2,17.2c-1.6,1.1-3.6,1.6-5.4,2.4
		C111.6,182.6,111.3,182.2,111.1,181.8z"/>
	<path class="st1" d="M55.4,95.8c-8-11.5-11.4-23-6.6-35.7c1.4-3.7,3.9-7.5,6.9-9.9C63,44.5,71,39.6,78.6,34.2
		c5.5-3.9,10.9-8.1,16.4-12.1c0.9-0.6,2-1,3-1.4c0.4,0.4,0.8,0.7,1.3,1.1C84.8,46.2,70.3,70.6,55.4,95.8z"/>
</g>
</svg>
