<?xml version="1.0" encoding="utf-8"?>
<!-- Generator: Adobe Illustrator 24.0.1, SVG Export Plug-In . SVG Version: 6.00 Build 0)  -->
<svg version="1.1" id="Layer_1" xmlns="http://www.w3.org/2000/svg" xmlns:xlink="http://www.w3.org/1999/xlink" x="0px" y="0px"
	 viewBox="0 0 212 212" style="enable-background:new 0 0 212 212;" xml:space="preserve">
<style type="text/css">
	.st0{fill:#3A86C5;}
	.st1{fill:#DAF3FB;}
	.st2{fill:#3A86C4;}
	.st3{fill:#F7FCFC;}
</style>
<g>
	<path class="st0" d="M212,106.1c0,58.4-47.6,105.9-106.1,105.9C47.2,211.9-0.1,164.4,0,105.5C0.1,47.3,47.7-0.1,106.2,0
		C164.6,0.1,212,47.6,212,106.1z M106.1,195.8c47.7,0.4,89.7-37.9,89.8-89.5c0.1-49.7-39.6-89.6-89.6-89.7
		C80.9,16.5,59.1,26,41.5,44.3c-17.9,18.6-26.1,41.4-24.8,66.8c1.2,23.2,10.5,43.5,27.7,59.7C61.6,187.3,82.3,195.5,106.1,195.8z"/>
	<path class="st1" d="M106.1,195.8c-23.8-0.3-44.5-8.5-61.8-24.9c-17.1-16.2-26.5-36.6-27.7-59.7c-1.3-25.4,6.9-48.2,24.8-66.8
		C59.1,26,80.9,16.5,106.3,16.5c50.1,0.1,89.7,40,89.6,89.7C195.8,157.9,153.8,196.1,106.1,195.8z M106.3,194.3
		c46.5,0.3,88.2-37,88.2-88.1c0-49.6-39.6-88.3-88.4-88.3c-50.5,0-89.5,41.8-88.1,90.9C19.4,155.6,58.1,194.6,106.3,194.3z"/>
	<path class="st2" d="M106.3,194.3c-48.2,0.3-86.9-38.8-88.2-85.5c-1.4-49.1,37.6-90.8,88.1-90.9c48.8,0,88.4,38.7,88.4,88.3
		C194.5,157.3,152.8,194.7,106.3,194.3z M167.7,72.9c-0.8,0.4-1.3,0.6-1.9,0.9c-18.6,10.7-37.2,21.5-55.9,32.2
		c-1.2,0.7-1.5,1.5-1.5,2.8c0,7.5,0,14.9,0,22.4c0,0.6,0.1,1.2,0.1,2.1c2.8-1.6,5.2-3.2,7.8-4.5c1.2-0.6,1.4-1.4,1.4-2.6
		c-0.1-4,0-7.9-0.1-11.9c0-1.4,0.5-2.2,1.7-2.9c12.4-7.1,24.7-14.2,37.1-21.4c0.4-0.2,0.9-0.4,1.6-0.6c0.1,0.6,0.1,1,0.1,1.3
		c0,14,0,28,0,41.9c0,1.5-0.7,2.2-1.9,2.9c-15.4,9.4-30.8,18.9-46.2,28.4c-0.7,0.4-1.7,1.2-1.7,1.9c-0.2,3.2-0.1,6.5-0.1,10
		c0.9-0.5,1.5-0.7,2.1-1.1c18.3-11.3,36.6-22.5,54.9-33.7c1.6-1,2.2-2,2.2-3.9c-0.1-20.6,0-41.2,0-61.7
		C167.7,74.6,167.7,73.9,167.7,72.9z M93.1,159c-0.8-0.4-1.4-0.7-2-1.1c-12-7.4-24-14.8-36.1-22.2c-1.7-1-2.3-2.1-2.3-4.1
		c0.1-17.1,0.1-34.2,0-51.2c0-0.9-0.1-2.3-0.7-2.7c-2.7-1.8-5.5-3.3-8.5-5c-0.1,0.7-0.1,1-0.1,1.3c0,21.4,0,42.7,0.1,64.1
		c0,0.8,0.8,2,1.5,2.5c15.8,9.8,31.7,19.6,47.6,29.3c3.2,2,6.4,3.9,9.9,6c0.1-0.9,0.1-1.4,0.1-1.9c0-21.8,0-43.6,0-65.5
		c0-1.4-0.6-2.1-1.7-2.7c-4.7-2.7-9.4-5.4-14.1-8.1c-2.1-1.2-4.3-2.4-6.7-3.8c0,3.3-0.1,6.2,0.1,9c0.1,0.9,0.8,2.1,1.6,2.7
		c3.1,2,6.3,3.7,9.5,5.5c1.4,0.8,2.1,1.7,2,3.5c-0.1,14,0,28,0,41.9C93.2,157.2,93.1,158,93.1,159z M127.4,89
		c-2.8-1.8-5.2-3.4-7.7-4.7c-0.6-0.4-1.8-0.3-2.4,0c-3.4,1.8-6.8,3.7-10.1,5.8c-1.2,0.8-2.1,0.7-3.3,0c-8.7-5.1-17.5-10.1-26.2-15.2
		c-3.7-2.1-7.3-4.2-11.1-6.4c0.3-0.3,0.4-0.4,0.6-0.5c12.4-6.7,24.8-13.5,37.3-20.1c0.7-0.4,1.9-0.2,2.7,0.2
		c15.3,8.2,30.5,16.4,45.7,24.6c0.7,0.4,1.7,0.8,2.3,0.5c2.9-1.5,5.7-3.2,8.9-5c-0.8-0.5-1.3-0.9-1.8-1.2
		c-18.3-9.9-36.6-19.7-54.9-29.7c-1.2-0.7-2.2-0.7-3.4,0c-18.1,9.8-36.2,19.6-54.2,29.3C48.8,67,48,67.4,47,68
		c2.7,1.5,5,2.9,7.2,4.2c16.5,9.5,33.1,19.1,49.6,28.7c1.2,0.7,2.2,0.8,3.4,0c3.5-2.1,7.1-4.1,10.7-6.2C121,92.8,124.1,91,127.4,89z
		"/>
	<path class="st3" d="M167.7,72.9c0,1,0,1.8,0,2.5c0,20.6,0,41.2,0,61.7c0,1.9-0.6,2.9-2.2,3.9c-18.3,11.2-36.6,22.5-54.9,33.7
		c-0.6,0.3-1.2,0.6-2.1,1.1c0-3.6-0.1-6.8,0.1-10c0-0.7,1-1.5,1.7-1.9c15.4-9.5,30.8-19,46.2-28.4c1.1-0.7,1.9-1.4,1.9-2.9
		c-0.1-14,0-28,0-41.9c0-0.4-0.1-0.7-0.1-1.3c-0.6,0.3-1.1,0.4-1.6,0.6c-12.4,7.1-24.7,14.3-37.1,21.4c-1.2,0.7-1.7,1.5-1.7,2.9
		c0.1,4,0,7.9,0.1,11.9c0,1.2-0.2,2-1.4,2.6c-2.6,1.3-5.1,2.9-7.8,4.5c-0.1-0.9-0.1-1.5-0.1-2.1c0-7.5,0-14.9,0-22.4
		c0-1.3,0.3-2.1,1.5-2.8c18.6-10.7,37.3-21.4,55.9-32.2C166.4,73.5,166.9,73.2,167.7,72.9z"/>
	<path class="st3" d="M93.1,159c0-1,0.1-1.7,0.1-2.5c0-14,0-28,0-41.9c0-1.7-0.6-2.7-2-3.5c-3.2-1.7-6.4-3.5-9.5-5.5
		c-0.8-0.5-1.5-1.7-1.6-2.7c-0.2-2.9-0.1-5.7-0.1-9c2.4,1.4,4.6,2.6,6.7,3.8c4.7,2.7,9.4,5.4,14.1,8.1c1.1,0.6,1.7,1.3,1.7,2.7
		c-0.1,21.8,0,43.6,0,65.5c0,0.5-0.1,1-0.1,1.9c-3.5-2.1-6.7-4.1-9.9-6c-15.9-9.8-31.7-19.5-47.6-29.3c-0.7-0.5-1.5-1.6-1.5-2.5
		c-0.1-21.4-0.1-42.7-0.1-64.1c0-0.3,0.1-0.6,0.1-1.3c3,1.7,5.8,3.2,8.5,5c0.6,0.4,0.7,1.8,0.7,2.7c0,17.1,0.1,34.2,0,51.2
		c0,2,0.6,3.1,2.3,4.1C67,143.1,79,150.5,91,157.9C91.6,158.3,92.2,158.5,93.1,159z"/>
	<path class="st3" d="M127.4,89c-3.4,2-6.4,3.9-9.5,5.7c-3.5,2.1-7.1,4.1-10.7,6.2c-1.2,0.7-2.2,0.7-3.4,0
		c-16.5-9.6-33-19.1-49.6-28.7C52,70.9,49.7,69.6,47,68c1-0.6,1.8-1,2.6-1.4c18.1-9.8,36.2-19.5,54.2-29.3c1.2-0.7,2.1-0.7,3.4,0
		c18.3,9.9,36.6,19.8,54.9,29.7c0.5,0.3,1,0.6,1.8,1.2c-3.1,1.8-5.9,3.5-8.9,5c-0.5,0.3-1.6-0.2-2.3-0.5
		c-15.2-8.2-30.5-16.4-45.7-24.6c-0.7-0.4-2-0.6-2.7-0.2c-12.5,6.7-24.9,13.4-37.3,20.1c-0.1,0.1-0.2,0.2-0.6,0.5
		c3.7,2.2,7.4,4.3,11.1,6.4c8.7,5,17.5,10.1,26.2,15.2c1.2,0.7,2.1,0.8,3.3,0c3.3-2,6.7-3.9,10.1-5.8c0.7-0.3,1.8-0.4,2.4,0
		C122.2,85.6,124.6,87.2,127.4,89z"/>
</g>
</svg>
