<?xml version="1.0" encoding="utf-8"?>
<!-- Generator: Adobe Illustrator 24.0.1, SVG Export Plug-In . SVG Version: 6.00 Build 0)  -->
<svg version="1.1" id="Layer_1" xmlns="http://www.w3.org/2000/svg" xmlns:xlink="http://www.w3.org/1999/xlink" x="0px" y="0px"
	 viewBox="0 0 128 128" style="enable-background:new 0 0 128 128;" xml:space="preserve">
<style type="text/css">
	.st7{fill:#FAFCFC;}
</style>
<defs>
    <linearGradient id="myGradient" gradientTransform="rotate(90)">
      <stop offset="5%"  stop-color="#2E7BAB" />
      <stop offset="95%" stop-color="#11A2B0" />
    </linearGradient>
  </defs>

  <!-- using my linear gradient -->
  <circle cx="64" cy="64" r="64" fill="url('#myGradient')" />
<g>
	<path class="st7" d="M111.7,67.2c-0.4,3-0.8,5.9-1.2,8.9c-1.2,3.2-2.3,6.5-3.5,9.7c-2.3,3.5-4.6,6.9-6.8,10.4
		c-2.4,2.2-4.9,4.4-7.3,6.6c-0.6,0.4-1.2,0.9-1.9,1.3c-0.4,0.2-1,0.1-1.5,0.1c-1.4-2-2.7-4-4.1-6c-0.2-0.3-0.3-0.7-0.5-1
		c-1.6-2.3-3.2-4.5-4.7-6.8c-0.3-0.5-0.6-1.1-0.9-1.6c-2-3.1-4.1-6.1-6.2-9.2c0.4-1.3,0.6-2.7,1.2-3.8c1.5-2.7,3.3-5.4,4.9-8
		c4.2-5.5,6.1-11.5,5.2-18.4c-0.6-5.8-3.2-10.7-7-15c-1.1-1.2-2.4-2.1-3.7-3.2c-2.2-1.6-4.2-3.4-6.5-4.6c-3.5-1.8-7.3-3.2-11-4.8
		c-0.5-0.2-0.7-0.9-1-1.4c0.5-0.3,1-0.8,1.5-0.8c7.5-0.1,14.8,1,21.5,4.6c0.9,0.4,1.8,0.8,2.6,1.2c0.4,0.2,0.7,0.5,1.1,0.7
		c0.5,0.3,1,0.6,1.5,0.9c0.5,0.5,1,0.9,1.6,1.4c0.4,0.3,0.8,0.6,1.3,0.9c1.4,1.3,2.8,2.6,4.2,3.9c0.1,0.1,0.3,0.3,0.4,0.4
		c0.6,0.7,1.2,1.4,1.8,2.1c0,0,0,0,0,0c1.4,2.1,2.7,4.1,4.1,6.2c1.6,3.8,2.8,7.8,3.3,11.9c-0.4,3-0.6,6-1.2,9c-0.4,2.1-1.4,4-2.2,6
		c-1.3,2-2.8,3.9-3.9,5.9c-0.4,0.8-0.6,2.3-0.2,3c1.4,2.5,3.1,4.9,4.8,7.2c0.2,0.2,1.1,0.2,1.3,0c3.4-4.6,6.3-9.5,7.5-15.3
		c0.4-1.8,0.8-3.6,1.1-5.4c0-0.4,0.1-0.8,0.1-1.2c0-2.2,0.1-4.4,0.1-6.6c-0.1-0.6-0.1-1.3-0.2-1.9c0-0.3,0-0.5,0-0.8
		c-0.6-4.3-1.8-8.4-4-12.1c-1.6-2.6-3.2-5.1-4.8-7.7c-0.5-0.8-1-1.5-1.5-2.3c0.4,0,0.8,0,1.1,0c1.2,1.3,2.5,2.6,3.5,4
		c2.1,3,4.1,6.1,6.1,9.2c1.3,4.1,2.6,8.1,3.9,12.2C111.4,60.4,111.5,63.8,111.7,67.2z"/>
	<path class="st7" d="M18.2,70.7c-0.1-1.5-0.3-3.1-0.2-4.6c0.1-3.3,0.2-6.5,0.4-9.8c0.1-1,0.5-2.1,0.8-3.1c0.3-0.9,0.6-1.8,0.9-2.7
		c2.1-6.4,5.3-12.2,9.8-17.3c2.7-2.3,5.5-4.6,8.2-7c1.1-1,1.8-0.7,2.6,0.5c1.2,1.9,2.5,3.7,3.7,5.6c2.3,3.4,4.6,6.7,6.9,10.1
		c1.8,2.6,3.5,5.3,5.3,8c0,2.5-1.5,4.3-2.7,6.3c-2,3.3-4,6.5-6,9.8c-2.4,4.2-3.2,8.8-2.7,13.6c0,4.4,1.5,8.2,4.1,11.7
		c1.5,3.6,4.5,5.8,7.4,8.2c0.8,0.5,1.5,1,2.3,1.5c0.4,0.3,0.8,0.5,1.2,0.8c1.1,0.6,2.2,1.3,3.3,1.9c0.6,0.3,1.2,0.6,1.7,0.9
		c0.8,0.2,1.5,0.5,2.3,0.7c2.6,0.9,5.1,1.8,7.7,2.7c0.6,0.2,1.2,0.7,1.7,1.1c-0.6,0.3-1.1,0.9-1.8,1c-5.6,0.5-11.2,0-16.5-1.8
		c-4.4-1.5-8.8-3.4-12.5-6.6c-0.8-0.7-1.8-1.2-2.7-1.7c-0.3-0.4-0.6-0.9-1-1.1c-3.1-2-5.3-4.8-7.1-8.1c-0.3-0.4-0.5-0.8-0.8-1.1
		c-0.2-0.3-0.4-0.6-0.6-0.9c-0.6-1.4-1.3-2.8-1.9-4.2c-0.7-2.7-1.3-5.4-2-8.1c0-2.5,0-5.1,0-7.6c0.2-0.3,0.3-0.6,0.5-0.9
		c0.5-1.4,0.9-2.8,1.4-4.3c1.7-2.8,3.4-5.6,5.1-8.4c0.9-1.4,0.9-2.6,0-3.9c-1.4-2.1-2.9-4.1-4.2-6.2c-0.7-1-1.1-1-1.8,0
		c-2.6,3.5-4.7,7.4-6.2,11.5c-0.8,2.2-1.2,4.5-1.7,6.7c-1.3,4.4-1.1,8.8-0.4,13.2c0.3,2.9,0.6,5.8,2.3,8.3c0.1,0.3,0.1,0.7,0.2,1
		c0,0.7-0.1,1.3-0.1,2c-0.9-1.4-1.8-2.9-2.7-4.3c-0.2-0.5-0.3-1-0.5-1.6c-0.3-0.6-0.6-1.2-1-1.8c0-0.4,0-0.8-0.1-1.1
		C19.7,76.5,19,73.6,18.2,70.7z"/>

</g>

</svg>
