<?xml version="1.0" encoding="utf-8"?>
<!-- Generator: Adobe Illustrator 24.0.1, SVG Export Plug-In . SVG Version: 6.00 Build 0)  -->
<svg version="1.1" id="Layer_1" xmlns="http://www.w3.org/2000/svg" xmlns:xlink="http://www.w3.org/1999/xlink" x="0px" y="0px"
	 viewBox="0 0 212 212" style="enable-background:new 0 0 212 212;" xml:space="preserve">
<style type="text/css">
	.st0{fill:#016AC0;}
	.st1{fill:#FDFDFE;}
</style>
<g>
	<path class="st0" d="M96.1,212c-1.3,0-2.5,0-3.8,0c-1.5-0.6-3-1.4-4.6-1.7c-42.1-7.2-75.9-39.5-85.1-81.5c-0.7-3.1-1.7-6.1-2.6-9.2
		c0-6.9,0-13.8,0-20.7C0,98,0,97,0,96.1c0-1.3,0-2.5,0-3.8c0.6-1.5,1.4-3,1.7-4.6c8.4-41.5,32.9-69.1,72.8-82.8
		C80.9,2.7,87.6,1.6,94.2,0c7.5,0,15.1,0,22.6,0c2,0.6,4,1.3,6,1.7c44.3,8.6,72.8,34.6,85.4,77.9c1.6,5.4,2.6,11,3.8,16.5
		c0,7.2,0,14.4,0,21.7c-0.3,0.8-0.8,1.6-0.9,2.4c-8.3,45.9-34.5,75.6-79.4,88.5c-4.6,1.3-9.2,2.2-13.9,3.3c-6.3,0-12.6,0-18.8,0
		C98,212,97,212,96.1,212z M77.4,90.5c-9.2,1.7-9.7,2.2-9.7,11.4c0,14.9,0,29.8,0,44.7c0,7.5,2,9.5,9.4,9.5c19.3,0,38.6,0,57.9,0
		c7.5,0,9.7-2.2,9.7-9.9c0-14.3,0-28.6,0-42.8c0-10.3-0.3-10.7-10.1-13c0-7.3-0.3-14.7,0.1-22c0.7-12.6-5.8-20.3-16.4-25.5
		c-19.3-9.5-43.8,6.8-41.2,25.8C78.2,75.8,77.4,83.3,77.4,90.5z"/>
	<path class="st1" d="M0,96.1C0,97,0,98,0,98.9C0,98,0,97,0,96.1z"/>
	<path class="st1" d="M96.1,212c0.9,0,1.9,0,2.8,0C98,212,97,212,96.1,212z"/>
	<path class="st1" d="M77.4,90.5c0-7.2,0.8-14.7-0.2-21.9c-2.6-18.9,21.9-35.3,41.2-25.8c10.5,5.2,17,12.9,16.4,25.5
		c-0.4,7.3-0.1,14.7-0.1,22c9.8,2.3,10.1,2.7,10.1,13c0,14.3,0,28.6,0,42.8c0,7.7-2.2,9.9-9.7,9.9c-19.3,0-38.6,0-57.9,0
		c-7.4,0-9.4-2-9.4-9.5c0-14.9,0-29.8,0-44.7C67.7,92.8,68.2,92.2,77.4,90.5z M74.4,149.5c21.3,0,42.4,0,63.7,0
		c0-17.4,0-34.6,0-51.7c-21.4,0-42.5,0-63.7,0C74.4,115.2,74.4,132.3,74.4,149.5z M128.3,90.9c0-7.8,0-15.2,0-22.5
		c0-10.9-5.2-17.8-15.8-20.9c-11.5-3.4-26.9,3.8-28.2,14.4c-1.2,9.5-0.3,19.3-0.3,29C98.9,90.9,113.3,90.9,128.3,90.9z"/>
	<path class="st0" d="M74.4,149.5c0-17.3,0-34.3,0-51.7c21.2,0,42.3,0,63.7,0c0,17.2,0,34.3,0,51.7
		C116.8,149.5,95.7,149.5,74.4,149.5z M106.4,135.9c2.5-2.1,5.4-3.4,6.1-5.4c0.8-2.2-0.1-5.2-0.7-7.8c-0.5-2.2-1.6-4.4-2.6-6.4
		c-0.8-1.5-1.9-2.7-2.9-4.1c-1.2,1.3-2.6,2.5-3.5,4.1c-1.2,2.2-2.2,4.6-2.6,7c-0.5,2.4-1.1,5.4-0.1,7.4
		C101.1,132.7,103.9,133.9,106.4,135.9z"/>
	<path class="st0" d="M128.3,90.9c-15,0-29.4,0-44.2,0c0-9.8-0.9-19.5,0.3-29c1.3-10.6,16.7-17.8,28.2-14.4
		c10.6,3.1,15.8,10,15.8,20.9C128.3,75.7,128.3,83,128.3,90.9z"/>
	<path class="st1" d="M106.4,135.9c-2.6-2-5.4-3.2-6.3-5.2c-0.9-2-0.4-5,0.1-7.4c0.5-2.4,1.5-4.8,2.6-7c0.8-1.5,2.3-2.7,3.5-4.1
		c1,1.3,2.1,2.6,2.9,4.1c1.1,2.1,2.1,4.2,2.6,6.4c0.6,2.5,1.5,5.5,0.7,7.8C111.8,132.5,109,133.8,106.4,135.9z"/>
</g>
</svg>
