<?xml version="1.0" encoding="utf-8"?>
<!-- Generator: Adobe Illustrator 24.0.1, SVG Export Plug-In . SVG Version: 6.00 Build 0)  -->
<svg version="1.1" id="Layer_1" xmlns="http://www.w3.org/2000/svg" xmlns:xlink="http://www.w3.org/1999/xlink" x="0px" y="0px"
	 viewBox="0 0 128 128" style="enable-background:new 0 0 128 128;" xml:space="preserve">
<style type="text/css">
	.st0{fill:#FFFFFF;}
</style>
<g>
	<path d="M63.9,0C99.1-0.1,128,28.7,128,63.9c0,35.2-28.8,64.1-64,64.1C28.9,128,0.2,99.4,0,64.2C-0.2,29,28.6,0.1,63.9,0z M24,45.9
		c4.8,0,9.3,0,13.9,0c0-4.7,0-9.2,0-13.7c-4.7,0-9.3,0-13.9,0C24,36.8,24,41.2,24,45.9z M90.1,45.9c4.8,0,9.3,0,13.8,0
		c0-4.7,0-9.3,0-13.8c-4.7,0-9.2,0-13.8,0C90.1,36.8,90.1,41.2,90.1,45.9z M54.4,62.9c-4.8,0-9.2,0-13.8,0c0,4.7,0,9.3,0,13.7
		c4.7,0,9.2,0,13.8,0C54.4,72,54.4,67.6,54.4,62.9z M73.7,62.9c0,4.8,0,9.3,0,13.8c4.7,0,9.2,0,13.8,0c0-4.7,0-9.1,0-13.8
		C82.8,62.9,78.3,62.9,73.7,62.9z M57,45.9c4.6,0,9.1,0,13.7,0c0-4.7,0-9.2,0-13.8c-4.7,0-9.2,0-13.7,0C57,36.8,57,41.3,57,45.9z
		 M70.7,108c0-4.6,0-9.2,0-13.9c-4.6,0-9.1,0-13.7,0c0,4.7,0,9.3,0,13.9C61.6,108,65.9,108,70.7,108z"/>
	<path class="st0" d="M24,45.9c0-4.7,0-9.1,0-13.7c4.6,0,9.2,0,13.9,0c0,4.6,0,9.1,0,13.7C33.3,45.9,28.8,45.9,24,45.9z"/>
	<path class="st0" d="M90.1,45.9c0-4.7,0-9.1,0-13.8c4.6,0,9.1,0,13.8,0c0,4.5,0,9,0,13.8C99.3,45.9,94.8,45.9,90.1,45.9z"/>
	<path class="st0" d="M54.4,62.9c0,4.7,0,9.1,0,13.7c-4.6,0-9.1,0-13.8,0c0-4.5,0-9,0-13.7C45.2,62.9,49.7,62.9,54.4,62.9z"/>
	<path class="st0" d="M73.7,62.9c4.6,0,9.1,0,13.8,0c0,4.6,0,9.1,0,13.8c-4.5,0-9,0-13.8,0C73.7,72.2,73.7,67.7,73.7,62.9z"/>
	<path class="st0" d="M57,45.9c0-4.6,0-9.1,0-13.8c4.5,0,9,0,13.7,0c0,4.6,0,9.1,0,13.8C66.1,45.9,61.6,45.9,57,45.9z"/>
	<path class="st0" d="M70.7,108c-4.8,0-9.1,0-13.7,0c0-4.6,0-9.2,0-13.9c4.6,0,9,0,13.7,0C70.7,98.8,70.7,103.3,70.7,108z"/>
</g>
</svg>
