<?xml version="1.0" encoding="utf-8"?>
<!-- Generator: Adobe Illustrator 24.0.1, SVG Export Plug-In . SVG Version: 6.00 Build 0)  -->
<svg version="1.1" id="Layer_1" xmlns="http://www.w3.org/2000/svg" xmlns:xlink="http://www.w3.org/1999/xlink" x="0px" y="0px"
	 viewBox="0 0 212 212" style="enable-background:new 0 0 212 212;" xml:space="preserve">
<style type="text/css">
	.st0{fill:#02133F;}
	.st1{fill:#F0B64C;}
	.st2{fill:#ECA141;}
	.st3{fill:#EE9847;}
	.st4{fill:#E9803F;}
	.st5{fill:#EFAF4B;}
	.st6{fill:#EB983A;}
	.st7{fill:#E37423;}
	.st8{fill:#EBA746;}
	.st9{fill:#E16B26;}
	.st10{fill:#E58029;}
	.st11{fill:#EFA84A;}
	.st12{fill:#EE9146;}
	.st13{fill:#E88A30;}
	.st14{fill:#E6763B;}
	.st15{fill:#031546;}
	.st16{fill:#E06329;}
</style>
<g>
	<path class="st0" d="M0,105.5C0.2,47.1,47.8-0.1,106.4,0S212.2,47.8,212,106.8C211.8,165,164,212.2,105.3,212
		C47,211.8-0.2,164.1,0,105.5z M60.3,72.1c1.2,0.4,2.2,0.8,3.2,1.1c7.9,2.5,15.9-0.5,20-7.3c4-6.7,3-15-2.6-20.7
		c-5.2-5.3-13.6-6.5-20.2-2.8c-7,3.9-10,11.8-8.1,19.8c0.5,2.2,0,5.2-1.2,7.1c-20.1,30.5-12.1,71.1,18,91.3
		c30,20.1,70.7,12.3,91-17.5s12.9-70.4-16.9-91c-11.1-7.7-23.4-11.8-37.1-11.6c0,3,0,5.6,0,8c33.5,4.9,52.9,22.5,56.4,50.9
		c3.1,25.5-11.7,50.3-35.7,59.8c-24.1,9.5-51.4,1.7-67-19.2C45.2,120,45.1,91.4,60.3,72.1z M106.2,131.5c14-0.1,25.5-11.9,25.3-25.8
		c-0.2-13.8-11.6-25.1-25.4-25.1c-14,0-25.6,11.6-25.5,25.6C80.6,120.1,92.2,131.6,106.2,131.5z"/>
	<path class="st0" d="M60.3,72.1C45.1,91.4,45.2,120,60,140c15.5,20.9,42.9,28.7,67,19.2c24-9.5,38.9-34.4,35.7-59.8
		c-3.5-28.4-22.9-46-56.4-50.9c0-2.5,0-5,0-8c13.7-0.2,26,3.9,37.1,11.6c29.8,20.7,37.2,61.2,16.9,91s-61,37.6-91,17.5
		c-30.2-20.2-38.1-60.8-18-91.3c1.2-1.9,1.7-4.9,1.2-7.1c-1.9-8,1.1-15.9,8.1-19.8c6.6-3.7,15-2.5,20.2,2.8c5.5,5.7,6.6,14,2.6,20.7
		c-4.1,6.8-12,9.8-20,7.3C62.5,72.9,61.5,72.6,60.3,72.1z M68.8,48.8c-4.6,0-8.5,4-8.3,8.6c0.1,4.4,3.8,8.1,8.2,8.2
		c4.7,0.1,8.5-3.7,8.6-8.3C77.3,52.6,73.5,48.8,68.8,48.8z"/>
	<path class="st0" d="M106.2,131.5c-14,0.1-25.7-11.4-25.7-25.4S92,80.5,106,80.5c13.8,0,25.2,11.3,25.4,25.1
		C131.7,119.6,120.2,131.4,106.2,131.5z"/>
	<path class="st0" d="M68.8,48.8c4.7,0,8.5,3.8,8.5,8.4c0,4.7-3.9,8.4-8.6,8.3c-4.4-0.1-8.1-3.7-8.2-8.2
		C60.3,52.9,64.2,48.9,68.8,48.8z"/>
</g>
<path class="st0" d="M108.7,205.4c-2.7,0-5.3,0-8,0c-4.8-0.8-9.6-1.3-14.3-2.4c-41.5-9.9-67.7-35.3-77.9-76.9
	c-1.2-4.8-1.9-9.8-2.8-14.7c0-4,0-8,0-12c0.6-3.1,1.3-6.2,1.8-9.3C14.3,48.6,43.8,17.4,85,8.3c5.2-1.1,10.5-1.9,15.7-2.8
	c3,0,6,0,9,0c5.1,0.8,10.3,1.2,15.3,2.4c41.5,9.9,67.7,35.3,77.9,76.9c1.3,5.2,1.9,10.5,2.8,15.7c0,3.7,0,7.3,0,11
	c-0.7,3.3-1.5,6.5-2,9.8c-5.7,41.5-41,76.7-82.2,82.2C117.2,204,112.9,204.8,108.7,205.4z M52.6,132.5c2.7,4,5.4,7.9,8.1,11.9
	c3.3,3,6.7,6,10,9.1c0.4,0.5,0.7,1.1,1.2,1.5c13.3,8.5,27.9,12.1,43.5,9.3c8-1.4,16-3.6,22.2-9.6c4.6-4,9.1-8,13.7-12
	c2.8-4.4,5.5-8.8,8.3-13.1c1.1-3,2.3-5.9,3.4-8.9c0.5-3.7,1-7.4,1.6-11.1c-0.1-4.3-0.2-8.7-0.3-13c-0.3-1.3-0.7-2.7-1-4
	c-1.3-4.1-2.7-8.1-4-12.2c-4.6-6.2-9.2-12.5-13.8-18.7c-6.1-7.2-14.7-10.7-23-13.3c-21.5-6.8-41.1-1.8-57.9,13.5
	c-2.7,3.3-5.4,6.5-8.2,9.8c-1.9,3.3-3.8,6.6-5.6,9.8c-1.7,6.1-3.3,12.1-5,18.2c0,3.3,0,6.7,0,10c0.6,3.3,1.1,6.7,1.7,10
	C49.3,123.8,51,128.1,52.6,132.5z"/>
<path class="st1" d="M64.8,61.7c16.8-15.2,36.4-20.2,57.9-13.5c8.2,2.6,16.9,6.2,23,13.3c-2.9,0.9-5.7,2.3-8.6,2.4
	c-6.3,0.2-12.7-0.5-19.1-0.4c-8.3,0.1-16.7,0.7-25,0.9c-5.9,0.1-11.8,0.1-17.7,0C71.6,64.3,67.5,65.5,64.8,61.7z"/>
<path class="st2" d="M151.4,142.6c-4.6,4-9.1,8-13.7,12c-1.6-0.7-3.2-2-4.9-2c-9-0.2-17.9-0.2-26.9-0.1c-11.7,0.2-23.5,0.6-35.2,0.9
	c-3.3-3-6.7-6-10-9.1c1.6-1,3.2-2.2,5-2.8c1.9-0.7,4-0.8,6-1.1c6.3,0,12.7,0,19,0.1c6.2,0.7,12.5,1.7,18.7,1.9
	C123.4,142.7,137.4,142.5,151.4,142.6z"/>
<path class="st3" d="M46,99.4c1.7-6.1,3.3-12.1,5-18.2c8.5,0.1,17.1,0.1,25.6,0.2c4.1,0.1,8.2,0.5,12.3,0.7
	c4.1,0.2,8.1,0.3,12.2,0.4c-2.5,5.6-5,11.2-7.6,16.8C77.7,99.4,61.8,99.4,46,99.4z"/>
<path class="st4" d="M47.7,119.4c-0.6-3.3-1.1-6.7-1.7-10c2.6,0.3,5.3,1,7.9,0.9c13.2-0.5,26.4-1.3,39.7-1.9c2.1,6,4.3,12,6.4,17.9
	c-9.7,0.4-19.5,0.6-29.2,1.1c-5,0.3-10,1.3-15,1.9C53,126.1,50.4,122.8,47.7,119.4z"/>
<path class="st5" d="M64.8,61.7c2.7,3.8,6.8,2.7,10.5,2.8c5.9,0.1,11.8,0.1,17.7,0c8.3-0.2,16.7-0.8,25-0.9
	c6.4-0.1,12.7,0.6,19.1,0.4c2.9-0.1,5.7-1.6,8.6-2.4c4.6,6.2,9.2,12.5,13.8,18.7c-1.2,0.1-2.5,0.2-3.7,0.2
	c-8.2-8.2-18-12.4-29.6-10.8c-5.6,0.7-11,3.2-16.4,4.9c-1.6-0.7-3.2-2-4.9-2c-14-0.2-27.9-0.1-41.9-0.1c-2.1,0-4.2-0.6-6.3-1
	C59.3,68.2,62,64.9,64.8,61.7z"/>
<path class="st6" d="M151.4,142.6c-14,0-28,0.1-42-0.2c-6.3-0.1-12.5-1.2-18.7-1.9c1.6-0.7,3.4-1.2,4.8-2.2c3.2-2.1,6.1-4.5,9.2-6.7
	c1.6-1.1,3.3-2.2,4.9-3.3c1.9,0.4,3.7,1.1,5.6,1.1c14.8,0.1,29.7,0.1,44.5,0.1C156.9,133.8,154.2,138.2,151.4,142.6z"/>
<path class="st7" d="M164.4,96.4c0.1,4.3,0.2,8.7,0.3,13c-15.8,0-31.6-0.1-47.4-0.1c-0.3-4.6-0.7-9.2-1-13.8
	c14.6,0,29.2-0.1,43.8-0.1C161.5,95.5,163,96.1,164.4,96.4z"/>
<path class="st8" d="M70.8,153.4c11.7-0.3,23.5-0.7,35.2-0.9c9-0.2,17.9-0.1,26.9,0.1c1.6,0,3.2,1.3,4.9,2c-6.2,6-14.2,8.2-22.2,9.6
	c-15.6,2.8-30.2-0.8-43.5-9.3C71.5,154.5,71.2,153.9,70.8,153.4z"/>
<path class="st9" d="M164.4,96.4c-1.4-0.3-2.9-0.9-4.3-0.9c-14.6,0-29.2,0-43.8,0.1c-1.6-3.6-3.2-7.2-4.8-10.8
	c1.9-0.5,3.7-1.3,5.6-1.3c11.5-0.1,23,0,34.5-0.1c1.7,0,3.5-0.6,5.2-1c2.2,3.3,4.5,6.7,6.7,10C163.7,93.7,164.1,95.1,164.4,96.4z"/>
<path class="st10" d="M117.3,109.3c15.8,0,31.6,0.1,47.4,0.1c-0.5,3.7-1,7.4-1.6,11.1c-16.3-0.1-32.6-0.2-48.8-0.3
	C115.3,116.6,116.3,113,117.3,109.3z"/>
<path class="st11" d="M56.6,71.4c2.1,0.3,4.2,1,6.3,1c14,0.1,27.9,0,41.9,0.1c1.6,0,3.2,1.3,4.9,2c-1.3,1.3-2.7,2.6-4,3.9
	c-1.5,1.4-3,2.8-4.6,4.2c-4.1-0.1-8.1-0.2-12.2-0.4c-4.1-0.2-8.2-0.6-12.3-0.7c-8.5-0.2-17.1-0.2-25.6-0.2
	C52.8,78,54.7,74.7,56.6,71.4z"/>
<path class="st12" d="M93.5,108.4c-13.2,0.7-26.4,1.4-39.7,1.9c-2.6,0.1-5.2-0.6-7.9-0.9c0-3.3,0-6.7,0-10c15.8,0,31.7,0,47.5,0
	C93.5,102.4,93.5,105.4,93.5,108.4z"/>
<path class="st13" d="M114.3,120.3c16.3,0.1,32.6,0.2,48.8,0.3c-1.1,3-2.3,5.9-3.4,8.9c-14.8,0-29.7,0-44.5-0.1
	c-1.9,0-3.8-0.7-5.6-1.1C111.2,125.6,112.7,123,114.3,120.3z"/>
<path class="st6" d="M71.7,140.4c-2,0.3-4.1,0.4-6,1.1c-1.8,0.6-3.3,1.9-5,2.8c-2.7-4-5.4-7.9-8.1-11.9c1.7,0,3.4,0,5.1,0
	C62.3,135.1,67,137.8,71.7,140.4z"/>
<path class="st13" d="M57.7,132.4c-1.7,0-3.4,0-5.1,0c-1.6-4.3-3.3-8.7-4.9-13c2.7,3.3,5.3,6.7,8,10C56.3,130.4,57,131.4,57.7,132.4
	z"/>
<path class="st3" d="M163.4,92.4c-2.2-3.3-4.5-6.7-6.7-10c-0.3-0.7-0.7-1.3-1-2c1.2-0.1,2.5-0.2,3.7-0.2
	C160.7,84.3,162.1,88.3,163.4,92.4z"/>
<path class="st14" d="M57.7,132.4c-0.7-1-1.3-2-2-3c5-0.7,10-1.6,15-1.9c9.7-0.6,19.5-0.8,29.2-1.1c1.6,1.7,3.2,3.5,4.8,5.2
	c-3.1,2.3-6,4.6-9.2,6.7c-1.4,1-3.2,1.5-4.8,2.2c-6.3,0-12.7,0-19,0C67,137.8,62.3,135.1,57.7,132.4z"/>
<path class="st15" d="M104.7,131.6c-1.6-1.7-3.2-3.5-4.8-5.2c-2.1-6-4.3-12-6.4-17.9c0-3,0-6,0-9c2.5-5.6,5-11.2,7.6-16.8
	c1.5-1.4,3-2.8,4.6-4.2c1.9,2.1,3.9,4.2,5.8,6.4c1.6,3.6,3.2,7.2,4.8,10.8c0.3,4.6,0.7,9.2,1,13.8c-1,3.7-2,7.3-3,11
	c-1.6,2.6-3.2,5.3-4.7,7.9C108,129.4,106.3,130.5,104.7,131.6z"/>
<path class="st16" d="M111.5,84.8c-1.9-2.1-3.9-4.2-5.8-6.4c1.3-1.3,2.7-2.6,4-3.9c5.5-1.7,10.8-4.2,16.4-4.9
	c11.5-1.5,21.4,2.6,29.6,10.8c0.3,0.7,0.7,1.3,1,2c-1.7,0.3-3.5,1-5.2,1c-11.5,0.1-23,0-34.5,0.1C115.2,83.5,113.3,84.3,111.5,84.8z
	"/>
</svg>
