<?xml version="1.0" encoding="utf-8"?>
<!-- Generator: Adobe Illustrator 24.0.1, SVG Export Plug-In . SVG Version: 6.00 Build 0)  -->
<svg version="1.1" id="Layer_1" xmlns="http://www.w3.org/2000/svg" xmlns:xlink="http://www.w3.org/1999/xlink" x="0px" y="0px"
	 viewBox="0 0 212 212" style="enable-background:new 0 0 212 212;" xml:space="preserve">
<style type="text/css">
	.st0{fill:#4D49FE;}
	.st1{fill:#DFDFE0;}
	.st2{fill:#8A89FD;}
	.st3{fill:#FED424;}
	.st4{fill:#FCDC06;}
</style>
<g>
	<path class="st0" d="M98.8,0c38.4,0.2,64.7,11.8,85.7,34.8c20.4,22.3,29.2,49.1,27.1,79.2c-2,28.3-13.8,52.1-34.8,71
		c-22.4,20.2-49.1,28.9-79.1,26.7c-28.1-2-51.9-13.9-70.7-34.8C6.9,154.4-1.8,127.8,0.3,97.8c2-28,13.9-51.6,34.6-70.6
		C50.6,12.8,76.8-0.7,98.8,0z M105.9,203.5c53.8,0,97.5-43.6,97.6-97.3c0-53.8-43.6-97.5-97.3-97.6c-53.8,0-97.5,43.6-97.6,97.3
		C8.5,159.7,52.1,203.4,105.9,203.5z"/>
	<path class="st1" d="M105.9,203.5c-53.8,0-97.4-43.8-97.3-97.6c0-53.8,43.8-97.4,97.6-97.3c53.8,0,97.4,43.8,97.3,97.6
		C203.4,159.9,159.7,203.5,105.9,203.5z M55.7,155l0.2,0.1c1,0.4,2,1.1,3.1,1.2c2,0.2,4,0.2,6,0c2-0.1,2.9,0.5,2.7,2.6
		c-0.2,2.2,0.1,4.4-0.1,6.6c-0.2,2.5,0.9,3.2,3.2,3.1c2.3-0.2,4.6-0.2,6.9,0c1,0.1,1.9,0.8,2.8,1.2c0,0.5,0,1,0,1.5
		c0,3,0.1,6.1,0.1,9.1c0.8,0.1,1.6,0.4,2.4,0.4c14.8,0,29.5,0,44.3,0c0.8,0,1.6-0.2,2.4-0.4c0-3.2,0.1-6.4,0.1-9.7c0-0.3,0-0.7,0-1
		c1.7-0.4,3.4-0.9,5.1-1.1c2.2-0.4,4.5-0.6,6.8-0.8l0.1-0.1c0.3-0.9,0.8-1.7,0.8-2.6c0.1-2.8,0-5.6,0-8.6c3.1,0,5.7,0.2,8.2-0.1
		c1.2-0.1,2.3-0.9,3.5-1.4l0,0c1.7-2.7,1.1-5.5,0.3-8.3c0-0.6,0-1.1,0-1.7c0.9-0.4,1.9-1,2.8-1.1c2.2-0.2,4.5,0,6.8-0.1
		c0.7,0,1.4-0.6,2.1-1l0,0c0.4-0.8,1-1.6,1-2.4c0.1-3,0-6,0-8.9c4.2-0.3,7.9-0.5,11.6-0.7c0.2-0.9,0.5-1.7,0.5-2.6
		c0-14.7,0-29.3,0-44c0-0.8-0.3-1.5-0.5-2.3c-0.8-0.3-1.5-0.8-2.3-0.9c-2.3-0.1-4.6-0.1-6.9,0c-1.9,0.1-2.7-0.7-2.6-2.6
		c0.1-2.5,0.2-5,0-7.4c-0.1-0.8-1.2-2.1-2-2.1c-2.4-0.2-4.9,0-7.4,0.1c-0.5,0-1,0-1.5,0c-0.4-0.9-1.2-1.8-1.2-2.8
		c-0.2-2.3,0-4.5-0.1-6.8c0-0.8-0.5-1.5-0.8-2.3l-0.1-0.1c-0.8-0.3-1.5-0.8-2.3-0.9c-2.2-0.1-4.4-0.2-6.5,0c-2.3,0.2-3-0.8-2.9-3
		c0.1-2.3-0.1-4.7-0.2-7c-0.1-0.4-0.1-0.7-0.2-1.1c-1.1-0.5-2.3-1.4-3.4-1.5c-2.9-0.2-5.9-0.1-8.8-0.2c0-0.9-0.1-1.8-0.1-2.8
		c-0.1-3-0.1-6-0.2-9c-0.8-0.1-1.6-0.4-2.4-0.4c-14.8,0-29.5,0-44.3,0c-0.8,0-1.6,0.3-2.4,0.4c0,3.2-0.1,6.4-0.1,9.6
		c-0.1,0.6-0.2,1.1-0.2,1.7c-0.9,0.2-1.9,0.6-2.8,0.6c-2.3,0.1-4.6-0.1-6.8,0.1c-1.3,0.1-2.9,0.1-2.7,2.2c0,0.3,0,0.6,0,0.9
		c-0.1,2.1-0.3,4.1-0.2,6.2c0.1,2.4-0.5,3.7-3.2,3.4c-1.9-0.2-3.8,0-5.8,0c-3.3,0-3.7,0.5-3.8,3.9c0,2.6,0,5.3,0,8.5
		c-3.4,0.1-6.6,0.3-9.7,0.3c-2.1,0-2.9,0.8-2.3,2.9c0,1.4,0.1,2.8,0.1,4.2c0,0.6-0.1,1.2-0.1,1.8c0,0.7,0,1.4,0,2.1
		c-0.9,0.4-1.9,1.1-2.8,1.2c-2.3,0.2-4.6,0-6.9,0.1c-0.8,0-1.5,0.6-2.3,0.9c-0.2,0.6-0.5,1.1-0.5,1.7c0,15.5,0,30.9,0.1,46.4
		c0.3,0.4,0.6,1,1,1c2.9,0.2,5.8,0.5,8.7,0.3c2-0.2,2.4,0.5,2.5,2.2c0,2.6,0.1,5.1,0.2,7.7c0.1,0.5,0.2,1,0.3,1.5
		c0.9,0.4,1.7,0.9,2.6,1c2.3,0.1,4.6-0.1,6.8,0.1c1,0.1,1.9,0.7,2.8,1.1c0,0.6,0,1.1,0,1.7C55.6,149.4,55.6,152.2,55.7,155z"/>
	<path class="st2" d="M130,43.3c2.9,0,5.9-0.1,8.8,0.2c1.2,0.1,2.3,0.9,3.4,1.5c-1.5-0.2-3.1-0.5-4.6-0.5c-7.1-0.1-7.1,0-7.1,7.1
		c0,1.6,0.2,3.3,0.3,4.5c3,0,5.4-0.1,7.7,0c2.5,0.2,3.2-0.9,3.2-3.2c0-2.3,0.4-4.6,0.7-6.9c0.1,2.3,0.3,4.7,0.2,7
		c-0.1,2.2,0.6,3.2,2.9,3c2.2-0.2,4.4-0.1,6.5,0c0.8,0,1.5,0.6,2.3,0.9c-3.6,0-7.3,0-10.9,0c-0.3,3.6-0.6,6.7-0.7,9.8
		c0,0.5,1.2,1.4,1.9,1.4c2.2,0.2,4.4,0,6.6,0.1c2.2,0.1,3.2-0.6,3.1-3c-0.1-2.7,0.1-5.5,0.1-8.3c0.3,0.8,0.8,1.5,0.8,2.3
		c0.1,2.3-0.1,4.6,0.1,6.8c0.1,1,0.8,1.9,1.2,2.8c-2.3,3.5-0.9,7.5-1.1,11.2c0,0.3,1.2,1,1.9,1.1c2.3,0,4.6,0,6.8-0.4
		c0.8-0.1,2.1-1.1,2.2-1.7c0.2-3,0.1-6,0.1-9.4c-1.9,0-3.4,0.1-4.9,0c-1.2-0.1-2.3-0.5-3.5-0.8c2.5-0.1,5-0.3,7.4-0.1
		c0.8,0.1,1.9,1.3,2,2.1c0.3,2.4,0.2,4.9,0,7.4c-0.1,1.9,0.7,2.7,2.6,2.6c2.3-0.1,4.6-0.1,6.9,0c0.8,0,1.5,0.6,2.3,0.9
		c-3.6,0.2-7.3,0.3-11,0.5c0,15.8,0,31.6,0,47.7c1.9,0,3.6-0.1,5.4,0c1.9,0.1,3.7,0.4,5.6,0.6c-3.7,0.2-7.4,0.5-11.6,0.7
		c0,2.9,0.1,5.9,0,8.9c0,0.8-0.7,1.6-1,2.4c0-3.6,0-7.2,0-10.9c-3.4-0.2-6.4-0.5-9.4-0.5c-0.6,0-1.6,1.3-1.7,2
		c-0.2,3-0.1,6.1-0.1,9.4c4,0,7.6,0,11.1,0c-0.7,0.3-1.4,0.9-2.1,1c-2.3,0.1-4.5-0.1-6.8,0.1c-1,0.1-1.9,0.7-2.8,1.1
		c-0.7-0.5-1.3-1.5-2-1.5c-2.7-0.2-5.5-0.2-8.2,0c-0.6,0-1.6,1.2-1.7,1.9c-0.2,2.7-0.2,5.5,0,8.2c0,0.6,1.1,1.7,1.7,1.7
		c3.3,0.1,6.6-0.2,9.9-0.3c-1.2,0.5-2.3,1.3-3.5,1.4c-2.5,0.2-5.1,0.1-8.2,0.1c0,3,0.1,5.8,0,8.6c0,0.9-0.5,1.7-0.8,2.6
		c-0.1-2.8-0.2-5.7-0.2-8.5c0-1.8-0.5-2.7-2.5-2.7c-2.2,0-4.4-0.4-6.6-0.4c-0.7,0-1.9,0.8-2,1.3c-0.2,3.3-0.1,6.7-0.1,10.5
		c4,0,7.6,0,11.1,0c-2.3,0.3-4.5,0.5-6.8,0.8c-1.7,0.3-3.4,0.8-5.1,1.1c-1.6-1.8-3.6-0.6-5.3-0.6c-12.6-0.1-25.3,0-37.9,0
		c-0.9,0-1.8-0.1-2.7,0c-1.1,0.1-2.2,0.5-3.4,0.7c-0.9-0.4-1.9-1.1-2.8-1.2c-2.3-0.2-4.6-0.2-6.9,0c-2.3,0.2-3.4-0.6-3.2-3.1
		c0.2-2.2-0.1-4.4,0.1-6.6c0.2-2.1-0.7-2.7-2.7-2.6c-2,0.1-4,0.2-6,0c-1.1-0.1-2-0.8-3.1-1.2c3.7,0,7.4,0,11,0
		c0.2-3.6,0.5-6.5,0.5-9.4c0-0.6-1.3-1.4-2.1-1.6c-1.6-0.3-3.2-0.2-4.9-0.1c-1.6,0.1-3.2,0.6-4.8,0.9c-0.9-0.4-1.9-1-2.8-1.1
		c-2.3-0.2-4.6,0-6.8-0.1c-0.9-0.1-1.7-0.7-2.6-1c3.6,0,7.3,0,11.2,0c-0.6-4.1,0.9-7.9-0.5-11c-3.8,0-6.9,0-10.2,0
		c0,2.2,0.1,3.9,0,5.6c-0.1,1.3-0.5,2.5-0.8,3.8c-0.1-2.6-0.2-5.1-0.2-7.7c0-1.7-0.5-2.4-2.5-2.2c-2.9,0.2-5.8-0.1-8.7-0.3
		c-0.4,0-0.7-0.7-1-1c3.8,0,7.6,0,11.4,0c0-16.2,0-32,0-48.1c-3.8,0-7.4,0-10.9,0c0.8-0.3,1.5-0.9,2.3-0.9c2.3-0.1,4.6,0.1,6.9-0.1
		c1-0.1,1.9-0.8,2.8-1.2c1.1,0.6,2.2,1.5,3.4,1.7c2,0.3,4,0,6,0.1c1.8,0.1,2.6-1,2.7-2.4c0-3-0.3-5.9-0.4-8.8
		c-0.4-0.2-0.5-0.4-0.7-0.4c-3.3,0-6.6,0-10,0c-0.3,0.4-0.7,1.1-1.1,1.7c-0.6-2,0.2-2.9,2.3-2.9c3.2,0,6.3-0.2,9.7-0.3
		c0-3.2,0-5.8,0-8.5c0-3.4,0.5-3.8,3.8-3.9c1.9,0,3.9-0.2,5.8,0c2.7,0.3,3.3-1,3.2-3.4c-0.1-2.1,0.1-4.1,0.2-6.2
		c0.3,1.5,0.7,2.9,0.8,4.4c0.1,5.1,0,5.1,5,5.2c2.1,0,4.2,0.4,6.3,0.6c-0.1,0.9-0.2,1.7-0.2,2.6c0,3,0,6,0,9
		c-2.9,0.1-5.8,0.2-8.7,0.4c-2.3,0.2-3.4-0.8-3.3-3.2c0.1-2.7,0.3-5.3,0.4-8.3c-3.6,0-7-0.1-10.4,0.1c-0.6,0-1.6,1-1.6,1.6
		C55.9,62,56,65.2,56,68.8c3.1,0,5.8,0,8.5,0c1.8,0,3,0.8,3.1,2.7c0,3.4-0.1,6.8-0.2,10.2c-2.7-0.2-5.4-0.5-8.2-0.6
		c-3.8-0.1-4.1,0.5-4.1,4.3c0.1,14.2,0,28.5,0,42.7c0,2,0.7,3.2,2.8,3.1c2.2,0,4.4-0.2,6.6,0c2.5,0.2,3.2-0.9,3.2-3.2
		c-0.1-13.8,0-27.6-0.1-41.4c0-1.6-0.1-3.3-0.2-4.9c0.3,1,0.7,2,0.7,2.9c0.2,18.6,0.3,37.3,0.5,55.9c0,0.7,0.2,1.4,0.3,2.4
		c3.7,0,7.2,0,10.7,0c0-0.6,0.1-1,0.1-1.5c0-14.6,0-29.2,0-43.8c0-0.9,0.3-1.9,0.5-2.8c0,2.5,0.2,5,0.1,7.4
		c-0.1,16.8-0.3,33.6-0.4,50.5c0,2.9,0.7,3.4,3.6,3.4c14.3-0.1,28.7-0.1,43,0c3.2,0,3.8-0.5,3.7-3.8c0-2.9,0-5.9,0.1-8.8
		c3-0.2,6-0.6,9-0.6c2.2,0,2.9-0.8,2.8-2.9c-0.1-4-0.1-7.9-0.1-11.9c0-14.4,0-28.9,0-43.3c0-4-0.3-8-0.1-12c0.1-2.5-0.3-3.4-2.9-3.4
		c-2.6,0-5.3,0-8.3,0c-0.1,0.7-0.3,1.6-0.3,2.6c-0.2,2.3-0.3,4.5-0.4,6.8c0-6.2,0.1-12.5,0.1-18.7c0-3.2-0.6-3.9-3.8-3.8
		c-14.1,0-28.3,0-42.4,0.1c-1.4,0-2.8,0.4-4.2,0.6c0-3.3,0-6.6-0.2-9.9c0-0.8-0.9-2.2-1.3-2.2c-3.5,0.2-7,0.7-10.6,1.1
		c-0.2-2.1,1.4-2.1,2.7-2.2c2.3-0.1,4.6,0,6.8-0.1c1,0,1.9-0.4,2.8-0.6c1.1,0.2,2.1,0.6,3.2,0.6C98.9,43.4,114.5,43.4,130,43.3z
		 M142.7,106.2c0,7.4,0,14.9,0,22.3c0,1.5,0.1,2.8,2.1,2.8c2.7-0.1,5.3,0,8,0c1.8,0,2.6-1.1,2.6-2.9c0-6.6-0.1-13.2-0.1-19.8
		c0-8,0-16,0-24c0-2.5-0.9-3.8-3.6-3.6c-1.9,0.2-3.9,0.1-5.8,0c-2.4-0.2-3.3,0.8-3.2,3.2C142.7,91.5,142.7,98.8,142.7,106.2z
		 M79.6,167.6c0-3.9,0.9-7.8-0.4-11c-3.8,0-7.1,0-10.8,0c0,3.4-0.1,6.4,0.1,9.4c0,0.6,1.1,1.5,1.8,1.6
		C73.2,167.7,76.1,167.6,79.6,167.6z"/>
	<path class="st0" d="M130,43.3c-15.5,0-31,0.1-46.6,0c-1.1,0-2.1-0.4-3.2-0.6c0.1-0.6,0.2-1.1,0.2-1.7c0-3.2,0.1-6.4,0.1-9.6
		c0.8-0.1,1.6-0.4,2.4-0.4c14.8,0,29.5,0,44.3,0c0.8,0,1.6,0.3,2.4,0.4c0.1,3,0.1,6,0.2,9C129.9,41.5,129.9,42.4,130,43.3z"/>
	<path class="st0" d="M80.5,169.9c1.1-0.3,2.2-0.6,3.4-0.7c0.9-0.1,1.8,0,2.7,0c12.6,0,25.3,0,37.9,0c1.8,0,3.7-1.3,5.3,0.6
		c0,0.3,0,0.7,0,1c-0.3,0.8-0.8,1.6-0.8,2.4c0.1,2.4,0.4,4.9,0.7,7.3c-0.8,0.1-1.6,0.4-2.4,0.4c-14.8,0-29.5,0-44.3,0
		c-0.8,0-1.6-0.2-2.4-0.4c0.2-1.2,0.6-2.5,0.6-3.7c-0.1-1.8-0.5-3.6-0.7-5.4C80.5,170.9,80.5,170.4,80.5,169.9z"/>
	<path class="st0" d="M31.1,81.9c3.6,0,7.1,0,10.9,0c0,16.1,0,31.9,0,48.1c-3.8,0-7.6,0-11.4,0c0-15.5-0.1-30.9-0.1-46.4
		C30.6,83.1,30.9,82.5,31.1,81.9z"/>
	<path class="st0" d="M179.2,130.7c-1.9-0.2-3.7-0.5-5.6-0.6c-1.7-0.1-3.4,0-5.4,0c0-16.1,0-31.9,0-47.7c3.7-0.2,7.4-0.3,11-0.5
		c0.2,0.8,0.5,1.5,0.5,2.3c0,14.7,0,29.3,0,44C179.7,129,179.4,129.9,179.2,130.7z"/>
	<path class="st0" d="M43,71.6c0.4-0.6,0.8-1.3,1.1-1.7c3.4,0,6.7,0,10,0c0.2,0,0.3,0.2,0.7,0.4c0.2,2.8,0.4,5.8,0.4,8.8
		c0,1.4-0.8,2.5-2.7,2.4c-2-0.1-4.1,0.2-6-0.1c-1.2-0.2-2.3-1.1-3.4-1.7c0-0.7,0-1.4,0-2.1c0-0.6,0.1-1.2,0.1-1.8
		C43.1,74.4,43,73,43,71.6z"/>
	<path class="st0" d="M154.4,155c-3.3,0.1-6.6,0.3-9.9,0.3c-0.6,0-1.7-1.1-1.7-1.7c-0.2-2.7-0.2-5.5,0-8.2c0.1-0.7,1-1.9,1.7-1.9
		c2.7-0.2,5.5-0.2,8.2,0c0.7,0,1.4,1,2,1.5c0,0.6,0,1.1,0,1.7C154.6,149.4,154.5,152.2,154.4,155C154.4,155,154.4,155,154.4,155z"/>
	<path class="st0" d="M142.4,46.1c-0.2,2.3-0.7,4.6-0.7,6.9c0,2.3-0.7,3.4-3.2,3.2c-2.4-0.2-4.7,0-7.7,0c-0.1-1.3-0.3-2.9-0.3-4.5
		c0-7.1,0-7.1,7.1-7.1c1.5,0,3.1,0.3,4.6,0.5C142.3,45.3,142.3,45.7,142.4,46.1z"/>
	<path class="st0" d="M79.9,56.7c-2.1-0.2-4.2-0.6-6.3-0.6c-5-0.1-4.9-0.1-5-5.2c0-1.5-0.5-2.9-0.8-4.4c0-0.3,0-0.6,0-0.9
		c3.5-0.4,7-0.9,10.6-1.1c0.4,0,1.3,1.4,1.3,2.2C79.9,50.1,79.9,53.4,79.9,56.7z"/>
	<path class="st0" d="M158.1,69c1.2,0.3,2.3,0.7,3.5,0.8c1.5,0.1,3.1,0,4.9,0c0,3.4,0.1,6.4-0.1,9.4c-0.1,0.7-1.3,1.6-2.2,1.7
		c-2.2,0.3-4.6,0.4-6.8,0.4c-0.7,0-1.9-0.7-1.9-1.1c0.2-3.8-1.2-7.7,1.1-11.2C157.1,69,157.6,69,158.1,69z"/>
	<path class="st0" d="M55.6,144.9c1.6-0.3,3.2-0.7,4.8-0.9c1.6-0.1,3.3-0.2,4.9,0.1c0.8,0.1,2.1,1,2.1,1.6c0,2.9-0.3,5.8-0.5,9.4
		c-3.6,0-7.3,0-11,0c0,0-0.2-0.1-0.2-0.1c0-2.8-0.1-5.6-0.1-8.4C55.6,146.1,55.6,145.5,55.6,144.9z"/>
	<path class="st0" d="M43,141.2c0.3-1.3,0.7-2.5,0.8-3.8c0.1-1.7,0-3.5,0-5.6c3.3,0,6.5,0,10.2,0c1.4,3.1-0.1,6.9,0.5,11
		c-4,0-7.6,0-11.2,0C43.2,142.2,43.1,141.7,43,141.2z"/>
	<path class="st2" d="M129.7,180.5c-0.2-2.4-0.6-4.9-0.7-7.3c0-0.8,0.5-1.6,0.8-2.4C129.8,174,129.7,177.3,129.7,180.5z"/>
	<path class="st2" d="M80.5,171.4c0.3,1.8,0.6,3.6,0.7,5.4c0,1.2-0.4,2.5-0.6,3.7C80.6,177.4,80.5,174.4,80.5,171.4z"/>
	<path class="st2" d="M129.9,40.6c-0.1-3-0.1-6-0.2-9C129.7,34.6,129.8,37.6,129.9,40.6z"/>
	<path class="st2" d="M80.6,31.6c0,3.2-0.1,6.4-0.1,9.6C80.5,37.9,80.6,34.7,80.6,31.6z"/>
	<path class="st2" d="M55.6,146.6c0,2.8,0.1,5.6,0.1,8.4C55.6,152.2,55.6,149.4,55.6,146.6z"/>
	<path class="st2" d="M154.4,155c0.1-2.8,0.2-5.6,0.3-8.3C155.5,149.4,156.1,152.2,154.4,155z"/>
	<path class="st2" d="M43.1,75.8c0,0.6-0.1,1.2-0.1,1.8C43,77,43.1,76.4,43.1,75.8z"/>
	<path class="st3" d="M79.7,68.3c0-3,0-6,0-9c0-0.9,0.1-1.7,0.2-2.6c1.4-0.2,2.8-0.6,4.2-0.6c14.1-0.1,28.3,0,42.4-0.1
		c3.1,0,3.8,0.7,3.8,3.8c-0.1,6.2-0.1,12.5-0.1,18.7c0,0.4,0,0.8,0,1.2c-0.4,0.5-0.9,1-1.3,1.4c-3,0-5.9-0.2-8.9,0
		c-1.4,0.1-2.9,0.7-2.7,3c0.3,3,0.1,5.9,0.1,9.2c-8.3,0-16.5,0-24.7,0c0,3.2,0.1,6.3,0,9.4c-0.1,2.4,0.7,3.5,3.3,3.4
		c6.1-0.2,12.1,0,18.2,0c3.3,0,3.6-0.4,3.6-3.6c0-2.9,0-5.8,0-9.2c4.4,0.3,8.3,0.6,12.1,0.9c0,0.7,0.1,1.5,0.1,2.2
		c0,14.4-0.1,28.9,0,43.3c0,1.2,0.3,2.3,0.4,3.5l0,0.1c0,2.9-0.1,5.9,0,8.8c0.1,3.3-0.5,3.8-3.7,3.8c-14.3,0-28.7,0-43,0
		c-2.9,0-3.6-0.5-3.6-3.4c0.2-16.8,0.3-33.6,0.4-50.5c0-2.5-0.1-5-0.1-7.4c0.9-0.4,1.7-0.9,2.7-1c2.2-0.1,4.4-0.2,6.6,0
		c2.7,0.3,3.3-1,3.2-3.4c-0.1-2.1-0.1-4.2,0-6.3c0.1-2-0.7-2.9-2.7-2.9c-2.8,0.1-5.7,0.1-8.5,0.1c-0.4-1-1.1-2-1.2-3.1
		c-0.3-2.8-0.3-5.6-0.5-8.3C79.8,69.3,79.8,68.8,79.7,68.3z M90.9,95c-2.9,0-5.8,0-9.1,0c0,19.9,0,39.7,0,59.5c15.8,0,31.2,0,47.1,0
		c-0.2-1.8-0.5-3.4-0.5-5.1c0.1-4.3,0.5-8.6,0.5-12.9c-0.1-10.2-0.4-20.4-0.5-30.6c0-3,0.4-6,0.4-9c0-0.7-1.1-2-1.7-2.1
		c-2.6-0.1-5.2,0.2-8,0.4c0,3.7-0.4,7.6,0.3,11.4c0.5,0,0.9,0,1.4,0c0.3-3,0.5-6,0.8-8.9c5.3-1,5.3-1,5.3,4.2c0,15.7,0,31.5,0,47.2
		c0,1.1,0,2.1,0,3.4c-14.5,0-28.6,0-42.8,0c0-18.4,0-36.6,0-54.8c1.9,0,3.5,0,5,0c1,3.1-0.7,6.3,1.1,9c0.3,0,0.6,0,0.9,0
		C90.9,102.8,90.9,98.9,90.9,95z M81.9,57.7c0,0-0.3,0.2-0.3,0.4c-0.1,6.8-0.1,13.5,0,20.3c0,0.6,1.1,1.8,1.7,1.8
		c3.2,0,6.4-0.3,9.6-0.5c0-0.3,0-0.7,0.1-1c-2.6-2.3-6.2-0.2-9.3-1.5c0-4.7,0.1-9.4-0.1-14c-0.1-2.6,0.9-3.3,3.4-3.2
		c12.2,0.1,24.5,0,36.7,0.1c1,0,1.9,0.1,2.8,0.2c0,6,0,11.7,0,17.2c-3.4,0.4-6.5,0.7-9.6,1.1c0,0.4,0,0.8,0,1.2
		c2.9,0.2,5.8,0.3,8.8,0.5c2.6,0.1,3.4-1.1,3.3-3.7c-0.2-5.1-0.1-10.3-0.1-15.4c0-3.7,0-3.7-3.6-3.2c-0.8,0.1-1.7,0.1-2.5,0.1
		c-11.9,0-23.7,0-35.6,0C85.6,57.7,84,57.7,81.9,57.7z M94.3,93c6.7,0,13.2,0,19.7-0.1c0.7,0,2-0.8,2-1.3c0.2-3.5,0.1-7,0.1-10.5
		c-0.3,0-0.6-0.1-0.9-0.1c-0.2,0.8-0.6,1.5-0.6,2.3c-0.1,1.4-0.1,2.8,0,4.1c0.1,1.7-0.3,2.8-2.4,2.9c-3.3,0.1-6.6,0.4-9.9,0.5
		c-6.5,0.1-6.5,0-6.6-6.5c0-1.1-0.3-2.2-0.5-3.3c-0.3,0.1-0.6,0.1-0.9,0.2C94.3,84.8,94.3,88.4,94.3,93z M92.4,108.9
		c2.9,1.3,24.3,1,26.5-1c-2.5-0.2-4.4-0.4-6.3-0.4c-4.9,0-9.8,0-14.7,0C96,107.5,93.9,106.7,92.4,108.9z"/>
	<path class="st0" d="M130.1,79.8c0-0.4,0-0.8,0-1.2c0.1-2.3,0.2-4.5,0.4-6.8c0.1-1,0.2-1.9,0.3-2.6c3,0,5.7,0,8.3,0
		c2.5,0,3,1,2.9,3.4c-0.2,4,0.1,8,0.1,12c0,14.4,0,28.9,0,43.3c0,4,0,7.9,0.1,11.9c0.1,2.1-0.6,2.9-2.8,2.9c-3,0-6,0.4-9,0.6
		c0,0,0-0.1,0-0.1c0-0.4,0.1-0.7,0.1-1.1c0-15.3,0-30.7,0-46c0-0.6-0.4-1.3-0.7-1.9c-3.9-0.3-7.8-0.6-12.1-0.9c0,3.4,0,6.3,0,9.2
		c0,3.3-0.3,3.6-3.6,3.6c-6.1,0-12.1-0.1-18.2,0c-2.6,0.1-3.4-1-3.3-3.4c0.1-3.1,0-6.2,0-9.4c8.2,0,16.4,0,24.7,0
		c0-3.2,0.2-6.2-0.1-9.2c-0.2-2.2,1.3-2.9,2.7-3c2.9-0.3,5.9-0.1,8.9,0C129.2,80.8,129.7,80.3,130.1,79.8z"/>
	<path class="st0" d="M79.7,68.3c0.1,0.5,0.1,1.1,0.2,1.6c0,3-0.1,6.1-0.1,9.1c0,1.2,0,2.5,1.8,2.4c2.8,0,5.7,0,8.5-0.1
		c2,0,2.8,0.9,2.7,2.9c-0.1,2.1-0.1,4.2,0,6.3c0.1,2.3-0.5,3.6-3.2,3.4c-2.2-0.2-4.4-0.1-6.6,0c-0.9,0.1-1.8,0.7-2.7,1
		c-0.2,1-0.5,1.9-0.5,2.8c0,14.6,0,29.2,0,43.8c0,0.5-0.1,0.9-0.1,1.5c-3.6,0-7.1,0-10.7,0c-0.1-1-0.3-1.7-0.3-2.4
		c-0.2-18.6-0.3-37.3-0.5-55.9c0-1-0.5-2-0.7-2.9c0,0,0,0,0,0c0.1-3.4,0.2-6.8,0.2-10.2c0-1.9-1.2-2.7-3.1-2.7c-2.7,0-5.5,0-8.5,0
		c0-3.5-0.1-6.7,0.1-9.9c0-0.6,1-1.6,1.6-1.6c3.4-0.2,6.7-0.1,10.4-0.1c-0.2,3-0.3,5.7-0.4,8.3c-0.1,2.4,1.1,3.3,3.3,3.2
		C73.9,68.4,76.8,68.4,79.7,68.3z"/>
	<path class="st3" d="M67.4,81.7c0.1,1.6,0.2,3.3,0.2,4.9c0,13.8,0,27.6,0.1,41.4c0,2.4-0.7,3.4-3.2,3.2c-2.2-0.1-4.4,0-6.6,0
		c-2.2,0-2.8-1.1-2.8-3.1c0-14.2,0.1-28.5,0-42.7c0-3.8,0.3-4.4,4.1-4.3C62,81.1,64.7,81.4,67.4,81.7C67.4,81.6,67.4,81.7,67.4,81.7
		z M66,129.5c0-3,0-5.5,0-8.1c0-10.9,0-21.9,0-32.8c0-7,0.9-5.9-6.2-6.2c-2.6-0.1-3.3,0.9-3.2,3.4c0.1,13.7,0,27.4,0.1,41.1
		c0,0.9,0.2,1.9,0.3,2.6C60,129.5,62.8,129.5,66,129.5z"/>
	<path class="st3" d="M142.7,106.2c0-7.3,0.1-14.7,0-22c0-2.4,0.9-3.3,3.2-3.2c1.9,0.1,3.9,0.2,5.8,0c2.7-0.2,3.6,1,3.6,3.6
		c-0.1,8,0,16,0,24c0,6.6,0.1,13.2,0.1,19.8c0,1.7-0.7,2.8-2.6,2.9c-2.7,0-5.3,0-8,0c-2,0-2.1-1.3-2.1-2.8
		C142.7,121.1,142.7,113.6,142.7,106.2z M153.6,82.8c-3.4,0-6.5,0-9.6,0c0,15.8,0,31.4,0,47c3.3,0,6.4,0,9.6,0
		C153.6,114,153.6,98.5,153.6,82.8z"/>
	<path class="st0" d="M141.7,167.8c-3.6,0-7.1,0-11.1,0c0-3.8-0.1-7.1,0.1-10.5c0-0.5,1.3-1.3,2-1.3c2.2,0,4.4,0.4,6.6,0.4
		c2,0,2.5,0.9,2.5,2.7c0,2.8,0.1,5.7,0.2,8.5C141.8,167.7,141.7,167.8,141.7,167.8z"/>
	<path class="st0" d="M154.4,57.1c0,2.8-0.2,5.5-0.1,8.3c0.1,2.3-0.8,3.1-3.1,3c-2.2-0.1-4.4,0.1-6.6-0.1c-0.7-0.1-1.9-0.9-1.9-1.4
		c0.1-3.1,0.4-6.2,0.7-9.8C147.1,57,150.8,57,154.4,57.1C154.4,57,154.4,57.1,154.4,57.1z"/>
	<path class="st0" d="M166.5,142.8c-3.6,0-7.1,0-11.1,0c0-3.3-0.1-6.3,0.1-9.4c0-0.7,1.1-2,1.7-2c3,0,6,0.3,9.4,0.5
		C166.5,135.5,166.5,139.2,166.5,142.8C166.5,142.8,166.5,142.8,166.5,142.8z"/>
	<path class="st0" d="M79.6,167.6c-3.5,0-6.4,0.1-9.3-0.1c-0.7,0-1.8-1-1.8-1.6c-0.2-3-0.1-6-0.1-9.4c3.7,0,7,0,10.8,0
		C80.5,159.8,79.6,163.7,79.6,167.6z"/>
	<path class="st4" d="M90.9,95c0,3.9,0,7.8,0,11.6c-0.3,0-0.6,0-0.9,0c-1.8-2.7-0.1-5.9-1.1-9c-1.5,0-3.1,0-5,0
		c0,18.2,0,36.4,0,54.8c14.2,0,28.3,0,42.8,0c0-1.2,0-2.3,0-3.4c0-15.7,0-31.5,0-47.2c0-5.3,0-5.3-5.3-4.2c-0.3,2.9-0.5,5.9-0.8,8.9
		c-0.5,0-0.9,0-1.4,0c-0.7-3.8-0.2-7.7-0.3-11.4c2.9-0.2,5.5-0.5,8-0.4c0.6,0,1.7,1.3,1.7,2.1c0,3-0.4,6-0.4,9
		c0.1,10.2,0.4,20.4,0.5,30.6c0,4.3-0.4,8.6-0.5,12.9c0,1.7,0.3,3.3,0.5,5.1c-15.9,0-31.3,0-47.1,0c0-19.8,0-39.6,0-59.5
		C85,95,88,95,90.9,95z"/>
	<path class="st4" d="M81.9,57.7c2.1,0,3.7,0,5.4,0c11.9,0,23.7,0,35.6,0c0.8,0,1.7,0,2.5-0.1c3.6-0.5,3.6-0.5,3.6,3.2
		c0,5.1-0.1,10.3,0.1,15.4c0.1,2.6-0.8,3.8-3.3,3.7c-2.9-0.1-5.8-0.3-8.8-0.5c0-0.4,0-0.8,0-1.2c3.1-0.4,6.2-0.7,9.6-1.1
		c0-5.5,0-11.1,0-17.2c-0.9-0.1-1.8-0.2-2.8-0.2c-12.2,0-24.5,0-36.7-0.1c-2.5,0-3.5,0.6-3.4,3.2c0.2,4.7,0.1,9.3,0.1,14
		c3.1,1.3,6.7-0.8,9.3,1.5c0,0.3,0,0.7-0.1,1c-3.2,0.2-6.4,0.5-9.6,0.5c-0.6,0-1.7-1.1-1.7-1.8c-0.1-6.8,0-13.5,0-20.3
		C81.6,57.9,81.9,57.7,81.9,57.7z"/>
	<path class="st4" d="M94.3,93c0-4.6,0-8.2,0-11.8c0.3-0.1,0.6-0.1,0.9-0.2c0.2,1.1,0.5,2.2,0.5,3.3c0.1,6.5,0.1,6.6,6.6,6.5
		c3.3,0,6.6-0.4,9.9-0.5c2.1,0,2.4-1.1,2.4-2.9c-0.1-1.4-0.1-2.8,0-4.1c0.1-0.8,0.4-1.5,0.6-2.3c0.3,0,0.6,0.1,0.9,0.1
		c0,3.5,0.1,7-0.1,10.5c0,0.5-1.3,1.3-2,1.3C107.6,93.1,101.1,93,94.3,93z"/>
	<path class="st4" d="M92.4,108.9c1.5-2.2,3.6-1.3,5.4-1.4c4.9,0,9.8-0.1,14.7,0c1.9,0,3.8,0.2,6.3,0.4
		C116.7,109.8,95.3,110.2,92.4,108.9z"/>
	<path class="st2" d="M129.9,94.4c0.2,0.6,0.7,1.3,0.7,1.9c0,15.3,0,30.7,0,46c0,0.4-0.1,0.7-0.1,1.1c-0.1-1.2-0.4-2.3-0.4-3.5
		c0-14.4,0-28.9,0-43.3C130,95.8,129.9,95.1,129.9,94.4z"/>
	<path class="st2" d="M81.6,81.3c-1.8,0.2-1.8-1.1-1.8-2.4c0-3,0.1-6.1,0.1-9.1c0.1,2.8,0.2,5.6,0.5,8.3
		C80.5,79.2,81.2,80.2,81.6,81.3z"/>
	<path class="st2" d="M130.1,79.8c-0.4,0.5-0.9,1-1.3,1.4C129.2,80.8,129.7,80.3,130.1,79.8z"/>
	<path class="st4" d="M66,129.5c-3.2,0-5.9,0-9,0c-0.1-0.7-0.3-1.6-0.3-2.6c0-13.7,0-27.4-0.1-41.1c0-2.5,0.6-3.5,3.2-3.4
		c7.1,0.2,6.2-0.8,6.2,6.2c0,10.9,0,21.9,0,32.8C66,124,66,126.5,66,129.5z M58.7,84.6c0,14.3,0,28.6,0,42.8
		c5.3,1.2,6.1,0.5,6.1-4.3c0-11.2,0-22.5,0-33.7C64.8,84.3,63.7,83.4,58.7,84.6z"/>
	<path class="st4" d="M153.6,82.8c0,15.7,0,31.2,0,47c-3.2,0-6.3,0-9.6,0c0-15.6,0-31.2,0-47C147.1,82.8,150.2,82.8,153.6,82.8z
		 M146,127.8c1.3,0,2.3-0.1,3.1,0c2.5,0.3,3-1.1,2.9-3.2c-0.2-4.5-0.5-8.9-0.5-13.4c-0.1-8.1,0-16.2-0.1-24.2c0-0.9-0.6-2.4-1.2-2.6
		c-2.5-0.7-4.2,0.9-4.2,3.6c0,11.3,0,22.6,0,33.9C146,123.7,146,125.5,146,127.8z"/>
	<path class="st3" d="M58.7,84.6c5-1.2,6.1-0.3,6.1,4.9c0,11.2,0,22.5,0,33.7c0,4.8-0.8,5.4-6.1,4.3C58.7,113.2,58.7,98.9,58.7,84.6
		z"/>
	<path class="st3" d="M146,127.8c0-2.3,0-4.1,0-5.9c0-11.3,0-22.6,0-33.9c0-2.7,1.7-4.3,4.2-3.6c0.6,0.2,1.2,1.7,1.2,2.6
		c0.1,8.1,0,16.2,0.1,24.2c0,4.5,0.3,9,0.5,13.4c0.1,2.1-0.5,3.4-2.9,3.2C148.3,127.7,147.4,127.8,146,127.8z"/>
</g>
</svg>
