<?xml version="1.0" encoding="utf-8"?>
<!-- Generator: Adobe Illustrator 24.0.1, SVG Export Plug-In . SVG Version: 6.00 Build 0)  -->
<svg version="1.1" id="Layer_1" xmlns="http://www.w3.org/2000/svg" xmlns:xlink="http://www.w3.org/1999/xlink" x="0px" y="0px"
	 viewBox="0 0 212 212" style="enable-background:new 0 0 212 212;" xml:space="preserve">
<style type="text/css">
	.st0{fill:#FFFFFF;}
</style>
<image style="overflow:visible;" width="346" height="346" xlink:href="270F1102.jpg"  transform="matrix(0.9999 0 0 0.9999 -8086 -8086)">
</image>
<g>
	<path d="M211.9,102.3c0,2.4,0,4.9,0,7.3c-0.2,1.1-0.4,2.2-0.6,3.2c-0.8,5.6-1.1,11.4-2.6,16.9c-11.4,43-38.9,69.7-82.3,79.8
		c-5.5,1.3-11.2,1.6-16.9,2.4c-2.4,0-4.9,0-7.3,0c-5.8-0.8-11.7-1.4-17.5-2.5c-40.6-7.7-74.6-41.7-82.3-82.4
		c-1.1-5.8-1.7-11.6-2.5-17.4c0-2.4,0-4.9,0-7.3c0.2-1.1,0.4-2.2,0.6-3.2c0.8-5.6,1.1-11.4,2.6-16.9C14.5,39.1,42,12.5,85.4,2.4
		c5.5-1.3,11.2-1.6,16.9-2.4c2.4,0,4.9,0,7.3,0c5.8,0.8,11.7,1.4,17.5,2.5c40.6,7.7,74.6,41.7,82.3,82.4
		C210.5,90.6,211.1,96.5,211.9,102.3z M106.1,5.5C51.5,4.6,6,50.3,5.3,104.6c-0.7,55.7,45.1,101.5,99.6,102
		c55.4,0.6,101.2-45,101.7-99.6C207.1,51.4,161,4.8,106.1,5.5z"/>
	<path class="st0" d="M106.1,5.5C161,4.8,207.1,51.4,206.6,107c-0.6,54.5-46.3,100.1-101.7,99.6c-54.5-0.6-100.3-46.4-99.6-102
		C6,50.3,51.5,4.6,106.1,5.5z M37,105.8c0,8.7-0.1,17.4,0.1,26c0.1,1.9,0.9,4.4,2.3,5.6c3.7,3.3,7.9,6,12,9
		c16.8,12.3,33.7,24.5,50.5,36.9c3.5,2.6,5.2,2.7,8.7,0.1c3.2-2.3,6.4-4.7,9.6-7c17.4-12.7,34.8-25.4,52.3-38.2
		c2.2-1.6,3.1-3.8,3.1-6.6c-0.1-16.6-0.1-33.3,0-49.9c0-3.7-1.3-6.1-4.2-8.2c-5.8-4-11.4-8.2-17.1-12.4
		c-14.7-10.7-29.4-21.5-44.1-32.3c-2.7-2-5.2-1.9-7.9,0c-0.8,0.6-1.7,1.2-2.5,1.8c-19.2,14-38.3,28-57.5,41.9
		c-3.7,2.7-5.9,5.6-5.6,10.6C37.4,90.6,37,98.2,37,105.8z"/>
	<path d="M37,105.8c0-7.6,0.3-15.1-0.1-22.6c-0.3-5,1.8-7.9,5.6-10.6C61.7,58.6,80.9,44.6,100,30.6c0.8-0.6,1.6-1.2,2.5-1.8
		c2.6-1.9,5.2-1.9,7.9,0c14.7,10.8,29.4,21.5,44.1,32.3c5.7,4.1,11.3,8.3,17.1,12.4c2.9,2,4.2,4.5,4.2,8.2
		c-0.2,16.6-0.1,33.3,0,49.9c0,2.8-0.9,4.9-3.1,6.6c-17.4,12.7-34.8,25.4-52.3,38.2c-3.2,2.3-6.4,4.7-9.6,7
		c-3.5,2.6-5.2,2.5-8.7-0.1c-16.8-12.3-33.7-24.6-50.5-36.9c-4-2.9-8.2-5.7-12-9c-1.4-1.2-2.3-3.7-2.3-5.6
		C36.9,123.1,37,114.4,37,105.8z M85.9,104.3c0,7.2,0,13.2,0,19.1c2.4,0.7,3.3,0,3.2-2.3c-0.1-2.9,0-5.8,0-9.5
		c2.8,4.1,5.1,7.6,7.5,11c0.4-0.2,0.9-0.5,1.3-0.7c-0.6-1.9-1-4-2-5.8c-1.7-3.1-3.6-6.1-5.7-9C89.3,106.1,87.7,105.5,85.9,104.3z
		 M117.1,62c0.2-0.1,0.5-0.2,0.7-0.2c2.3,3.4,4.5,6.8,6.8,10.1c0.4-0.2,0.8-0.4,1.2-0.6c-0.4-1.7-0.5-3.6-1.3-5
		c-1.9-3.4-4.1-6.8-6.4-10c-0.8-1.1-2.3-1.6-4-2.7c0,7.1,0,13.2,0,19.4c1.1-0.1,2-0.1,3.1-0.2C117.1,69,117.1,65.5,117.1,62z
		 M88.2,137.5c-1.3-2-2.7-2.3-4.6-0.9c-2.4,1.8-5.2,3.2-7.6,5.1c-1.1,0.9-1.7,2.4-2.9,4.3c7.1,0,13.1,0,19.3,0
		c-0.1-1.1-0.1-2.1-0.2-3.3c-3.9,0-7.4,0-11.9,0C83.5,140.6,85.8,139.1,88.2,137.5z M127.6,91.8c-6.1-0.9-6.7-0.4-6.7,4.4
		c0,1.9,0,3.9,0,5.8c0,2.1,1,3.2,3.1,3.2c3.4,0,6.7,0.1,10.1-0.1c0.8,0,1.5-1,2.2-1.6c-0.7-0.6-1.4-1.6-2.2-1.6
		c-3.2-0.2-6.5-0.1-9.6-0.1C123.3,97.9,124.6,94.8,127.6,91.8z M104.1,129.6c0.3,0.2,0.6,0.5,0.9,0.7c5.9,0,11.9,0,17.9,0
		c0-1.1,0-1.9,0-3.2c-3.7,0-7.3,0-10.8,0c0-0.2-0.1-0.4-0.1-0.6c2.2-1.5,4.5-3,6.7-4.5c-2.3-2.1-2.3-2.1-4.5-0.8
		c-2.6,1.6-5.3,3.1-7.7,4.9C105.5,127,104.9,128.5,104.1,129.6z M166.5,126.6c-3.7,0-7.3,0-11.7,0c3.1-2,5.3-3.5,7.9-5.2
		c-1.1-0.8-2-1.4-2.8-1.9c-3.4,2.2-6.5,4.3-9.8,6.2c-1.8,1.1-2.4,2.3-1.5,4.2c6,0,11.9,0,18,0C166.6,128.8,166.6,127.9,166.5,126.6z
		 M104,79.1c-2.2,0-3.8,0.1-5.4,0c-0.7-0.1-1.7-0.6-1.8-1c-0.4-2.5-1.9-1.4-3.1-1.3c-0.8,4.8-0.1,5.8,4.4,5.8c1.9,0,3.9,0,5.8,0
		c2.3,0,3.4-1.1,3.3-3.4c0-3.4-0.1-6.7,0-10.1c0.1-2.4-1.2-2.4-3.2-1.8C104,71.1,104,74.9,104,79.1z M161.6,105c1.4,0,3.7,0,6.2,0
		c0,2.4,0,4.5,0,6.6c0,2.2,0,4.4,0,6.5c2.4,0.7,3.2,0,3.1-2.1c-0.1-3.7-0.1-7.3,0-11c0.1-2.7-1.2-3.7-3.7-3.6c-1.8,0.1-3.7,0-5.5,0
		c-4.5,0-5.3,1-4,6.4C158.9,106.8,160,106.1,161.6,105z M130.4,148.4c-1.2-4-2.3-8-3.7-11.8c-0.3-0.7-2.2-1-3.3-1
		c-1,0-2.7,0.5-3,1.1c-1.4,3.9-2.4,7.9-3.6,11.8c2.4,0.8,3.4,0.1,3.8-2c0.4-2.1,1.1-4.1,1.7-6.2c0.2-0.6,0.8-1,1.2-1.5
		c0.5,0.5,1.2,1,1.4,1.6c0.7,2,1.3,4.1,1.7,6.2C127.1,148.7,128.1,149.4,130.4,148.4z M135,85.6c2.2,0.7,3.3,0.4,3.7-1.7
		c0.3-1.9,0.9-3.8,1.5-5.6c0.3-0.9,1.1-1.7,1.6-2.5c0.5,0.8,1.1,1.6,1.4,2.4c0.7,1.9,1.3,3.9,1.7,5.9c0.5,2.2,1.6,2.2,3.6,1.3
		c-1.1-3.9-2.1-7.7-3.5-11.4c-0.3-0.8-1.9-1.3-3-1.5c-1.4-0.2-3.1-0.7-3.7,1.5C137.3,77.8,136.2,81.6,135,85.6z M45.8,127.8
		c-1.7-4,0.2-7.1,2.5-10.1c-5.4-1-6.2-0.4-6.2,4c0,2.1,0,4.3,0,6.4c0,2,1,3,3,3c3.3,0,6.5,0.1,9.8-0.1c0.9-0.1,1.7-1.1,2.5-1.6
		c-0.9-0.5-1.7-1.4-2.6-1.5C51.7,127.6,48.6,127.8,45.8,127.8z M65.6,110.5c2.4,0.8,3.4,0.2,3.8-1.8c0.4-2.1,1-4.1,1.7-6.2
		c0.2-0.7,0.8-1.2,1.2-1.8c0.5,0.5,1.2,1,1.4,1.6c0.7,2,1.3,4.1,1.7,6.2c0.4,2.2,1.5,2.9,3.8,1.9c-1.1-3.9-2.1-7.7-3.4-11.4
		c-0.3-0.7-1.8-1.4-2.8-1.4c-1.3,0-3.4,0.4-3.7,1.2C67.8,102.5,66.8,106.5,65.6,110.5z M107.1,153.1c0,2.2,0,4.2,0,6.1
		c0,1.8-4.4,1.5-2,4.4c4.5,0.6,5.1,0,5.1-4.3c0-2.1,0.3-4.3-0.1-6.4c-0.2-1.1-1.5-2.7-2.4-2.8c-4.1-0.3-8.3-0.1-12.6-0.1
		c0,1.1,0,1.9,0,3C99.1,153.1,102.8,153.1,107.1,153.1z M99,99.9c4.1,0,7.9,0,11.9,0c0,2.5,0,4.7,0,6.9c-0.2-0.1-0.5-0.3-0.7-0.4
		c-0.7,1-1.3,2.1-2.2,3.4c5.5,1,6.1,0.5,6.1-4c0-2.1,0-4.3,0-6.4c0-1.9-0.9-2.8-2.8-2.8c-3.9,0-7.7,0.1-11.6,0.1
		c-0.2,0-0.3,0.2-0.6,0.4C99,97.8,99,98.6,99,99.9z M42.2,89.5c3.2,0,6.1,0,9.4,0c-1.3,1.1-2.1,1.8-3,2.5c2.2,2,2.3,2.1,4.1,0.7
		c2.2-1.7,6.5-2,5.2-6.6c-5.3,0-10.5,0-15.8,0C42.2,87.2,42.2,88.1,42.2,89.5z M109.7,49.4c2.3,0.8,3.4,0.5,3.3-1.8
		c-0.1-2.2,0-4.5,0-6.7c0-2-1-3-3-3c-2,0-4.1,0-6.1,0c-4.5,0-5.2,0.9-4.1,6.4c1.3-1.1,2.3-1.9,3.8-3.1c1.4,0,3.6,0,6.1,0
		C109.7,44,109.7,46.6,109.7,49.4z M136.5,130.9c2.3,0.7,3.3,0.3,3.2-2c-0.1-2-0.1-4.1,0-6.1c0.1-2.7-1.2-3.7-3.7-3.5
		c-1.7,0.1-3.5,0-5.2,0c-4.6,0-5.5,1.1-4.1,6.5c1.3-1.1,2.3-2,3.6-3.1c1.6,0,3.8,0,6.2,0C136.5,125.5,136.5,128.1,136.5,130.9z
		 M133.3,154.4c-2.5-2.1-2.5-2.1-4.6-0.8c-2.7,1.7-5.3,3.5-8,5.1c-1.8,1-2.4,2.3-1.5,4.1c3.3,0,6.5,0,9.5,0c1.3-3.1-0.7-3.1-3.5-3.2
		C128.4,157.6,130.7,156.1,133.3,154.4z M71.7,58.2c0,1,0,1.9,0,2.8c0.9,0.2,1.6,0.3,2.8,0.5c-2.2,1.5-4.1,2.7-6,3.9
		c1.5,2.1,2.9,2,4.6,0.8c2.1-1.5,4.4-2.6,6.4-4.1c1-0.8,1.6-2.2,2.7-4C78,58.2,74.9,58.2,71.7,58.2z M69.2,132.5
		c-1.7-2.6-3.2-4.8-5-7.6c-1.3,6,2.8,8.9,5.2,13.3c1.7-4.6,6.5-7.2,4.6-12.9C72.3,127.8,70.9,129.9,69.2,132.5z M93.5,63
		c-1.7,2.5-3.2,4.7-4.7,7.1c-1.7-2.6-3.2-4.7-4.9-7.2c-1.5,5.9,2.8,8.6,4.9,13C90.9,71.5,95,68.7,93.5,63z M77.5,83.7
		c-4.9-0.8-5.8-0.4-12.1,4.8c4.8,4.6,7.6,5.8,11.8,4.7c-2.3-1.5-4.4-3-6.8-4.7C72.9,86.8,75.1,85.4,77.5,83.7z M131.7,65.9
		c5.2,0,10.2,0,15.5,0c-0.1-1.1-0.1-2-0.2-3c-5.2,0-10.1,0-15.3,0C131.7,63.9,131.7,64.9,131.7,65.9z M142.4,147.4
		c-1.7-2.4-3.2-4.7-4.8-7.1c-0.8,4.7,0.2,7,4.8,12.1c5-6.5,6.3-7.8,4.6-11.8C145.5,142.8,144.1,144.9,142.4,147.4z M91.1,58.1
		c1.1-0.1,2.1-0.1,3-0.1c0-4.9,0-9.5,0-14.3c-1.1,0.1-2,0.1-3,0.2C91.1,48.6,91.1,53.2,91.1,58.1z M102.9,89c-4,0-7.8,0.1-11.7,0
		c-2.5-0.1-3.1,0.9-2.2,3.3c4.6,0,9.2,0,13.9,0C102.9,91.2,102.9,90.3,102.9,89z M160.9,95.9c0.8-2.3,0.4-3.4-2.2-3.3
		c-2.9,0.1-5.9,0.1-8.8,0c-2.7-0.1-3.3,0.9-2.3,3.3C152.1,95.9,156.5,95.9,160.9,95.9z M65.1,77.7c-0.1-1.2-0.1-2.1-0.2-3.1
		c-4.8,0-9.3,0-14.1,0c0.1,1.2,0.1,2.1,0.2,3.1C55.7,77.7,60.1,77.7,65.1,77.7z M77.6,116.2c-4.3,0-8.2,0.1-12.2,0
		c-2.6-0.1-2.5,1.3-2,3c4.8,0,9.4,0,14.2,0C77.6,118.2,77.6,117.5,77.6,116.2z M91.6,159.1c0.7-2.3,0.2-3.4-2.1-3.3
		c-2.6,0.1-5.3,0.1-7.9,0c-2.6-0.1-3.2,1-2.3,3.3C83.4,159.1,87.4,159.1,91.6,159.1z M114.2,79.7c0,3.6,0,6.9,0,10.4
		c1.1-0.1,2-0.2,2.8-0.2c0-3.5,0-6.8,0-10.2C116,79.7,115.2,79.7,114.2,79.7z M100.9,145.3c0-4.3,0-8.2,0-12.3
		c-1.1,0.1-1.9,0.2-2.7,0.2c0,4.2,0,8.1,0,12.1C99.2,145.3,99.9,145.3,100.9,145.3z M144,122.6c0.2,0.3,0.5,0.6,0.7,0.9
		c0.8-0.6,2.3-1.2,2.3-1.8c0.2-3.2,0.1-6.4,0.1-9.9c-1.3,0.1-2.2,0.2-3.2,0.2C144,115.7,144,119.2,144,122.6z M57.5,101.9
		c0,3.5,0,6.8,0,10.3c1.1-0.1,1.9-0.2,3-0.3c0-2.8-0.1-5.5,0-8.1C60.7,101.6,59.5,101.3,57.5,101.9z M130.6,114.4c3.4,0,6.6,0,9.9,0
		c0-1.1,0-1.9,0-2.9c-3.4,0-6.6,0-9.9,0C130.6,112.6,130.6,113.4,130.6,114.4z M157.4,80.6c0-3.6,0-6.8,0-10.2c-1.1,0-2,0-3.1,0
		c0,3.4,0,6.6,0,10.1C155.4,80.5,156.2,80.6,157.4,80.6z M60.2,146.2c2.6,0,5.3,0,8.1,0c0-1.1,0-2,0-3
		C59.4,142.4,59,142.8,60.2,146.2z M120.1,48.9c-0.3,0.3-0.6,0.6-0.9,0.8c0.6,0.8,1.2,2.2,1.9,2.3c2.5,0.3,5,0.1,7.4,0.1
		c0.8-2.6-0.1-3.4-2.3-3.2C124.1,49,122.1,48.9,120.1,48.9z M79.4,74.9c-1.2,6.3-0.7,7.6,2.8,7.1c0-2.3,0-4.7,0-7.1
		C81.1,74.9,80.3,74.9,79.4,74.9z M104.9,171.2c0,2.5,0,4.7,0,7.2c1.2-0.1,2.1-0.2,3-0.3C108.6,170.7,108.3,170.1,104.9,171.2z
		 M168.8,83.3c-1.5-5.5-3-6.9-6.3-6.1C165.8,83.9,166,84.7,168.8,83.3z M106.6,136.2c3.5,7.2,3.6,7.8,6.5,6.3
		C111.2,136.9,110.3,135.9,106.6,136.2z M108.5,56.8c-3.7-7.1-3.4-7.1-6.6-6C104.3,57,105,57.7,108.5,56.8z M89.2,96.9
		c-2.8,0-5.3,0-8,0c0.1,1.1,0.1,2,0.2,2.9c2.7,0,5.2,0,7.9,0C89.2,98.7,89.2,97.9,89.2,96.9z M97.4,170.9c-2.8-6.9-3.5-7.8-6.7-5.9
		C92.9,166.8,92.3,171.6,97.4,170.9z M100.5,107.8c0,2.9,0,5.3,0,7.8c3.3,0,3.7-1.3,2.6-7.8C102.3,107.8,101.4,107.8,100.5,107.8z
		 M106.9,92.9c0.9-0.7,1.7-1.3,2.6-2c-0.6-0.6-1-1.7-1.7-1.8C105.4,88.8,106.1,90.6,106.9,92.9z M86,128.5c-0.3-0.3-0.6-0.6-0.9-0.9
		c-0.8,0.7-1.6,1.3-2.4,2c0.6,0.6,1.1,1.8,1.7,1.8C87,131.5,86,129.7,86,128.5z M128.4,80.8c-3.5-0.7-3.9-0.3-2.8,3.1
		c0.9-0.1,1.8-0.1,2.9-0.2C128.5,82.5,128.4,81.7,128.4,80.8z M99.5,62.5c1.3-0.1,2.3-0.2,3.4-0.3c-0.1-1.2-0.1-2-0.2-3
		c-1.2,0-2.1,0-3.2,0C99.5,60.4,99.5,61.3,99.5,62.5z M113.8,114.1c0.3,1.2,0.4,2.3,0.9,3.1c0.2,0.3,1.7,0.3,1.9,0
		c0.5-0.8,0.5-1.9,0.8-3.1C116,114.1,115.2,114.1,113.8,114.1z M126.6,57.1c0.4,1.2,0.5,2.2,1.1,3c0.2,0.3,1.7,0.2,1.9-0.1
		c0.4-0.8,0.4-1.9,0.7-3.1C128.8,57,128,57.1,126.6,57.1z M46.8,107.9c1.2-0.1,2-0.1,2.9-0.1c0.9-3-0.3-3.6-2.9-2.9
		C46.8,105.8,46.8,106.6,46.8,107.9z M136.5,95.9c1.1,0,2,0,3,0c0-1.1,0-1.9,0-3c-1,0-1.9,0-2.9,0C136.6,93.9,136.5,94.8,136.5,95.9
		z M123,110.8c-1.3,0.4-2.4,0.4-3,0.9c-0.4,0.3-0.4,1.9,0,2.2c0.8,0.5,1.9,0.5,3,0.7C123,113.2,123,112.3,123,110.8z M154.4,89.4
		c1.4-0.7,2.4-1,3.1-1.7c0.3-0.3-0.1-1.8-0.6-2c-0.6-0.4-1.6-0.1-2.5-0.1C154.4,86.7,154.4,87.5,154.4,89.4z M112.3,167.8
		c0,1.1,0,2,0,2.9c1.1,0,2,0,3.2,0c-0.1-1.1-0.1-2-0.2-2.9C114.2,167.8,113.4,167.8,112.3,167.8z M72.7,154.3c1.2,0,2.1,0,3.1,0
		c0-1.1,0-1.9,0-3c-1.1,0.1-2,0.1-3.1,0.1C72.7,152.4,72.7,153.2,72.7,154.3z M70.6,77.6c-0.1-1.2-0.2-2.1-0.3-3.2
		c-1.2,0.1-2.1,0.2-3,0.2c0,1.1,0,2,0,3C68.3,77.6,69.2,77.6,70.6,77.6z M151.9,140.9c1.1-0.1,2-0.2,2.9-0.2c0-1.1,0-1.9,0-2.9
		c-1,0-1.9,0-2.9,0C151.9,138.7,151.9,139.6,151.9,140.9z"/>
	<path class="st0" d="M85.9,104.3c1.8,1.2,3.4,1.8,4.2,2.9c2.1,2.9,4,5.9,5.7,9c1,1.8,1.3,3.8,2,5.8c-0.4,0.2-0.9,0.5-1.3,0.7
		c-2.3-3.4-4.7-6.9-7.5-11c0,3.7-0.1,6.6,0,9.5c0.1,2.2-0.8,3-3.2,2.3C85.9,117.5,85.9,111.5,85.9,104.3z"/>
	<path class="st0" d="M117.1,62c0,3.5,0,7,0,10.7c-1.1,0.1-2,0.1-3.1,0.2c0-6.2,0-12.3,0-19.4c1.8,1.2,3.3,1.7,4,2.7
		c2.3,3.2,4.5,6.5,6.4,10c0.8,1.5,0.9,3.3,1.3,5c-0.4,0.2-0.8,0.4-1.2,0.6c-2.3-3.4-4.5-6.8-6.8-10.1
		C117.5,61.9,117.3,61.9,117.1,62z"/>
	<path class="st0" d="M88.2,137.5c-2.4,1.6-4.7,3.1-7.8,5.1c4.5,0,8,0,11.9,0c0.1,1.3,0.1,2.2,0.2,3.3c-6.2,0-12.2,0-19.3,0
		c1.2-1.9,1.8-3.4,2.9-4.3c2.4-1.9,5.2-3.2,7.6-5.1C85.5,135.2,86.8,135.5,88.2,137.5z"/>
	<path class="st0" d="M127.6,91.8c-3,3-4.3,6-3,10c3.1,0,6.3-0.1,9.6,0.1c0.8,0,1.5,1.1,2.2,1.6c-0.7,0.6-1.5,1.6-2.2,1.6
		c-3.4,0.2-6.7,0.1-10.1,0.1c-2.2,0-3.1-1.1-3.1-3.2c0-1.9,0-3.9,0-5.8C120.9,91.4,121.5,91,127.6,91.8z"/>
	<path class="st0" d="M104.1,129.6c0.8-1.2,1.4-2.6,2.4-3.4c2.4-1.8,5.1-3.3,7.7-4.9c2.1-1.4,2.2-1.3,4.5,0.8
		c-2.3,1.5-4.5,3-6.7,4.5c0,0.2,0.1,0.4,0.1,0.6c3.6,0,7.1,0,10.8,0c0,1.3,0,2.2,0,3.2c-6,0-12,0-17.9,0
		C104.7,130.1,104.4,129.9,104.1,129.6z"/>
	<path class="st0" d="M166.5,126.6c0.1,1.3,0.1,2.1,0.2,3.3c-6.1,0-12,0-18,0c-0.9-1.9-0.3-3.2,1.5-4.2c3.2-1.9,6.4-4,9.8-6.2
		c0.8,0.6,1.6,1.2,2.8,1.9c-2.6,1.7-4.8,3.2-7.9,5.2C159.2,126.6,162.8,126.6,166.5,126.6z"/>
	<path class="st0" d="M104,79.1c0-4.2,0-8,0-11.8c2-0.6,3.3-0.6,3.2,1.8c-0.1,3.4,0,6.7,0,10.1c0,2.3-1.1,3.4-3.3,3.4
		c-1.9,0-3.9,0-5.8,0c-4.5,0-5.2-0.9-4.4-5.8c1.2,0,2.7-1.1,3.1,1.3c0.1,0.4,1.2,0.9,1.8,1C100.2,79.2,101.9,79.1,104,79.1z"/>
	<path class="st0" d="M161.6,105c-1.6,1.1-2.7,1.9-4,2.8c-1.2-5.3-0.5-6.3,4-6.4c1.8,0,3.7,0.1,5.5,0c2.5-0.1,3.8,0.9,3.7,3.6
		c-0.1,3.7-0.1,7.3,0,11c0.1,2.1-0.7,2.8-3.1,2.1c0-2.1,0-4.3,0-6.5c0-2.1,0-4.3,0-6.6C165.3,105,163,105,161.6,105z"/>
	<path class="st0" d="M130.4,148.4c-2.3,1-3.4,0.4-3.8-1.8c-0.4-2.1-1-4.1-1.7-6.2c-0.2-0.6-0.9-1.1-1.4-1.6c-0.4,0.5-1,0.9-1.2,1.5
		c-0.7,2-1.3,4.1-1.7,6.2c-0.4,2.1-1.4,2.8-3.8,2c1.2-4,2.2-7.9,3.6-11.8c0.2-0.7,1.9-1.1,3-1.1c1.1,0,3,0.3,3.3,1
		C128.2,140.4,129.2,144.4,130.4,148.4z"/>
	<path class="st0" d="M135,85.6c1.1-4,2.3-7.7,3.3-11.6c0.6-2.2,2.4-1.7,3.7-1.5c1.1,0.1,2.7,0.7,3,1.5c1.4,3.7,2.3,7.6,3.5,11.4
		c-1.9,0.9-3.1,0.9-3.6-1.3c-0.4-2-1-3.9-1.7-5.9c-0.3-0.9-0.9-1.6-1.4-2.4c-0.6,0.8-1.3,1.6-1.6,2.5c-0.7,1.8-1.2,3.7-1.5,5.6
		C138.4,86,137.3,86.3,135,85.6z"/>
	<path class="st0" d="M45.8,127.8c2.9,0,5.9-0.1,8.9,0.1c0.9,0.1,1.8,1,2.6,1.5c-0.8,0.6-1.6,1.6-2.5,1.6c-3.2,0.2-6.5,0.1-9.8,0.1
		c-2,0-3-1-3-3c0-2.1,0-4.3,0-6.4c0-4.4,0.8-5,6.2-4C46,120.7,44.1,123.7,45.8,127.8z"/>
	<path class="st0" d="M65.6,110.5c1.2-4,2.2-7.9,3.7-11.7c0.3-0.8,2.4-1.2,3.7-1.2c1,0,2.5,0.7,2.8,1.4c1.3,3.7,2.3,7.6,3.4,11.4
		c-2.3,1-3.4,0.4-3.8-1.9c-0.4-2.1-1-4.1-1.7-6.2c-0.2-0.6-0.9-1.1-1.4-1.6c-0.4,0.6-1,1.1-1.2,1.8c-0.7,2-1.3,4.1-1.7,6.2
		C69,110.7,68,111.3,65.6,110.5z"/>
	<path class="st0" d="M107.1,153.1c-4.3,0-8,0-12,0c0-1.1,0-1.9,0-3c4.3,0,8.5-0.2,12.6,0.1c0.9,0.1,2.2,1.7,2.4,2.8
		c0.4,2.1,0.1,4.3,0.1,6.4c0,4.3-0.7,4.8-5.1,4.3c-2.4-2.9,2-2.6,2-4.4C107.1,157.2,107.1,155.2,107.1,153.1z"/>
	<path class="st0" d="M99,99.9c0-1.3,0-2.1,0-2.8c0.3-0.2,0.5-0.4,0.6-0.4c3.9-0.1,7.7-0.1,11.6-0.1c1.9,0,2.8,0.8,2.8,2.8
		c0,2.1,0,4.3,0,6.4c0,4.5-0.6,5-6.1,4c0.9-1.3,1.5-2.3,2.2-3.4c0.2,0.1,0.5,0.3,0.7,0.4c0-2.2,0-4.4,0-6.9
		C106.9,99.9,103.1,99.9,99,99.9z"/>
	<path class="st0" d="M42.2,89.5c0-1.4,0-2.3,0-3.3c5.3,0,10.5,0,15.8,0c1.3,4.6-3,4.9-5.2,6.6c-1.8,1.4-1.9,1.2-4.1-0.7
		c0.8-0.7,1.7-1.4,3-2.5C48.3,89.5,45.4,89.5,42.2,89.5z"/>
	<path class="st0" d="M109.7,49.4c0-2.7,0-5.3,0-8.1c-2.5,0-4.7,0-6.1,0c-1.5,1.2-2.5,2-3.8,3.1c-1.1-5.6-0.5-6.4,4.1-6.4
		c2,0,4.1,0,6.1,0c2,0,3,1,3,3c0,2.2-0.1,4.5,0,6.7C113.1,49.9,111.9,50.2,109.7,49.4z"/>
	<path class="st0" d="M136.5,130.9c0-2.8,0-5.4,0-8.2c-2.4,0-4.6,0-6.2,0c-1.3,1.1-2.3,2-3.6,3.1c-1.4-5.4-0.5-6.5,4.1-6.5
		c1.7,0,3.5,0.1,5.2,0c2.5-0.1,3.8,0.9,3.7,3.5c-0.1,2-0.1,4.1,0,6.1C139.8,131.1,138.7,131.5,136.5,130.9z"/>
	<path class="st0" d="M133.3,154.4c-2.6,1.7-4.9,3.2-8,5.2c2.7,0,4.8,0.1,3.5,3.2c-3,0-6.2,0-9.5,0c-0.8-1.8-0.3-3.1,1.5-4.1
		c2.7-1.6,5.3-3.4,8-5.1C130.8,152.3,130.8,152.3,133.3,154.4z"/>
	<path class="st0" d="M71.7,58.2c3.2,0,6.4,0,10.6,0c-1.2,1.8-1.7,3.2-2.7,4c-2,1.6-4.3,2.7-6.4,4.1c-1.7,1.2-3.1,1.3-4.6-0.8
		c1.8-1.2,3.7-2.5,6-3.9c-1.2-0.2-1.9-0.4-2.8-0.5C71.7,60.1,71.7,59.3,71.7,58.2z"/>
	<path class="st0" d="M69.2,132.5c1.7-2.6,3.1-4.7,4.8-7.2c1.9,5.7-2.9,8.3-4.6,12.9c-2.4-4.4-6.5-7.3-5.2-13.3
		C66,127.6,67.5,129.9,69.2,132.5z"/>
	<path class="st0" d="M93.5,63c1.5,5.6-2.6,8.4-4.8,12.8c-2.1-4.4-6.4-7.1-4.9-13c1.7,2.6,3.2,4.7,4.9,7.2
		C90.3,67.8,91.8,65.6,93.5,63z"/>
	<path class="st0" d="M77.5,83.7c-2.4,1.7-4.6,3.1-7.1,4.9c2.4,1.6,4.5,3.1,6.8,4.7c-4.2,1-7.1-0.1-11.8-4.7
		C71.7,83.3,72.6,82.9,77.5,83.7z"/>
	<path class="st0" d="M131.7,65.9c0-1,0-1.9,0-3c5.2,0,10.1,0,15.3,0c0.1,1,0.1,1.9,0.2,3C141.9,65.9,136.9,65.9,131.7,65.9z"/>
	<path class="st0" d="M142.4,147.4c1.7-2.5,3.1-4.6,4.6-6.8c1.7,4,0.4,5.2-4.6,11.8c-4.6-5.1-5.5-7.4-4.8-12.1
		C139.3,142.8,140.8,145,142.4,147.4z"/>
	<path class="st0" d="M91.1,58.1c0-4.9,0-9.5,0-14.3c1-0.1,1.9-0.1,3-0.2c0,4.8,0,9.4,0,14.3C93.2,58,92.3,58,91.1,58.1z"/>
	<path class="st0" d="M102.9,89c0,1.3,0,2.1,0,3.2c-4.7,0-9.3,0-13.9,0c-0.8-2.3-0.2-3.3,2.2-3.3C95.1,89.1,98.9,89,102.9,89z"/>
	<path class="st0" d="M160.9,95.9c-4.4,0-8.9,0-13.4,0c-0.9-2.4-0.3-3.4,2.3-3.3c2.9,0.1,5.9,0.1,8.8,0
		C161.3,92.5,161.7,93.7,160.9,95.9z"/>
	<path class="st0" d="M65.1,77.7c-4.9,0-9.4,0-14.1,0c-0.1-1-0.1-1.9-0.2-3.1c4.7,0,9.2,0,14.1,0C64.9,75.6,65,76.5,65.1,77.7z"/>
	<path class="st0" d="M77.6,116.2c0,1.3,0,2,0,3c-4.7,0-9.3,0-14.2,0c-0.5-1.8-0.6-3.1,2-3C69.4,116.3,73.3,116.2,77.6,116.2z"/>
	<path class="st0" d="M91.6,159.1c-4.2,0-8.2,0-12.3,0c-0.8-2.3-0.3-3.4,2.3-3.3c2.6,0.1,5.3,0.1,7.9,0
		C91.8,155.7,92.3,156.8,91.6,159.1z"/>
	<path class="st0" d="M114.2,79.7c1,0,1.8,0,2.8,0c0,3.4,0,6.6,0,10.2c-0.8,0.1-1.7,0.1-2.8,0.2C114.2,86.6,114.2,83.3,114.2,79.7z"
		/>
	<path class="st0" d="M100.9,145.3c-1,0-1.8,0-2.7,0c0-4,0-7.9,0-12.1c0.8-0.1,1.7-0.1,2.7-0.2C100.9,137.1,100.9,141,100.9,145.3z"
		/>
	<path class="st0" d="M144,122.6c0-3.4,0-6.8,0-10.6c0.9-0.1,1.9-0.1,3.2-0.2c0,3.5,0.1,6.7-0.1,9.9c-0.1,0.7-1.5,1.2-2.3,1.8
		C144.5,123.2,144.2,122.9,144,122.6z"/>
	<path class="st0" d="M57.5,101.9c2-0.6,3.1-0.3,3,2c-0.1,2.6,0,5.2,0,8.1c-1.1,0.1-1.9,0.2-3,0.3C57.5,108.7,57.5,105.4,57.5,101.9
		z"/>
	<path class="st0" d="M130.6,114.4c0-1,0-1.8,0-2.9c3.3,0,6.5,0,9.9,0c0,1,0,1.8,0,2.9C137.1,114.4,133.9,114.4,130.6,114.4z"/>
	<path class="st0" d="M157.4,80.6c-1.2-0.1-2-0.1-3.1-0.1c0-3.4,0-6.6,0-10.1c1,0,2,0,3.1,0C157.4,73.8,157.4,77,157.4,80.6z"/>
	<path class="st0" d="M60.2,146.2c-1.2-3.4-0.9-3.8,8.1-3c0,0.9,0,1.9,0,3C65.6,146.2,62.9,146.2,60.2,146.2z"/>
	<path class="st0" d="M120.1,48.9c2,0,4.1,0.1,6.1,0c2.2-0.1,3.1,0.6,2.3,3.2c-2.4,0-4.9,0.2-7.4-0.1c-0.7-0.1-1.3-1.5-1.9-2.3
		C119.5,49.4,119.8,49.1,120.1,48.9z"/>
	<path class="st0" d="M79.4,74.9c0.8,0,1.7,0,2.8,0c0,2.4,0,4.7,0,7.1C78.7,82.5,78.2,81.2,79.4,74.9z"/>
	<path class="st0" d="M104.9,171.2c3.4-1.1,3.7-0.4,3,6.9c-0.9,0.1-1.8,0.2-3,0.3C104.9,175.9,104.9,173.6,104.9,171.2z"/>
	<path class="st0" d="M168.8,83.3c-2.8,1.4-3.1,0.6-6.3-6.1C165.8,76.3,167.3,77.8,168.8,83.3z"/>
	<path class="st0" d="M106.6,136.2c3.7-0.3,4.6,0.6,6.5,6.3C110.2,144,110.1,143.5,106.6,136.2z"/>
	<path class="st0" d="M108.5,56.8c-3.5,0.8-4.1,0.2-6.6-6C105.1,49.7,104.8,49.7,108.5,56.8z"/>
	<path class="st0" d="M89.2,96.9c0,1,0,1.9,0,2.9c-2.6,0-5.1,0-7.9,0c-0.1-0.9-0.1-1.8-0.2-2.9C83.8,96.9,86.3,96.9,89.2,96.9z"/>
	<path class="st0" d="M97.4,170.9c-5.1,0.8-4.4-4-6.7-5.9C93.8,163.1,94.6,163.9,97.4,170.9z"/>
	<path class="st0" d="M100.5,107.8c0.9,0,1.8,0,2.6,0c1.1,6.5,0.7,7.8-2.6,7.8C100.5,113.1,100.5,110.6,100.5,107.8z"/>
	<path class="st0" d="M106.9,92.9c-0.8-2.3-1.4-4.1,0.9-3.8c0.6,0.1,1.1,1.2,1.7,1.8C108.6,91.6,107.7,92.2,106.9,92.9z"/>
	<path class="st0" d="M86,128.5c0,1.2,0.9,3-1.5,2.9c-0.6,0-1.1-1.2-1.7-1.8c0.8-0.7,1.6-1.3,2.4-2C85.4,127.9,85.7,128.2,86,128.5z
		"/>
	<path class="st0" d="M128.4,80.8c0,0.8,0.1,1.7,0.1,2.8c-1.1,0.1-2,0.2-2.9,0.2C124.5,80.5,124.9,80.1,128.4,80.8z"/>
	<path class="st0" d="M99.5,62.5c0-1.3,0-2.2,0-3.2c1.1,0,2,0,3.2,0c0.1,0.9,0.1,1.8,0.2,3C101.8,62.4,100.8,62.4,99.5,62.5z"/>
	<path class="st0" d="M113.8,114.1c1.4,0,2.2,0,3.6,0c-0.3,1.2-0.3,2.2-0.8,3.1c-0.2,0.3-1.7,0.3-1.9,0
		C114.2,116.4,114.1,115.3,113.8,114.1z"/>
	<path class="st0" d="M126.6,57.1c1.4-0.1,2.3-0.1,3.6-0.2c-0.2,1.2-0.2,2.2-0.7,3.1c-0.1,0.3-1.7,0.4-1.9,0.1
		C127.1,59.4,127,58.3,126.6,57.1z"/>
	<path class="st0" d="M46.8,107.9c0-1.2,0-2.1,0-3c2.6-0.7,3.8-0.1,2.9,2.9C48.9,107.8,48,107.8,46.8,107.9z"/>
	<path class="st0" d="M136.5,95.9c0.1-1.1,0.1-2,0.2-3c1,0,1.9,0,2.9,0c0,1.1,0,1.9,0,3C138.5,95.9,137.6,95.9,136.5,95.9z"/>
	<path class="st0" d="M123,110.8c0,1.5,0,2.4,0,3.8c-1.1-0.2-2.2-0.2-3-0.7c-0.4-0.2-0.4-1.8,0-2.2
		C120.7,111.1,121.7,111.1,123,110.8z"/>
	<path class="st0" d="M154.4,89.4c0-1.9,0-2.6,0-3.8c0.9,0,1.9-0.3,2.5,0.1c0.5,0.3,0.8,1.8,0.6,2C156.8,88.4,155.7,88.7,154.4,89.4
		z"/>
	<path class="st0" d="M112.3,167.8c1.1,0,1.9,0,3,0c0.1,0.9,0.1,1.8,0.2,2.9c-1.1,0-2.1,0-3.2,0
		C112.3,169.8,112.3,168.9,112.3,167.8z"/>
	<path class="st0" d="M72.7,154.3c0-1.1,0-1.9,0-2.9c1.1,0,2-0.1,3.1-0.1c0,1.1,0,2,0,3C74.8,154.3,73.9,154.3,72.7,154.3z"/>
	<path class="st0" d="M70.6,77.6c-1.4,0-2.2,0-3.3,0c0-1,0-1.9,0-3c0.9-0.1,1.8-0.1,3-0.2C70.4,75.5,70.5,76.5,70.6,77.6z"/>
	<path class="st0" d="M151.9,140.9c0-1.3,0-2.1,0-3.2c1,0,1.8,0,2.9,0c0,1,0,1.9,0,2.9C153.9,140.7,153,140.8,151.9,140.9z"/>
</g>
</svg>
