<?xml version="1.0" encoding="utf-8"?>
<!-- Generator: Adobe Illustrator 24.0.1, SVG Export Plug-In . SVG Version: 6.00 Build 0)  -->
<svg version="1.1" id="Layer_1" xmlns="http://www.w3.org/2000/svg" xmlns:xlink="http://www.w3.org/1999/xlink" x="0px" y="0px"
	 viewBox="0 0 128 128" style="enable-background:new 0 0 128 128;" xml:space="preserve">
<style type="text/css">
	.st0{fill:#1E1E3E;}
	.st1{fill:#FDFDFD;}
</style>
<path class="st0" d="M128,63.8c0,35.4-28.8,64.1-64.3,64C28.4,127.7-0.1,99,0,63.6C0,28.2,28.8-0.3,64.2-0.2
	C99.4-0.1,128,28.6,128,63.8z M118.2,63.9C118.5,37.1,96.1,9.5,63,9.7C34.3,9.9,9.9,34.3,9.8,63.5c-0.1,29.8,24.1,54.2,54,54.3
	C93.7,117.9,118.1,93.7,118.2,63.9z"/>
<path class="st1" d="M118.2,63.9c-0.1,29.8-24.5,54-54.4,53.9c-29.9-0.1-54.1-24.4-54-54.3C9.9,34.3,34.3,9.9,63,9.7
	C96.1,9.5,118.5,37.1,118.2,63.9z M113.9,63.9c0-27.6-22.1-49.9-49.6-50c-27.6-0.1-50.1,22.3-50.1,50.1
	c0.1,27.6,22.6,49.7,49.7,49.7C91.5,113.8,113.9,91.4,113.9,63.9z"/>
<path class="st0" d="M113.9,63.9c0,27.5-22.4,49.9-50,49.9c-27.1-0.1-49.7-22.2-49.7-49.7C14.2,36.3,36.7,13.9,64.3,14
	C91.8,14.1,113.9,36.3,113.9,63.9z M95.3,70c-4.2,3.2-8.4,6.4-12.6,9.6c1.9,3.7,3.7,7.1,5.5,10.6c1.2,2.3,2.5,2.6,4.3,0.7
	c1.8-2,3.6-4,5.1-6.3c0.7-1,1-2.5,0.8-3.7C98.1,77.1,97.5,73.2,95.3,70c1.4-0.3,2.8-0.6,4.3-0.6c2.3,0,2.9-1.4,2.8-3.2
	c-0.2-3.3-0.5-6.7-1-10c-0.1-0.8-1.1-1.7-1.9-2c-1.8-0.5-3.8-0.6-6-0.9c0.3,3.9,0.5,7.4,0.9,10.8C94.7,66.2,95,68.1,95.3,70z
	 M64.4,52.7c-1,0-1.9,0-2.7,0c-4.6,0.3-9.2,0.6-13.7,0.9C42.1,54,36.3,54.4,30.5,55c-3.3,0.3-3.8,1-3.6,4.4c0.2,3,0.5,6.1,0.7,9.1
	c0.2,3.1,1.2,4.3,4.3,4.3c10.8-0.1,21.7-0.3,32.5-0.5c0.5,0,1.5-1,1.5-1.5C65.5,64.8,64.9,58.8,64.4,52.7z M82.8,79.8
	c-5.5-2.4-10.5-4.7-15.6-6.8c-0.4-0.2-1.6,0.5-1.9,1.1c-4.6,8.9-9,17.9-13.5,26.8c-0.9,1.8-0.1,2.6,1.5,2.9c2.4,0.4,4.9,0.9,7.3,0.9
	c2.9,0.1,5.7-0.7,7.5-3.3C73,94.3,77.8,87.3,82.8,79.8z M44.1,28.2c5.5,6.4,10.9,12.7,16.3,18.9c1.4,1.7,2.8,4.4,4.4,4.6
	c1.8,0.2,4-1.8,5.9-3c2.6-1.5,5.2-3.2,7.9-4.9c-2.1-2.6-3.8-5-5.8-7.2c-4-4.2-8.1-8.3-12.2-12.4c-1.3-1.3-2.9-1.4-4.7-0.6
	C52.2,25.3,48.3,26.6,44.1,28.2z M84.1,31.6c-1.5,3.8-3,7.6-4.4,11.5c-0.2,0.4,0.3,1.4,0.7,1.7c4.3,2.8,8.6,5.5,12.9,8.3
	C97.1,44.9,93.5,35.8,84.1,31.6z"/>
<path class="st1" d="M64.4,52.7c0.5,6.1,1.1,12.1,1.5,18c0,0.5-1,1.5-1.5,1.5c-10.8,0.3-21.7,0.5-32.5,0.5c-3.1,0-4.1-1.2-4.3-4.3
	c-0.2-3-0.5-6-0.7-9.1c-0.2-3.4,0.3-4.1,3.6-4.4c5.8-0.5,11.6-0.9,17.4-1.3c4.6-0.3,9.2-0.6,13.7-0.9C62.5,52.7,63.4,52.7,64.4,52.7
	z"/>
<path class="st1" d="M82.8,79.8c-5,7.4-9.8,14.5-14.7,21.6c-1.8,2.7-4.6,3.4-7.5,3.3c-2.4-0.1-4.9-0.5-7.3-0.9
	c-1.6-0.3-2.4-1.1-1.5-2.9c4.5-8.9,9-17.9,13.5-26.8c0.3-0.6,1.5-1.3,1.9-1.1C72.3,75.1,77.3,77.4,82.8,79.8z"/>
<path class="st1" d="M44.1,28.2c4.3-1.6,8.2-2.9,12-4.5c1.8-0.7,3.4-0.7,4.7,0.6c4.1,4.1,8.2,8.2,12.2,12.4c2,2.1,3.7,4.6,5.8,7.2
	c-2.7,1.7-5.3,3.3-7.9,4.9c-1.9,1.1-4.1,3.2-5.9,3c-1.7-0.2-3-2.9-4.4-4.6C55,40.9,49.6,34.7,44.1,28.2z"/>
<path class="st1" d="M95.2,69.9c2.3,3.3,2.8,7.2,3.2,11c0.1,1.2-0.2,2.7-0.8,3.7c-1.5,2.2-3.2,4.3-5.1,6.3c-1.8,1.9-3.1,1.6-4.3-0.7
	c-1.8-3.4-3.6-6.9-5.5-10.6C86.9,76.4,91.1,73.2,95.2,69.9C95.3,70,95.2,69.9,95.2,69.9z"/>
<path class="st1" d="M84.1,31.6c9.5,4.2,13,13.3,9.3,21.5c-4.3-2.7-8.7-5.5-12.9-8.3c-0.4-0.3-0.9-1.3-0.7-1.7
	C81.1,39.2,82.6,35.4,84.1,31.6z"/>
<path class="st1" d="M95.3,70c-0.3-1.9-0.6-3.8-0.8-5.7c-0.3-3.5-0.6-7-0.9-10.8c2.2,0.3,4.1,0.4,6,0.9c0.8,0.2,1.8,1.2,1.9,2
	c0.5,3.3,0.8,6.6,1,10c0.1,1.7-0.5,3.2-2.8,3.2C98.2,69.4,96.7,69.7,95.3,70C95.2,69.9,95.3,70,95.3,70z"/>
</svg>
