<?xml version="1.0" encoding="utf-8"?>
<!-- Generator: Adobe Illustrator 24.0.1, SVG Export Plug-In . SVG Version: 6.00 Build 0)  -->
<svg version="1.1" id="Layer_1" xmlns="http://www.w3.org/2000/svg" xmlns:xlink="http://www.w3.org/1999/xlink" x="0px" y="0px"
	 viewBox="0 0 128 128" style="enable-background:new 0 0 128 128;" xml:space="preserve">
<style type="text/css">
	.st0{fill:#5555FD;}
	.st1{fill:#00EC1A;}
	.st2{fill:#BFEAC6;}
</style>
<path class="st0" d="M64.1,0c35.4,0,63.9,28.8,63.9,64.2c-0.1,35.3-28.8,63.9-64.3,63.8C28.4,127.9-0.1,99.1,0,63.6
	C0.1,28.5,28.8,0,64.1,0z M118.7,64c1.7-30.2-25.2-52.9-48-54.8c-16.9-1.3-32,2.7-44.4,14.5c-9.6,9.2-15.7,20.3-17,33.8
	c-3.8,39,27.7,59.2,48.5,61.2C95.5,122.6,121.1,90,118.7,64z"/>
<path class="st1" d="M118.7,64c2.4,26-23.1,58.5-60.9,54.8C37,116.8,5.5,96.6,9.3,57.6c1.3-13.5,7.4-24.6,17-33.8
	C38.7,12,53.8,7.9,70.6,9.3C93.4,11.1,120.4,33.9,118.7,64z M113.1,64.4C113,39,93.7,15,63.3,15.2c-25.8,0.1-47.8,20.3-48.3,48
	c-0.5,27.5,20.7,49.3,48.2,49.8C90.7,113.3,112.4,92.1,113.1,64.4z"/>
<path class="st0" d="M113.1,64.4c-0.7,27.7-22.3,49-49.8,48.5C35.7,112.5,14.6,90.7,15,63.2c0.5-27.7,22.5-47.9,48.3-48
	C93.7,15,113,39,113.1,64.4z M53.2,66.4c4.7,6.3,6.3,10.5,5.2,17.3c-0.5,3-0.9,6.1-1.2,9.2c-0.3,2.8,2.4,5.1,5.1,4.4
	c4-1.1,5.3-3.5,3.8-7.7c-3.5-10-1.2-19.3,4-28c0.4-0.7,1.5-1.2,2.4-1.2c4.6-0.3,8.7-1.8,12.2-4.8c6.7-5.7,6.3-13.9,7.8-21.7
	c-6.4-0.6-11.3,1.4-15.5,5.4c-5.6,5.3-7.7,12.4-10.5,19.1c-1.8,4.2-2.9,8.6-4.5,13.5c-1-1.5-1.5-2.5-2.2-3.4
	c-1.8-2.4-3.5-4.9-5.5-7.1c-3.4-3.9-8.5-5-13.1-6.3c-3.3-0.9-7-0.7-10,2c2.6,2.9,5,5.7,7.5,8.4C43.7,70.6,47.6,70.8,53.2,66.4z"/>
<path class="st2" d="M53.2,66.4c-5.6,4.4-9.6,4.2-14.6-1c-2.6-2.6-4.9-5.5-7.5-8.4c3-2.7,6.7-2.9,10-2c4.7,1.3,9.7,2.4,13.1,6.3
	c2,2.3,3.7,4.7,5.5,7.1c0.7,0.9,1.2,1.8,2.2,3.4c1.6-4.9,2.7-9.4,4.5-13.5c2.8-6.7,5-13.8,10.5-19.1c4.2-4,9.1-6,15.5-5.4
	c-1.5,7.7-1.1,15.9-7.8,21.7c-3.5,3-7.6,4.4-12.2,4.8c-0.8,0.1-2,0.6-2.4,1.2c-5.1,8.8-7.4,18-4,28c1.4,4.2,0.2,6.6-3.8,7.7
	c-2.7,0.7-5.4-1.5-5.1-4.4c0.3-3.1,0.8-6.1,1.2-9.2C59.5,76.8,58,72.7,53.2,66.4z"/>
</svg>
