<?xml version="1.0" encoding="utf-8"?>
<!-- Generator: Adobe Illustrator 24.0.1, SVG Export Plug-In . SVG Version: 6.00 Build 0)  -->
<svg version="1.1" id="Layer_1" xmlns="http://www.w3.org/2000/svg" xmlns:xlink="http://www.w3.org/1999/xlink" x="0px" y="0px"
	 viewBox="0 0 212 212" style="enable-background:new 0 0 212 212;" xml:space="preserve">
<style type="text/css">
	.st0{fill:#CE1112;}
	.st1{fill:#FCF2F2;}
	.st2{fill:#FDF9F9;}
	.st3{fill:#D0191A;}
</style>
<g>
	<path class="st0" d="M0,105.5C0.2,47.1,47.8-0.1,106.4,0C165,0.1,212.2,47.8,212,106.8c-0.2,58.2-48,105.4-106.7,105.2
		C47,211.8-0.2,164.1,0,105.5z M60.3,72.1c1.2,0.4,2.2,0.8,3.2,1.1c7.9,2.5,15.9-0.5,20-7.3c4-6.7,3-15-2.6-20.7
		c-5.2-5.3-13.6-6.5-20.2-2.8c-7,3.9-10,11.8-8.1,19.8c0.5,2.2,0,5.2-1.2,7.1c-20.1,30.5-12.1,71.1,18,91.3
		c30,20.1,70.7,12.3,91-17.5c20.3-29.8,12.9-70.4-16.9-91c-11.1-7.7-23.4-11.8-37.1-11.6c0,3,0,5.6,0,8
		c33.5,4.9,52.9,22.5,56.4,50.9c3.1,25.5-11.7,50.3-35.7,59.8c-24.1,9.5-51.4,1.7-67-19.2C45.2,120,45.1,91.4,60.3,72.1z
		 M106.2,131.5c14-0.1,25.5-11.9,25.3-25.8c-0.2-13.8-11.6-25.1-25.4-25.1c-14,0-25.6,11.6-25.5,25.6
		C80.6,120.1,92.2,131.6,106.2,131.5z"/>
	<path class="st1" d="M60.3,72.1C45.1,91.4,45.2,120,60,140c15.5,20.9,42.9,28.7,67,19.2c24-9.5,38.9-34.4,35.7-59.8
		c-3.5-28.4-22.9-46-56.4-50.9c0-2.5,0-5,0-8c13.7-0.2,26,3.9,37.1,11.6c29.8,20.7,37.2,61.2,16.9,91c-20.3,29.8-61,37.6-91,17.5
		c-30.2-20.2-38.1-60.8-18-91.3c1.2-1.9,1.7-4.9,1.2-7.1c-1.9-8,1.1-15.9,8.1-19.8c6.6-3.7,15-2.5,20.2,2.8c5.5,5.7,6.6,14,2.6,20.7
		c-4.1,6.8-12,9.8-20,7.3C62.5,72.9,61.5,72.6,60.3,72.1z M68.8,48.8c-4.6,0-8.5,4-8.3,8.6c0.1,4.4,3.8,8.1,8.2,8.2
		c4.7,0.1,8.5-3.7,8.6-8.3C77.3,52.6,73.5,48.8,68.8,48.8z"/>
	<path class="st2" d="M106.2,131.5c-14,0.1-25.7-11.4-25.7-25.4c0-14,11.5-25.6,25.5-25.6c13.8,0,25.2,11.3,25.4,25.1
		C131.7,119.6,120.2,131.4,106.2,131.5z"/>
	<path class="st3" d="M68.8,48.8c4.7,0,8.5,3.8,8.5,8.4c0,4.7-3.9,8.4-8.6,8.3c-4.4-0.1-8.1-3.7-8.2-8.2
		C60.3,52.9,64.2,48.9,68.8,48.8z"/>
</g>
</svg>
