<?xml version="1.0" encoding="utf-8"?>
<!-- Generator: Adobe Illustrator 24.0.1, SVG Export Plug-In . SVG Version: 6.00 Build 0)  -->
<svg version="1.1" id="Layer_1" xmlns="http://www.w3.org/2000/svg" xmlns:xlink="http://www.w3.org/1999/xlink" x="0px" y="0px"
	 viewBox="0 0 212 212" style="enable-background:new 0 0 212 212;" xml:space="preserve">
<style type="text/css">
	.st0{fill:#F9050A;}
	.st1{fill:#F90409;}
	.st2{fill:#332626;}
	.st3{fill:#1B1618;}
	.st4{fill:#461611;}
	.st5{fill:#D59558;}
	.st6{fill:#E89831;}
	.st7{fill:#E5E4E2;}
	.st8{fill:#E28015;}
	.st9{fill:#FEFEFE;}
</style>
<g>
	<path class="st0" d="M185.4,36.6c12.1,12.6,19.4,27.8,23.4,44.6c12.4,51-14.9,105-67.3,123.7c-39.9,14.3-80.8,4.9-111.2-26.4
		C-8.2,138.8-8.1,79,25.9,37.3c0.7-0.8,1.6-1.4,2.4-2.2c0.4,5.1,0.7,10.2,1.3,15.3c0.2,1.5,1.1,3,1.6,4.5c1.6,7.8,3.2,15.5,4.8,23.3
		c0,0.3,0,0.6,0,1c0.1,0.6,0.2,1.2,0.2,1.9c-0.3,2.5-0.2,5.2-0.9,7.6c-2,6.4-4.8,12.5-6.4,19c-2.4,10.1-4.9,20.3-1.2,30.8
		c0.3,0.6,0.5,1.2,0.8,1.9c0.3,0.6,0.5,1.3,0.8,1.9l0,0c0.6,1.3,1.3,2.5,1.9,3.8l0,0c0.3,0.6,0.7,1.1,1,1.7l0.1,0.1
		c0.6,0.9,1.2,1.8,1.8,2.6c0,0,0.1,0.2,0.1,0.2c0.3,0.3,0.5,0.5,0.8,0.8c0.6,0.4,1.3,0.7,1.9,1.1c2.7,3.2,5.5,6.4,8.2,9.6
		c9.4,8.2,19.6,15,31.2,19.7c0.6,0.3,1.3,0.6,1.9,0.9c6.9,2.1,13.8,4.2,20.7,6.4c0.6,0,1.3,0,1.9,0c1.9,0.1,3.8,0.2,5.6,0.3
		c0.9-0.1,1.9-0.2,2.8-0.3c0.3,0,0.6,0.1,0.9,0.1c4.7-0.9,9.4-1.9,14.1-2.8c0.9-0.1,1.9-0.1,2.7-0.4c16.6-5.7,31.2-14.5,43.8-26.7
		c8.4-8.2,15.6-16.7,15.7-29.3c-0.1-3.1-0.1-6.3-0.2-9.4c-0.8-3.5-1.9-7-2.5-10.5c-1.6-10.2-7.9-19.1-8-29.6
		c0.4-1.3,0.9-2.5,1.3-3.8c4.3-3.9,4.7-9,4.5-14.3c0-0.5,0-1.1,0-1.6c0.3-1,0.7-1.9,1-2.9c0.1-1.9,0.3-3.9,0.4-5.8
		c0.5-3,0.9-5.9,1.4-8.9C184.8,40.8,185.1,38.7,185.4,36.6z"/>
	<path class="st1" d="M49.1,17.2C66,7,84,0.6,103.8,0.2C125.7-0.2,145.7,6,164,17.8c-8.4,7.7-16.7,15.4-25.3,22.9
		c-1.4,1.2-4,2-5.7,1.6c-18.3-4.9-36.5-4.6-54.6,0.4c-1-0.6-2.4-0.9-3.1-1.8C67.9,31.5,58.7,24.2,49.1,17.2z"/>
	<path class="st2" d="M78.3,42.7c18.2-5,36.3-5.4,54.6-0.4c1.7,0.4,4.3-0.4,5.7-1.6c8.6-7.5,16.9-15.3,25.3-22.9c2-0.9,4-1.8,6-2.6
		c7.8-3.3,11.7-1.2,14.3,7.7c-0.2,0-0.4,0-0.5,0c-0.7,0-1.3-0.1-2-0.1c-2.5-6.4-4.8-7.4-10.7-4.7c-1.6,0.7-3.1,1.9-4.6,2.9
		c-1.5,1-3,2.1-4.5,3.1c-0.4,0.3-0.9,0.6-1.3,0.9c-6.8,6.4-13.5,12.7-20.3,19.1c-2.1,1.9-3.6,4.9-7.1,1.7c-1-0.9-3.4-0.3-5.2-0.4
		c-0.3,0-0.5,0-0.8,0c-1.8-0.6-3.7-1.1-5.5-1.7c-7.6-0.4-15.2-0.8-22.8-1.2c0.9-0.4,1.9-0.8,2.8-1.2c-1-0.1-2-0.4-2.9-0.4
		c-2,0.1-4,0.4-6,0.6C88,41.8,83.1,42.2,78.3,42.7z"/>
	<path class="st3" d="M78.3,42.7c4.8-0.5,9.6-0.9,14.4-1.4c2-0.2,4-0.5,6-0.6c1-0.1,2,0.2,2.9,0.4c-0.9,0.4-1.9,0.8-2.8,1.2
		c-0.3,0.4-0.7,0.7-1,1.1c-0.6,0.1-1.1,0.2-1.7,0.3c-0.9,0.2-1.8,0.5-2.7,0.7c-2-0.2-4.1-0.6-6-0.4c-5.3,0.6-10.6,4.1-15.7-0.6l0,0
		c-0.4-0.9-0.9-1.9-1.3-2.8c-2.3-2.1-4.7-4.3-7-6.4c-3-3-6-5.9-9-8.9l-0.3-0.3c-5.5-4.8-10.3-11.2-19.1-7.8c0.2-0.7,0.1-1.8,0.6-2.1
		c1.2-0.7,2.6-1.1,4-1.6c3.1,1.3,6.3,2.5,9.4,3.8c9.6,6.9,18.7,14.3,26.1,23.7C75.9,41.8,77.3,42.1,78.3,42.7z"/>
	<path class="st2" d="M39.7,13.4c-1.3,0.5-2.8,0.9-4,1.6c-0.5,0.3-0.4,1.4-0.6,2.1c-0.3,1.5-0.6,3.1-0.9,4.6c0,0.3-0.1,0.7-0.1,1
		c-0.6,1.3-1.6,2.6-1.7,3.9C32,31.4,32.1,36,32,40.7c-0.3,0-0.5,0-0.8,0c-0.1-0.3-0.2-0.6-0.1-0.9c-0.3-1.4-0.7-2.7-1-4.1
		c-0.3-3.6-0.5-7.1-0.8-10.7c0.7-2.4,1-5,2-7.3C32.8,14.1,35.4,11.8,39.7,13.4z"/>
	<path class="st3" d="M183.7,22.8c0.2,0.1,0.3,0.1,0.5,0c0.1,1.2,0.2,2.4,0.3,3.7c-0.3,5.7-0.6,11.3-1,17c-0.2,2.8-0.3,5.6-0.5,8.3
		c-0.1,1.9-0.3,3.9-0.4,5.8c-0.3,1-0.7,1.9-1,2.9c0,0.5,0,1.1,0,1.6c-0.7,0.6-1.4,1.1-2.1,1.7c0.3-2.7,0.6-5.5,0.8-8.2
		c0.1-0.3,0.3-0.6,0.4-0.9c0-1.2,0.1-2.5,0.1-3.7c0.2-3.1,0.3-6.2,0.5-9.3c0.3-1.3,0.6-2.7,0.8-4c0-3.7,0-7.4,0-11.1
		C182.8,25.3,183.2,24,183.7,22.8z"/>
	<path class="st4" d="M30.1,35.6c0.3,1.4,0.7,2.7,1,4.1c0,3.4,0,6.7,0,10.1c0.1,0.4,0.2,0.7,0.3,1.1c-0.1,1.3-0.1,2.7-0.2,4
		c-0.6-1.5-1.5-2.9-1.6-4.5c-0.6-5.1-0.9-10.2-1.3-15.3c0.1-1.7,0.2-3.3,0.3-5C29.1,32,29.6,33.8,30.1,35.6z"/>
	<path class="st2" d="M183.6,43.5c0.3-5.7,0.6-11.3,1-17c0.3,3.4,0.6,6.8,0.8,10.1c-0.3,2.1-0.6,4.2-0.9,6.3
		C184.2,43.1,183.9,43.3,183.6,43.5z"/>
	<path class="st5" d="M30.1,35.6c-0.5-1.8-1-3.7-1.5-5.5c0.2-1.7,0.4-3.5,0.7-5.2C29.5,28.5,29.8,32.1,30.1,35.6z"/>
	<path class="st6" d="M181.5,41.7c-0.2,3.1-0.3,6.2-0.5,9.3c0,1.2-0.1,2.5-0.1,3.7c-0.1,0.3-0.3,0.6-0.4,0.9
		c-0.5,2.9-1.1,5.7-1.6,8.6c-0.4,2.1-0.7,4.3-1.1,6.4c-0.2,1.2-0.5,2.4-0.7,3.6c0.1,0.7,0.1,1.5,0.2,2.2c-0.4,1.3-0.9,2.5-1.3,3.8
		c-4.4,1.5-2.9,4.8-2,7.5c1.8,5.4,4.5,10.6,5.7,16.1c1.8,8.2,2.6,16.5,3.8,24.8c-0.6,0.1-1.3,0.2-1.9,0.1
		c-15.3-2.5-28.9,0.7-40.1,11.7c-1.8,1.8-2.4,0.9-3.2-0.9c-1.7-3.9-3.6-7.8-5.5-11.7c-0.3-0.3-0.6-0.6-0.9-0.8l0,0
		c-0.3-0.3-0.7-0.6-1-0.9l0,0c-0.3-0.3-0.6-0.6-1-1l0,0c-0.3-0.3-0.6-0.6-1-1l0,0c-0.3-0.3-0.6-0.6-1-1l0,0c-0.3-0.3-0.7-0.6-1-0.9
		l0,0c-0.3-0.3-0.6-0.7-0.9-1l0,0c1.3-0.6,2.7-1.2,4-1.9c1.5-0.8,3-1.7,4.5-2.6c3-0.8,6.1-1.5,9.1-2.3c3.6,3.3,5.7-0.8,8-2
		c4.3-2.2,5.1-10.8,1.7-13.8c-1,0-2.3-0.5-3.1-0.1c-8.9,4.2-18.2,7.7-25.1,15.1c-2.8,2.8-6.1,3.2-9.8,2c-0.3-0.1-0.6,0.1-0.9,0.1
		c-0.5-0.1-1-0.2-1.5-0.3c-0.9-0.1-1.9-0.1-2.8-0.2c-0.6,0-1.2-0.1-1.8-0.1c-3.6-3-6.9-0.7-10.3,0.6l0,0c-1.7,0.3-3.3,0.7-5,0.7
		c-1.1,0-2.7-0.4-3.1-1.2c-6.1-11.7-17.9-14.8-28.8-19c-2-0.8-3.1,0.2-1.7,2.4c-0.2,0.6-0.4,1.2-0.5,1.8c-2.6,4.1-1.6,10,2.5,11.8
		c5.3,2.3,10.9,4.1,16.4,5.8c3.3,1,6.8,1.6,10.1,2.4l-0.2,0c-0.3,0.3-0.7,0.7-1,1c-3.4,4.6-7.3,8.8-10.2,13.7
		c-3.7,6.2-3.4,6.4-8.7,0.9c-2-1.2-4-2.3-5.9-3.5c-0.6-0.3-1.1-0.6-1.7-0.9c-1.2-1.1-2.2-2.9-3.5-3.2c-6.5-1.2-13-2.5-19.6-2.7
		c-5.1-0.2-6.2-0.9-4.6-6.1c0.2-0.7,0.4-1.5,0.4-2.3c0.3-8.6,3.2-16.5,6.8-24.2c1.4-2.9,2.6-6.7,2-9.7c-2.2-10.7-5.2-21.3-7.9-32
		c-0.3-0.9-0.6-1.8-0.9-2.7c0-0.3,0.1-0.6,0.1-0.9c0.3-1.9,0.8-3.8,0.9-5.7c0.3-6.3,0.4-12.7,0.5-19c0-0.2-0.4-0.4-0.6-0.7
		c0-0.3,0.1-0.7,0.1-1c1.9-2.9,4.3-4.1,7.6-2.2c0.8,0.5,1.5,1.1,2.4,1.4c3.3,1.4,6.7,2.6,10.1,3.9l0.3,0.3c0.7,5.3,4.7,7.5,8.9,9.7
		l-0.1,0c0.3,0.3,0.6,0.7,0.9,1l0,0c0.3,0.3,0.6,0.7,0.9,1l0,0c0.3,0.3,0.6,0.6,0.9,0.9l0,0c0.3,0.3,0.6,0.6,0.9,0.9l0,0
		c0.3,0.3,0.6,0.6,0.9,0.9c0.3,0.3,0.6,0.6,1,1c1,0.9,2,1.8,2.9,2.7l0,0c2.3,5.9,5.3,7.1,10.4,4.3c0.8-0.5,2-0.4,2.9-0.7
		c2.8-0.8,5.6-1.7,8.4-2.6c0.9-0.2,1.8-0.5,2.7-0.7c3.5,0.3,6.9,0.5,10.4,0.8c5.1,0.5,10.3,0.9,15.4,1.4c1.7-0.2,3.5-0.4,5.2-0.6
		c0.3,0.1,0.5,0.1,0.8,0c3.5,4.6,9.3,5.7,13,2.1c5.1-4.9,10-10.2,15-15.3c1.6-1.7,3.3-3.3,5-4.9c0.3-0.5,0.7-1,1-1.4c0,0,0,0,0,0
		c2.9-0.3,4.5-1.8,4.4-4.8c1.5-1,3-2.1,4.6-2.9c5.9-2.7,8.2-1.6,10.7,4.7c0.2,1.3,0.5,2.6,0.7,4c0,3.7,0,7.4,0,11.1
		C180.5,38.7,178.4,39.6,181.5,41.7z M146.6,79.6l0-0.3L146.6,79.6c-0.6-0.4-1.2-0.7-1.8-1.1l0.1,0c-3.3-2.1-6.9-2.3-9.5,0.4
		c-2.4,2.5-3.7,6-5.2,9.2c-0.2,0.4,1.2,1.5,1.8,2.2l-0.1-0.1c0.3,0.3,0.7,0.7,1,1c0.3,0,0.5,0.1,0.8,0.1c2.7,2.6,13,3.8,15.5,1.7
		c0.6-0.5,0.6-1.7,0.9-2.6c0-2,0-3.9,0-5.9c1.3-2.7-0.3-3.7-2.5-4.3l0.1-0.3l0,0.3C147.2,80.1,146.9,79.8,146.6,79.6z M74.4,78.3
		L74.4,78.3c-5.2-2.3-8.8-1.2-9.8,3l0,0c-4,1.5-3.3,5.1-3,8.1c0.1,1.1,2.3,2,3.6,2.9c1.6,0.1,3.2,0.1,4.7,0.2c2.8-0.3,5.6-0.6,8.4-1
		c0.9-0.4,1.8-0.7,2.7-1.1c2.8-4.4,1.7-8.3-2.8-9.3l0,0C78.6,77.9,76.5,78.1,74.4,78.3z M176.9,38c-0.1-8-3.4-10.3-8.3-8.2
		c-9,3.9-15.2,11.3-21.8,18.1c-0.5,0.5,0,2.7,0.7,3.2c7.3,6,14.1,12.2,18.9,20.5c1.2,2,3,2.5,3.9-0.5c0.9-2.9,1.8-5.8,2.3-8.7
		C174.3,53.5,175.8,44.5,176.9,38z M36.5,37.2c0.6,4.1,0.8,6.9,1.3,9.6c1.7,8.4,3.5,16.7,5.3,25.1c0.5,2.4,1,3,2.7,0.4
		c5.5-8.5,12.4-15.7,20.6-21.7c0.5-0.4,0.3-2.9-0.4-3.6c-5.7-5.1-11.4-10.1-17.4-14.9c-2.6-2-5.9-5.4-9-2.8
		C37.5,31.1,37.3,35.2,36.5,37.2z"/>
	<path class="st2" d="M183.4,128.6c-1.2-8.3-2-16.7-3.8-24.8c-1.2-5.5-4-10.7-5.7-16.1c-0.9-2.7-2.4-6,2-7.5
		c0.1,10.6,6.4,19.5,8,29.6c0.5,3.5,1.6,7,2.5,10.5c0.1,3.1,0.1,6.3,0.2,9.4c-0.1,12.5-7.3,21.1-15.7,29.3
		c-12.6,12.3-27.3,21.1-43.8,26.7c-0.8,0.3-1.8,0.3-2.7,0.4c-0.1-0.8-0.1-1.5-0.2-2.3c14.6-5.5,28.3-12.6,40.4-22.6
		C174.9,152.7,183.7,143.3,183.4,128.6z"/>
	<path class="st4" d="M27.7,138.4c-3.6-10.4-1.2-20.7,1.2-30.8c1.6-6.5,4.4-12.6,6.4-19c0.7-2.4,0.6-5.1,0.9-7.6
		c0.8-0.3,1.6-0.5,2.5-0.8c2.3,2.1,2.2,4.4,1.1,7.2c-2.4,6-4.8,12.1-6.7,18.3c-1.7,5.7-2.8,11.7-4.2,17.6c-0.5,1.4-1.4,2.7-1.4,4.1
		C27.4,131,27.6,134.7,27.7,138.4z"/>
	<path class="st4" d="M76.3,181.7C64.7,177,54.5,170.2,45.1,162c0.4-0.4,0.8-0.8,1.2-1.2c6.3,4.4,12.6,8.7,18.8,13.1
		c0.7,0.1,1.4,0.2,2,0.3c0.2,0,0.4,0.1,0.5,0.3c0.5,0.3,1,0.5,1.5,0.8l0.2,0.1c0.5,0.3,1.1,0.6,1.6,0.9l0.2,0.1
		c0.5,0.5,1,0.9,1.5,1.4c0.6,0.3,1.2,0.6,1.8,0.8c0.7,0.9,1.3,1.8,2,2.8L76.3,181.7z"/>
	<path class="st2" d="M38.7,80.3c-0.8,0.3-1.6,0.5-2.5,0.8c-0.1-0.6-0.2-1.2-0.2-1.9c0.1-0.1,0.3-0.2,0.3-0.3
		c-0.1-0.2-0.2-0.5-0.4-0.7c-1.6-7.8-3.2-15.5-4.8-23.3c0.1-1.3,0.1-2.7,0.2-4c0.6-0.6,1.2-1.2,1.7-1.8c0.3,0.9,0.6,1.8,0.9,2.7
		c0,2.7-0.5,5.4,0,8C35.3,66.7,37.1,73.5,38.7,80.3z"/>
	<path class="st3" d="M124.2,183.9c0.1,0.8,0.1,1.5,0.2,2.3c-4.7,0.9-9.4,1.9-14.1,2.8c-0.3,0-0.6-0.1-0.9-0.1
		c-0.9,0.1-1.9,0.2-2.8,0.3c-1.9-0.3-3.8-0.7-5.7-1c-0.6,0-1.3,0-1.9,0c-1.9-1-3.8-1.9-5.7-2.9C103.7,187.2,114,187.2,124.2,183.9z"
		/>
	<path class="st3" d="M27.7,138.4c-0.1-3.7-0.3-7.3-0.2-11c0-1.4,0.9-2.7,1.4-4.1c0.2,1.6,0.4,3.2,0.6,4.8c-1,7.1,1.8,13.1,5.2,19
		c-0.2,0.2-0.4,0.5-0.7,0.7c-0.6,0-1.2,0-1.7-0.1l-0.1-0.1c-0.3-0.6-0.7-1.1-1-1.7l0,0c-0.6-1.3-1.3-2.5-1.9-3.8l0,0
		c-0.3-0.6-0.5-1.3-0.8-1.9C28.2,139.6,28,139,27.7,138.4z"/>
	<path class="st2" d="M46.3,160.8c-0.4,0.4-0.8,0.8-1.2,1.2c-2.7-3.2-5.5-6.4-8.2-9.6c0,0,0.3,0,0.3,0l0.3,0
		C40.5,155.2,43.4,158,46.3,160.8z"/>
	<path class="st2" d="M177.2,76.5c-0.1-0.7-0.1-1.5-0.2-2.2c0.2-1.2,0.5-2.4,0.7-3.6c0.4-2.1,0.7-4.3,1.1-6.4
		c0.3-0.1,0.5-0.2,0.8-0.4c0.7-0.6,1.4-1.1,2.1-1.7C181.9,67.4,181.5,72.6,177.2,76.5z"/>
	<path class="st4" d="M93.2,185.3c1.9,1,3.8,1.9,5.7,2.9c0,0.3,0,0.5,0,0.8c-6.9-2.1-13.8-4.2-20.7-6.4l0.2-0.3
		c3.4,0.7,6.9,1.4,10.3,2l-0.1-0.1c1.4,0.3,2.9,0.7,4.3,1L93.2,185.3z"/>
	<path class="st5" d="M183.6,43.5c0.3-0.2,0.6-0.3,0.9-0.5c-0.5,3-0.9,5.9-1.4,8.9C183.3,49,183.4,46.3,183.6,43.5z"/>
	<path class="st3" d="M37.6,152.4l-0.3,0c0,0-0.3,0-0.3,0c-0.6-0.4-1.3-0.7-1.9-1.1c-0.3-0.3-0.5-0.5-0.8-0.8c0,0-0.1-0.2-0.1-0.2
		c0-0.9-0.1-1.7-0.1-2.6c0.2-0.2,0.4-0.5,0.7-0.7C35.7,148.9,36.6,150.7,37.6,152.4z"/>
	<path class="st5" d="M186.6,129.8c-0.1-3.1-0.1-6.3-0.2-9.4C186.4,123.5,186.5,126.6,186.6,129.8z"/>
	<path class="st4" d="M100.8,188.2c1.9,0.3,3.8,0.7,5.7,1c-1.9-0.1-3.8-0.2-5.7-0.3C100.8,188.7,100.8,188.4,100.8,188.2z"/>
	<path class="st4" d="M29.3,142.2c0.6,1.3,1.3,2.5,1.9,3.8C30.6,144.7,29.9,143.4,29.3,142.2z"/>
	<path class="st4" d="M34,147.8c0,0.9,0.1,1.7,0.1,2.6c-0.6-0.9-1.2-1.8-1.8-2.6C32.9,147.8,33.5,147.8,34,147.8z"/>
	<path class="st2" d="M181.7,60.5c0.3-1,0.7-1.9,1-2.9C182.4,58.6,182.1,59.6,181.7,60.5z"/>
	<path class="st4" d="M78.2,182.6c-0.6-0.3-1.3-0.6-1.9-0.9c0,0,0.2-0.3,0.2-0.3c0.6,0.3,1.3,0.6,1.9,0.9
		C78.4,182.3,78.2,182.6,78.2,182.6z"/>
	<path class="st2" d="M100.8,188.2c0,0.2,0,0.5,0,0.7c-0.6,0-1.3,0-1.9,0c0-0.3,0-0.5,0-0.8C99.6,188.2,100.2,188.2,100.8,188.2z"/>
	<path class="st4" d="M28.5,140.2c0.3,0.6,0.5,1.3,0.8,1.9C29,141.5,28.8,140.9,28.5,140.2z"/>
	<path class="st4" d="M31.2,145.9c0.3,0.6,0.7,1.1,1,1.7C31.9,147,31.5,146.5,31.2,145.9z"/>
	<path class="st4" d="M34.3,150.6c0.3,0.3,0.5,0.5,0.8,0.8C34.8,151.1,34.5,150.8,34.3,150.6z"/>
	<path class="st4" d="M36,78.2c0.1,0.2,0.3,0.4,0.4,0.7c0,0.1-0.2,0.2-0.3,0.3C36,78.8,36,78.5,36,78.2z"/>
	<path class="st4" d="M109.3,188.9c0.3,0,0.6,0.1,0.9,0.1C109.9,188.9,109.6,188.9,109.3,188.9z"/>
	<path class="st5" d="M161,27c-1.7,1.6-3.4,3.3-5,4.9c-5,5.1-9.8,10.3-15,15.3c-3.8,3.6-9.6,2.5-13-2.1c1.8,0.1,4.2-0.5,5.2,0.4
		c3.5,3.3,5.1,0.3,7.1-1.7c6.7-6.4,13.5-12.8,20.3-19.1c0,0.3,0.2,0.6,0.4,0.8C161,26.1,161,26.5,161,27z"/>
	<path class="st5" d="M122,45.7c-5.1-0.5-10.3-0.9-15.4-1.4c-2.9-0.4-5.8-0.7-8.7-1.1c0.3-0.4,0.7-0.7,1-1.1
		c7.6,0.4,15.2,0.8,22.8,1.2C121.8,44.2,121.9,45,122,45.7z"/>
	<path class="st7" d="M122,45.7c-0.1-0.8-0.2-1.5-0.3-2.3c1.8,0.6,3.7,1.1,5.5,1.7C125.5,45.3,123.7,45.5,122,45.7z"/>
	<path class="st7" d="M166.3,20.8c0.1,3-1.5,4.5-4.4,4.8c0-0.6,0-1.1,0-1.7C163.4,22.9,164.8,21.8,166.3,20.8z"/>
	<path class="st5" d="M182.4,26.6c-0.2-1.3-0.5-2.6-0.7-4c0.7,0,1.3,0.1,2,0.1C183.2,24,182.8,25.3,182.4,26.6z"/>
	<path class="st5" d="M161.9,23.9c0,0.6,0,1.1,0,1.7c0,0,0,0,0,0c-0.3,0-0.7,0-1,0c-0.2-0.2-0.3-0.5-0.4-0.8
		C161,24.5,161.4,24.2,161.9,23.9z"/>
	<path class="st5" d="M54.2,24.9c-3.4-1.3-6.7-2.6-10.1-3.9c-0.8-0.3-1.6-1-2.4-1.4c-3.3-1.9-5.7-0.7-7.6,2.2
		c0.3-1.5,0.6-3.1,0.9-4.6C43.9,13.7,48.7,20.2,54.2,24.9z"/>
	<path class="st5" d="M93.5,44.3c-2.8,0.9-5.6,1.8-8.4,2.6c-1,0.3-2.1,0.2-2.9,0.7c-5.1,2.8-8.1,1.6-10.4-4.3
		c5.1,4.7,10.4,1.2,15.7,0.6C89.4,43.7,91.5,44.2,93.5,44.3z"/>
	<path class="st5" d="M63.3,34.9c-4.1-2.1-8.2-4.4-8.9-9.7c3,3,6,5.9,9,8.9C63.4,34.4,63.4,34.6,63.3,34.9z"/>
	<path class="st7" d="M63.3,34.9c0.1-0.2,0.1-0.5,0.1-0.7c2.3,2.1,4.7,4.3,7,6.4c-0.5,0-1.1,0.1-1.6,0.1c-0.3-0.3-0.6-0.6-1-1
		c-0.3-0.3-0.6-0.6-0.9-0.9l0,0c-0.3-0.3-0.6-0.6-0.9-0.9l0,0c-0.3-0.3-0.6-0.6-0.9-0.9l0,0c-0.3-0.3-0.6-0.7-0.9-1l0,0
		C63.9,35.6,63.6,35.2,63.3,34.9L63.3,34.9z"/>
	<path class="st7" d="M97.9,43.3c2.9,0.4,5.8,0.7,8.7,1.1c-3.5-0.3-6.9-0.5-10.4-0.8C96.8,43.5,97.3,43.4,97.9,43.3z"/>
	<path class="st5" d="M68.9,40.6c0.5,0,1.1-0.1,1.6-0.1c0.4,0.9,0.9,1.9,1.3,2.8C70.8,42.5,69.8,41.6,68.9,40.6z"/>
	<path class="st5" d="M34,22.8c0.2,0.2,0.6,0.4,0.6,0.7c-0.1,6.3-0.3,12.7-0.5,19c-0.1,1.9-0.6,3.8-0.9,5.7
		c-0.1-0.6-0.2-1.3-0.3-1.9c-0.2-0.6-0.4-1.3-0.7-1.9c-0.1-1.2-0.1-2.4-0.2-3.7c0.1-4.6,0-9.3,0.3-13.9C32.4,25.4,33.4,24.1,34,22.8
		z"/>
	<path class="st3" d="M32.9,46.2c0.1,0.6,0.2,1.3,0.3,1.9c0,0.3-0.1,0.6-0.1,0.9c-0.6,0.6-1.2,1.2-1.7,1.8c-0.1-0.4-0.2-0.7-0.3-1.1
		c0.1-3.1,0.1-6.1,0.2-9.2c0.3,0,0.5,0,0.8,0c0.1,1.2,0.1,2.4,0.2,3.7C32.4,45,32.7,45.6,32.9,46.2z"/>
	<path class="st5" d="M31.2,40.6c-0.1,3.1-0.1,6.1-0.2,9.2c0-3.4,0-6.7,0-10.1C31,40.1,31.1,40.4,31.2,40.6z"/>
	<path class="st7" d="M179.6,63.9c-0.3,0.1-0.5,0.2-0.8,0.4c0.5-2.9,1.1-5.7,1.6-8.6C180.2,58.4,179.9,61.1,179.6,63.9z"/>
	<path class="st5" d="M181.5,41.7c-3.1-2-1-3,0.8-4C182.1,39,181.8,40.3,181.5,41.7z"/>
	<path class="st2" d="M180.9,54.7c0-1.2,0.1-2.5,0.1-3.7C181,52.2,180.9,53.5,180.9,54.7z"/>
	<path class="st7" d="M37.6,152.4c-1-1.8-1.9-3.5-2.9-5.3c-3.4-5.9-6.2-11.9-5.2-19c10.6-1.6,20.9-0.8,30.8,3.8
		c0.6,0.3,1.1,0.6,1.7,0.9c2,1.2,4,2.3,5.9,3.5c5.3,5.5,5,5.3,8.7-0.9c2.9-4.9,6.8-9.2,10.2-13.7c0.3-0.3,0.7-0.7,1-1l0.2,0
		c3.4-1.6,6.7-3.1,10.1-4.7l0,0c3.4-0.2,6.9-0.4,10.3-0.6c0.6,0,1.2,0.1,1.8,0.1c0.9,0.1,1.9,0.1,2.8,0.2c0.5,0.1,1,0.2,1.5,0.3
		c3.9,1.8,7.7,3.7,11.6,5.5l0,0c0.3,0.3,0.6,0.7,0.9,1l0,0c0.3,0.3,0.7,0.6,1,0.9l0,0c0.3,0.3,0.6,0.6,1,1l0,0c0.3,0.3,0.6,0.6,1,1
		l0,0c0.3,0.3,0.6,0.6,1,1l0,0c0.3,0.3,0.7,0.6,1,0.9l0,0c0.3,0.3,0.6,0.6,0.9,0.8c1.8,3.9,3.7,7.7,5.5,11.7
		c0.8,1.8,1.4,2.6,3.2,0.9c11.3-11.1,24.9-14.2,40.1-11.7c0.6,0.1,1.2-0.1,1.9-0.1c0.3,14.7-8.6,24.1-18.9,32.7
		c-12.1,10-25.8,17.1-40.4,22.6c-10.2,3.3-20.5,3.3-30.9,1.4l-0.3,0c-1.4-0.3-2.9-0.7-4.3-1l0.1,0.1c-4.7-1.9-9.5-3.8-14.2-5.7
		c-0.6-0.3-1.2-0.6-1.8-0.8c-0.5-0.5-1-0.9-1.5-1.4l-0.2-0.1c-0.5-0.3-1.1-0.6-1.6-0.9l-0.2-0.1c-0.5-0.3-1-0.5-1.5-0.8
		c-0.1-0.2-0.3-0.3-0.5-0.3c-0.7-0.1-1.4-0.2-2-0.3c-6.3-4.4-12.6-8.7-18.8-13.1C43.4,158,40.5,155.2,37.6,152.4z M105.6,155.4
		c0.9,0,1.9,0,2.8,0c4.1,0.2,9.7-2,8.9,5.8c0,0.4,0.5,0.8,0.7,1.1c0.3-0.3,0.6-0.7,0.8-1.1c1.3-2.3,2.5-4.7,3.7-7
		c0.3-0.5,0.5-1,0.8-1.6c-0.7-0.1-1.4-0.4-2-0.3c-2.8,0.4-5.5,1.1-8.3,1.4c-3.5,0.3-4.9-2-5.7-5c-0.7-2.9-0.1-4.4,3-5.6
		c6-2.3,8.3-7.1,7.6-14c-0.3-3.6-2.2-5.4-5.6-5.6c-3.1-0.2-6.3-0.1-9.4-0.1c-7.3,0-9.6,2.7-8.4,9.9c0.7,4.5,2.9,8.1,7.2,9.7
		c3.1,1.1,4.8,3.2,3.5,5.9c-1,2-3.4,4.2-5.5,4.6c-2.5,0.5-5.4-0.8-8.1-1.3c-0.7-0.1-1.4-0.2-2.2-0.3c0.2,0.7,0.2,1.4,0.5,2.1
		c1.1,2.2,2.2,4.4,3.4,6.5c0.2,0.4,0.8,0.7,1.2,1.1c0.2-0.5,0.6-1.1,0.5-1.6c-1.1-5,2.1-4.9,5.4-4.7
		C102.1,155.5,103.9,155.4,105.6,155.4z M106.5,158.9c0-0.2-0.1-0.3-0.1-0.5c-2,0.5-3.9,0.9-5.9,1.4c2.1,0.4,4.3,1.1,6.4,1
		c1.7,0,3.3-1,5-1.6c-1.6-0.1-3.3-0.2-4.9-0.3C106.8,158.9,106.7,158.9,106.5,158.9z"/>
	<path class="st8" d="M176.9,38c-1.1,6.5-2.6,15.5-4.2,24.5c-0.5,3-1.4,5.9-2.3,8.7c-0.9,2.9-2.8,2.5-3.9,0.5
		c-4.8-8.3-11.6-14.5-18.9-20.5c-0.7-0.6-1.2-2.8-0.7-3.2c6.5-6.9,12.7-14.2,21.8-18.1C173.5,27.7,176.7,30,176.9,38z"/>
	<path class="st8" d="M36.5,37.2c0.7-2,1-6.1,3.2-7.9c3.2-2.6,6.4,0.8,9,2.8c6,4.7,11.7,9.8,17.4,14.9c0.7,0.6,0.9,3.2,0.4,3.6
		c-8.2,6-15.1,13.2-20.6,21.7c-1.7,2.7-2.2,2.1-2.7-0.4c-1.8-8.3-3.6-16.7-5.3-25.1C37.3,44.1,37.1,41.3,36.5,37.2z"/>
	<path class="st3" d="M143.8,114.7c-3,0.8-6.1,1.5-9.1,2.3c-2.1,0.2-4.2,0.2-6.3,0.5c-3.2,0.5-4.3-0.4-3.1-3.6
		c6.9-7.4,16.2-11,25.1-15.1c0.8-0.4,2.1,0,3.1,0.1c0.9,9.8,0.2,10.9-8.5,15.1C144.5,114.2,144.2,114.5,143.8,114.7z"/>
	<path class="st5" d="M60.3,131.9c-9.8-4.6-20.2-5.4-30.8-3.8c-0.2-1.6-0.4-3.2-0.6-4.8c1.4-5.9,2.4-11.8,4.2-17.6
		c1.9-6.2,4.3-12.3,6.7-18.3c1.1-2.7,1.2-5.1-1.1-7.2c-1.6-6.8-3.4-13.6-4.8-20.4c-0.5-2.6,0-5.3,0-8c2.7,10.6,5.7,21.2,7.9,32
		c0.6,3-0.6,6.7-2,9.7c-3.6,7.7-6.5,15.6-6.8,24.2c0,0.8-0.2,1.5-0.4,2.3c-1.6,5.2-0.5,5.9,4.6,6.1c6.6,0.2,13.1,1.5,19.6,2.7
		C58.2,129,59.2,130.8,60.3,131.9z"/>
	<path class="st9" d="M80.9,90.5c-0.9,0.4-1.8,0.7-2.7,1.1c-2.8,0.3-5.6,0.6-8.4,1c-1.6-0.1-3.2-0.1-4.7-0.2
		c-3.3-3.5-1.7-7.3-0.6-11c0,0,0,0,0,0c3.3-1,6.6-2,9.9-3c0,0-0.1,0-0.1,0c1.3,0.9,2.5,1.9,3.8,2.8c0,0,0,0,0,0
		C79.1,84.2,80,87.3,80.9,90.5z"/>
	<path class="st9" d="M133.7,91.5c-0.3-0.1-0.5-0.1-0.8-0.1c-0.3-0.3-0.7-0.7-1-1l0.1,0.1c0-7.8,4.8-12.3,12.9-11.8l-0.1,0
		c0.6,0.3,1.2,0.7,1.7,1l0-0.3l0,0.3c0.3,0.3,0.6,0.6,1,0.8l0-0.3l-0.1,0.3c0.8,1.4,1.7,2.9,2.5,4.3c0,2,0,3.9,0,5.9
		c-3.5,0.6-6.9,1.3-10.4,1.6C137.6,92.3,135.6,91.7,133.7,91.5z"/>
	<path class="st5" d="M98.1,116c-3.4,1.6-6.7,3.1-10.1,4.7c-3.4-0.8-6.8-1.4-10.1-2.4c-5.5-1.8-11.1-3.5-16.4-5.8
		c-4.2-1.8-5.2-7.7-2.5-11.8c0.6,4.5-0.5,10,6.1,11.4l0,0c1,0.5,1.9,1.1,2.9,1.6c5.3,1.3,10.5,2.6,15.9,3.7c1,0.2,2.2-0.5,3.4-0.8
		c-0.3-1.2-0.2-2.8-0.9-3.4c-3.1-2.5-6.5-4.6-9.8-6.9c-1.3-0.7-2.6-1.5-3.9-2.2c-0.9-0.5-1.9-1-2.8-1.5C66.5,101,64,97.3,59.5,99
		c-1.4-2.2-0.3-3.1,1.7-2.4c11,4.2,22.7,7.3,28.8,19c0.4,0.8,2.1,1.1,3.1,1.2C94.8,116.7,96.5,116.3,98.1,116z"/>
	<path class="st5" d="M125.2,113.9c-1.2,3.2-0.1,4.1,3.1,3.6c2.1-0.4,4.2-0.4,6.3-0.5c-1.5,0.9-3,1.8-4.5,2.6
		c-1.3,0.7-2.6,1.3-4,1.9c-3.9-1.8-7.7-3.7-11.6-5.5c0.3,0,0.6-0.2,0.9-0.1C119.1,117.1,122.4,116.7,125.2,113.9z"/>
	<path class="st5" d="M143.8,114.7c0.4-0.2,0.8-0.5,1.2-0.7c8.8-4.2,9.4-5.3,8.5-15.1c3.4,3.1,2.6,11.6-1.7,13.8
		C149.4,113.9,147.4,118,143.8,114.7z"/>
	<path class="st5" d="M144.8,78.5c-8-0.4-12.8,4-12.9,11.8c-0.7-0.8-2-1.9-1.8-2.2c1.5-3.2,2.9-6.7,5.2-9.2
		C137.9,76.3,141.6,76.4,144.8,78.5z"/>
	<path class="st2" d="M59.5,99c4.5-1.7,7,2.1,10.2,3.7c-1.9-0.6-3.8-1.1-5.6-1.9c-2.8-1.3-4-0.1-3.6,2.4c0.3,2,1.4,3.9,2.3,5.7
		c0.6,1.1,1.5,2.1,2.3,3.1c-6.6-1.4-5.4-6.8-6.1-11.4C59.2,100.2,59.3,99.6,59.5,99z"/>
	<path class="st5" d="M133.7,91.5c2,0.3,4,0.9,5.9,0.7c3.5-0.3,7-1,10.4-1.6c-0.3,0.9-0.3,2.1-0.9,2.6
		C146.7,95.3,136.3,94,133.7,91.5z"/>
	<path class="st5" d="M64.5,81.3c-1,3.7-2.7,7.5,0.6,11c-1.3-1-3.4-1.8-3.6-2.9C61.1,86.4,60.5,82.9,64.5,81.3z"/>
	<path class="st5" d="M80.9,90.5c-0.9-3.1-1.9-6.2-2.8-9.3C82.6,82.2,83.8,86.1,80.9,90.5z"/>
	<path class="st5" d="M74.5,78.3c-3.3,1-6.6,2-9.9,3C65.6,77.2,69.2,76.1,74.5,78.3z"/>
	<path class="st5" d="M108.4,115.4c-3.4,0.2-6.9,0.4-10.3,0.6C101.5,114.7,104.8,112.4,108.4,115.4z"/>
	<path class="st5" d="M69.9,92.5c2.8-0.3,5.6-0.6,8.4-1C75.5,91.9,72.7,92.2,69.9,92.5z"/>
	<path class="st5" d="M68,136.4c-2-1.2-4-2.3-5.9-3.5C64,134,66,135.2,68,136.4z"/>
	<path class="st5" d="M150,84.7c-0.8-1.4-1.7-2.9-2.5-4.3C149.7,81,151.3,82,150,84.7z"/>
	<path class="st5" d="M78.2,81.1c-1.3-0.9-2.5-1.9-3.8-2.8C76.5,78.1,78.6,77.9,78.2,81.1z"/>
	<path class="st7" d="M177.7,70.6c-0.2,1.2-0.5,2.4-0.7,3.6C177.2,73,177.5,71.8,177.7,70.6z"/>
	<path class="st5" d="M113,115.7c-0.9-0.1-1.9-0.1-2.8-0.2C111.2,115.6,112.1,115.7,113,115.7z"/>
	<path class="st5" d="M146.5,79.6c-0.6-0.3-1.2-0.7-1.7-1C145.4,78.9,145.9,79.2,146.5,79.6z"/>
	<path class="st5" d="M67,38.8c0.3,0.3,0.6,0.6,0.9,0.9C67.6,39.4,67.3,39.1,67,38.8z"/>
	<path class="st5" d="M66,37.8c0.3,0.3,0.6,0.6,0.9,0.9C66.7,38.4,66.3,38.1,66,37.8z"/>
	<path class="st5" d="M87.8,120.7c-0.3,0.3-0.7,0.7-1,1C87.2,121.4,87.5,121,87.8,120.7z"/>
	<path class="st5" d="M147.5,80.4c-0.3-0.3-0.6-0.6-1-0.8C146.9,79.8,147.2,80.1,147.5,80.4z"/>
	<path class="st5" d="M127.1,122.5c-0.3-0.3-0.6-0.7-0.9-1C126.5,121.8,126.8,122.2,127.1,122.5z"/>
	<path class="st5" d="M128,123.4c-0.3-0.3-0.7-0.6-1-0.9C127.4,122.8,127.7,123.1,128,123.4z"/>
	<path class="st5" d="M65.1,36.9c0.3,0.3,0.6,0.6,0.9,0.9C65.7,37.5,65.4,37.2,65.1,36.9z"/>
	<path class="st5" d="M131.8,127.1c-0.3-0.3-0.7-0.6-1-0.9C131.2,126.5,131.5,126.8,131.8,127.1z"/>
	<path class="st5" d="M63.3,34.9c0.3,0.3,0.6,0.7,0.9,1C63.9,35.6,63.6,35.2,63.3,34.9z"/>
	<path class="st7" d="M161,25.6c0.3,0,0.7,0,1,0c-0.3,0.5-0.7,1-1,1.4C161,26.5,161,26.1,161,25.6z"/>
	<path class="st5" d="M132.8,127.9c-0.3-0.3-0.6-0.6-0.9-0.8C132.2,127.4,132.5,127.6,132.8,127.9z"/>
	<path class="st5" d="M130.9,126.2c-0.3-0.3-0.6-0.6-1-1C130.2,125.6,130.6,125.9,130.9,126.2z"/>
	<path class="st5" d="M64.2,35.9c0.3,0.3,0.6,0.7,0.9,1C64.8,36.5,64.5,36.2,64.2,35.9z"/>
	<path class="st5" d="M129.9,125.3c-0.3-0.3-0.6-0.6-1-1C129.3,124.6,129.6,124.9,129.9,125.3z"/>
	<path class="st5" d="M131.9,90.3c0.3,0.3,0.7,0.7,1,1C132.6,91,132.2,90.7,131.9,90.3z"/>
	<path class="st5" d="M129,124.3c-0.3-0.3-0.6-0.6-1-1C128.4,123.7,128.7,124,129,124.3z"/>
	<path class="st3" d="M74.5,178.7c4.7,1.9,9.5,3.8,14.2,5.7c-3.4-0.7-6.9-1.4-10.3-2c-0.6-0.3-1.3-0.6-1.9-0.9
		C75.8,180.5,75.2,179.6,74.5,178.7z"/>
	<path class="st2" d="M65.1,174c0.7,0.1,1.4,0.2,2,0.3C66.5,174.2,65.8,174.1,65.1,174z"/>
	<path class="st2" d="M69.4,175.5c0.5,0.3,1.1,0.6,1.6,0.9C70.5,176,69.9,175.8,69.4,175.5z"/>
	<path class="st2" d="M71.2,176.4c0.5,0.5,1,0.9,1.5,1.4C72.2,177.3,71.7,176.9,71.2,176.4z"/>
	<path class="st2" d="M67.7,174.5c0.5,0.3,1,0.5,1.5,0.8C68.7,175.1,68.2,174.8,67.7,174.5z"/>
	<path class="st3" d="M88.6,184.3c1.4,0.3,2.9,0.7,4.3,1C91.5,184.9,90,184.6,88.6,184.3z"/>
	<path class="st2" d="M32.9,46.2c-0.2-0.6-0.4-1.3-0.7-1.9C32.4,45,32.7,45.6,32.9,46.2z"/>
	<path class="st3" d="M105.6,155.4c-1.7,0-3.5,0.1-5.2,0c-3.4-0.2-6.5-0.3-5.4,4.7c0.1,0.5-0.3,1.1-0.5,1.6
		c-0.4-0.4-0.9-0.7-1.2-1.1c-1.2-2.1-2.3-4.3-3.4-6.5c-0.3-0.6-0.3-1.4-0.5-2.1c0.7,0.1,1.4,0.2,2.2,0.3c2.7,0.5,5.6,1.8,8.1,1.3
		c2.1-0.4,4.6-2.6,5.5-4.6c1.3-2.7-0.4-4.8-3.5-5.9c-4.3-1.6-6.5-5.2-7.2-9.7c-1.2-7.2,1.1-9.9,8.4-9.9c3.1,0,6.3-0.1,9.4,0.1
		c3.5,0.2,5.3,2,5.6,5.6c0.6,6.9-1.6,11.7-7.6,14c-3.1,1.2-3.7,2.7-3,5.6c0.8,3.1,2.2,5.3,5.7,5c2.8-0.2,5.5-1,8.3-1.4
		c0.6-0.1,1.4,0.2,2,0.3c-0.3,0.5-0.5,1.1-0.8,1.6c-1.2,2.3-2.5,4.7-3.7,7c-0.2,0.4-0.6,0.7-0.8,1.1c-0.2-0.4-0.7-0.8-0.7-1.1
		c0.8-7.8-4.8-5.6-8.9-5.8C107.5,155.4,106.5,155.4,105.6,155.4z"/>
	<path class="st2" d="M106.5,158.9c0.2,0,0.3,0,0.5,0c1.6,0.1,3.3,0.2,4.9,0.3c-1.7,0.6-3.3,1.5-5,1.6c-2.1,0.1-4.2-0.6-6.4-1
		c2-0.5,3.9-0.9,5.9-1.4C106.4,158.6,106.5,158.8,106.5,158.9z"/>
	<path class="st3" d="M65,112.1c-0.8-1-1.7-2-2.3-3.1c-0.9-1.9-2-3.8-2.3-5.7c-0.3-2.5,0.8-3.8,3.6-2.4c1.8,0.8,3.7,1.3,5.6,1.9
		c0.9,0.5,1.9,1,2.8,1.5c1.3,0.7,2.6,1.5,3.9,2.2c3.3,2.3,6.6,4.4,9.8,6.9c0.7,0.6,0.7,2.2,0.9,3.4c-1.1,0.3-2.4,1-3.4,0.8
		c-5.3-1.1-10.6-2.5-15.9-3.7C67,113.2,66,112.6,65,112.1L65,112.1z"/>
	<path class="st2" d="M76.5,106.4c-1.3-0.7-2.6-1.5-3.9-2.2C73.9,104.9,75.2,105.6,76.5,106.4z"/>
	<path class="st2" d="M65.1,112.1c1,0.5,1.9,1.1,2.9,1.6C67,113.2,66,112.6,65.1,112.1z"/>
</g>
</svg>
