<?xml version="1.0" encoding="utf-8"?>
<!-- Generator: Adobe Illustrator 24.0.1, SVG Export Plug-In . SVG Version: 6.00 Build 0)  -->
<svg version="1.1" id="Layer_1" xmlns="http://www.w3.org/2000/svg" xmlns:xlink="http://www.w3.org/1999/xlink" x="0px" y="0px"
	 viewBox="0 0 128 128" style="enable-background:new 0 0 128 128;" xml:space="preserve">
<style type="text/css">
	.st0{fill:#221B47;}
	.st1{fill:#FEFDFA;}
	.st2{fill:#FDEA94;}
	.st3{fill:#C1C1F9;}
	.st4{fill:#F4CD55;}
	.st5{fill:#7875F7;}
	.st6{fill:#241D48;}
	.st7{fill:#3835C1;}
	.st8{fill:#9594F7;}
</style>
<g>
	<circle class="st0" cx="64.1" cy="64" r="63.9"/>
	<path class="st1" d="M39.4,65.8c-0.4-2.3,0.8-4.7-0.8-6.8c0.1-0.4,0.1-0.8,0.2-1.1c0.5-0.3,1.1-0.6,1.6-0.9c4.5-0.2,9-0.5,13.6-0.7
		l-0.1,0c0,0.9,0.1,1.9,0.1,2.8c0.2,1.2,0.4,2.3,0.5,3.5c0.7,1,1.4,1.9,2.3,3.2c0.4,0.1,1.3,0.2,2.3,0.4c0.2,1.4,0.5,2.8,2.4,2.6
		c-0.8,0.6-1.5,1.3-2.4,1.6c-2.1,0.8-4.6,2.3-6.5,1.7c-2.1-0.6-3.3-0.1-4.8,0.7c-0.9-0.9-1.9-1.8-2.8-2.7l0,0
		C43,68.5,41.2,67.1,39.4,65.8z"/>
	<path class="st2" d="M47.7,72.7c1.5-0.8,2.7-1.3,4.8-0.7c1.8,0.5,4.3-1,6.5-1.7c0.9-0.3,1.6-1.1,2.4-1.6c2.3,0.4,0.8,2.3,1.4,3.4
		c-1,0.5-1.4,2.6-3.1,1.1c-0.1-0.1-0.9,0.8-1.4,1.2c1.9,2-1,2.1-1.2,3.2c-0.4,0.2-0.9,0.7-1.1,0.5c-1.6-0.8-3.3,0.1-4.9,0
		c-0.7-0.4-1.4-0.9-2-1.3c-0.5-0.5-1-0.9-1.4-1.4c0-0.7-0.1-1.4-0.1-2.1C47.6,73.2,47.6,72.9,47.7,72.7z"/>
	<path class="st3" d="M105.6,99.6c0,0.7,0,1.4,0,2.1c-0.1,1.6-0.2,3.1-0.3,4.7c-1.7,0.1-3.2,0.2-4.7,0.2c-0.2,0-0.5,0-0.7,0
		c-0.6-0.1-1.1-0.1-1.8-0.2c-0.1-0.9-0.2-1.9-0.3-3.1c-0.9-0.1-1.9-0.2-3.1-0.4c-0.2-0.7-0.3-1.5-0.5-2.2c-1.2-0.4-2.3-0.7-3.4-1.1
		c0-0.9,0-1.7,0-2.6c-1-0.1-1.8-0.1-2.6-0.2c-0.1-0.2-0.1-0.4-0.2-0.7c0-0.9,0-1.8-0.1-2.8c0.3,0,0.6,0,0.9,0.1l0,0
		c0.1,0.9,0.2,1.7,0.3,2.7c1,0.1,1.8,0.1,2.5,0.1l0,0c0.1,1.1,0.2,2.2,0.2,3.3c1.2,0.1,2.2,0.1,3.2,0.2c0,0,0,0,0,0
		c0.1,0.9,0.2,1.7,0.3,2.6c1.2,0.1,2.2,0.1,3.2,0.1l0,0c0,1.1,0,2.2,0,3.4c1.2,0,2,0,2.8,0c1.1,0,2.2,0,3.3,0c0-2.2,0-3.9,0-5.9
		c-1.1-0.2-2.1-0.4-3.1-0.5c-0.2-1-0.3-1.9-0.4-2.8c-0.9-0.3-1.7-0.6-2.4-0.9c-0.1-0.9-0.2-1.5-0.2-2.2c0.2-0.2,0.4-0.5,0.6-0.7
		c0.1,0.8,0.2,1.6,0.4,2.5c0.8,0.2,1.6,0.3,2.4,0.5c0.2,1.2,0.3,2.2,0.4,2.8C103.6,98.9,104.6,99.2,105.6,99.6z"/>
	<path class="st3" d="M81.2,88.5c0-0.5,0-0.9-0.1-1.4c0.3,0,0.6,0,0.9,0.1l0,0c0.1,0.9,0.2,1.7,0.3,2.8c1.2,0,2.2,0,3.2,0l0,0
		c0,0.9,0.1,1.8,0.1,2.7c-0.1,0.2-0.1,0.4-0.1,0.6c-0.3-0.2-0.6-0.4-0.9-0.6c0-0.6,0-1.2,0-1.9c-1.3-0.1-2.3-0.1-3.3-0.2
		C81.3,89.9,81.3,89.2,81.2,88.5z"/>
	<path class="st4" d="M27.9,56.2c-0.4,0.2-0.8,0.5-1.2,0.7c0.1-0.2,0.2-0.5,0.2-0.6c-0.3-0.4-0.6-0.7-0.9-1.1
		c0.3-0.6,0.7-1.2,1.1-1.8c0.2,0,0.4,0,0.5,0C27.7,54.4,27.8,55.3,27.9,56.2z"/>
	<path class="st5" d="M87.7,93.4c-0.5,0-1,0.1-1.5,0.1c-0.2-0.1-0.5-0.2-0.7-0.3c0-0.2,0-0.4,0.1-0.6C86.3,92.9,87,93.1,87.7,93.4z"
		/>
	<path class="st6" d="M48.3,132C48.4,131.9,48.5,131.8,48.3,132C48.5,131.8,48.4,131.9,48.3,132C48.3,132,48.3,132,48.3,132z"/>
	<path class="st3" d="M70.4,65.5c-0.5,2.2,1.3,1.5,2.5,1.9c0.1,0.7,0.2,1.5,0.4,2.5c2.4-0.4,3.6,0.8,3.3,3.3c1.1,0.1,2,0.2,3.1,0.3
		c0.1,0.9,0.3,1.9,0.4,3.1c0.7,0.1,1.4,0.3,2.4,0.4c0.1,0.9,0.3,1.9,0.4,2.9c1,0.1,1.9,0.2,3,0.3c0.2,0.8,0.3,1.7,0.5,2.6
		c1,0.1,1.9,0.2,3,0.3c0.1,0.9,0.3,1.9,0.4,3.1c0.7,0.1,1.4,0.2,2.2,0.3c0.4,0.8,0.7,1.7,1.1,2.5c0.9,0.1,1.7,0.2,2.7,0.3
		c0.1,1,0.1,1.8,0.1,2.6c-0.2,0.2-0.5,0.4-0.7,0.6c-0.1-0.8-0.2-1.5-0.2-2.4c-1-0.2-1.9-0.3-2.1-0.3c-1.4-1.4-2.4-2.5-3.8-4
		c0-0.1-0.2-1-0.4-2.1c-2.2,0-4.4,0-6.5,0c-0.9,0-1.8,0-2.8,0l0.1,0.1c0-0.9,0-1.9,0-2.8c0-1.1,0-2.2,0-3.4c-1.5,0-2.5,0-3.5,0
		c-1.1,0-2.3-0.1-3.4-0.1l0.1,0.1c-0.1-1.1-0.1-2.2-0.2-3.4c-1-0.1-1.8-0.1-2.6-0.1l0.1,0.1c-0.1-0.9-0.2-1.7-0.3-2.8
		c-1.2,0-2.2,0-3.2,0l0.1,0.1c-0.1-1.1-0.1-2.2-0.2-3.4c-1-0.1-1.8-0.1-2.6-0.1l0.1,0.1c0-0.9-0.1-1.8-0.1-2.7c0-0.8,0-1.7,0-2.7
		c-1.1,0-2,0-2.8,0c-0.2,0-0.4-0.1-0.5-0.2C60,61.2,60,60.2,59.9,59c-1.1-0.1-1.9-0.1-2.6-0.2c0,0,0,0,0,0c-0.1-0.9-0.2-1.7-0.3-2.7
		c-1.2,0-2.2,0-3.2,0l0.1,0c0-0.2-0.1-0.5-0.1-0.7c0.1-1.2,0.3-2.4,0.4-3.7c1.1,0.1,2.2,0.2,3.5,0.4c0.2,1,0.4,2,0.6,2.9
		c0.2-0.1,0.3-0.2,0.5-0.4c1.7,1.4,3.5,2.7,5.3,4.1c0.2,0.8,0.3,1.6,0.5,2.6c0.7,0,1.2,0.1,1.8,0.1c0.2,0.2,0.4,0.5,0.6,0.7
		c0,0.5,0.1,0.9,0.1,1.4c0.5,0.2,1.1,0.4,1.6,0.7C69.3,64.8,69.8,65.1,70.4,65.5z"/>
	<path class="st2" d="M66.9,62.3c-0.2-0.2-0.4-0.5-0.6-0.7c-0.4-0.7-0.7-1.3-1-1.8c0.7-2.1,1.3-4,1.9-5.7c-2-2.6-4.1-4.9-6.8-6.6
		c-1.8-1.2-3.6-1.7-5.6-0.9c0-1.1,0-2.3-0.1-3.4c1.1,0.3,2.3,0.7,3.4,0.9c1.6,0.3,3.2,0.4,4.8,0.6c0.5-1.2,0.8-1.9,1.1-2.7
		c0.6,0.3,0.9,0.5,1.2,0.6c0.4-0.8,0.7-1.5,1.1-2.2c2.2,0.7,4.4,1.2,5.5,3.7c0.2,0.5,1.6,0.5,2.3,0.7c1.2,2,1.2,4,0.3,6
		c-1,0.1-2,0.1-3.4,0.2c-0.5,0.4-1.5,1.2-2.4,2c0.2,0.1,0.5,0.2,0.7,0.3c0,0.7,0.3,1.7,0,2c-1.4,1.1-0.9,2.5-0.9,3.8
		c-0.3,0.4-0.6,0.8-0.8,1.3C67.2,60.9,67.1,61.6,66.9,62.3z"/>
	<path class="st4" d="M68.3,58.9c0.1-1.3-0.4-2.7,0.9-3.8c0.3-0.3,0-1.3,0-2c-0.2-0.1-0.5-0.2-0.7-0.3c0.9-0.8,1.9-1.6,2.4-2
		c1.4-0.1,2.4-0.1,3.4-0.2l0.2-0.1c-0.1,0.9-0.2,1.8-0.3,2.6c-1.2-0.2-2.3-0.4-3.3-0.6c-0.2,0.3-0.3,0.6-0.5,0.9
		c1,1.1,2.1,2.3,3,3.4c1.2-0.8,2.1-1.4,2.9-2c0.2-1.5,0.4-2.8,0.6-4.1c0.3,0.5,0.5,1,0.8,1.5c0.5,1.3,1,2.6,1.6,4.2
		c-0.5,0.1-1.5,0.3-2.9,0.6c0.2,1.3,0.5,2.5,0.8,4.3c-3.2,4.3-3.2,4.3-6.8,4c-0.6-0.3-1.2-0.7-1.8-1c-0.5-0.3-1.1-0.5-1.6-0.7
		c0.9-0.1,1.7-0.1,2.6-0.2C69.1,61.8,68.7,60.4,68.3,58.9z M72.3,60.1c0.2-0.1,0.4-0.1,0.5-0.3c0.1-0.1-0.1-0.4-0.2-0.5
		c-0.2,0.1-0.4,0.2-0.7,0.3C72.1,59.8,72.2,59.9,72.3,60.1z"/>
	<path class="st4" d="M54.7,43.1c-0.9-0.5-1.9-0.9-2.8-1.4c1.2-0.2,2.4-0.5,3.6-0.6c1.2-0.1,2.4,0,4,0c-0.7-1.1-1.2-1.7-1.6-2.4
		c-0.2-0.5-0.2-1-0.4-1.6c1.9,0,3.7,0,5.8,0c0.1,0.9,0.1,1.8,0.2,2.6c0.2,0.4,0.5,0.8,0.7,1.2c0.2-0.3,0.4-0.7,0.6-1
		c0.5,0.2,1,0.4,1.5,0.6c-0.4,0.7-0.7,1.4-1.1,2.2c-0.3-0.2-0.7-0.3-1.2-0.6c-0.3,0.8-0.6,1.5-1.1,2.7c-1.6-0.2-3.2-0.3-4.8-0.6
		C56.9,43.8,55.8,43.4,54.7,43.1z M62.1,43.1c0.2-0.3,0.3-0.6,0.5-0.9c-0.5-0.3-1.1-0.6-1.6-0.8c-0.1,0.2-0.3,0.5-0.4,0.7
		C61.1,42.4,61.6,42.7,62.1,43.1z"/>
	<path class="st2" d="M64.8,39.8c-0.2,0.3-0.4,0.7-0.6,1c-0.2-0.4-0.5-0.8-0.7-1.2C64,39.7,64.4,39.7,64.8,39.8z"/>
	<path class="st4" d="M57.1,77.6c0.3-1.1,3.1-1.2,1.2-3.2c0.5-0.4,1.3-1.3,1.4-1.2c1.8,1.5,2.1-0.7,3.1-1.1c0.8,0.1,1.7,0.1,2.6,0.2
		c0.1,0.9,0.1,1.7,0.1,2.4c-0.9,0.1-1.8,0.2-3.3,0.3c0.9,1.2,1.5,2.1,2.2,3.1c-0.4,0.8-1,1.9-1.7,3.2c-1.1-0.1-2.3-0.2-3.5-0.4
		c-0.4-0.4-0.8-0.8-1.3-1.2C57.7,79,57.4,78.3,57.1,77.6z"/>
	<path class="st3" d="M65.5,74.7c0-0.7-0.1-1.5-0.1-2.4c-0.9-0.1-1.8-0.1-2.6-0.2c-0.6-1.1,1-3-1.4-3.4c-1.9,0.2-2.1-1.2-2.4-2.6
		c-1-0.2-1.9-0.3-2.3-0.4c-0.9-1.3-1.6-2.3-2.3-3.2c0.9,0,1.8,0,2.7,0c0,0.8,0,1.6,0,2.4c1.1,0.2,1.9,0.4,2.7,0.6
		c0.3,0.9,0.5,1.6,0.7,2.5c1,0,1.9,0,2.9,0l-0.1-0.1c0.1,1.1,0.1,2.2,0.2,3.4c1.1,0.1,1.9,0.1,2.6,0.1c0,0-0.1-0.1-0.1-0.1
		c0.1,0.9,0.2,1.7,0.3,2.8c1.2,0,2.2,0,3.2,0l-0.1-0.1c0.1,1.1,0.1,2.2,0.2,3.4c1,0.1,1.8,0.1,2.6,0.1l-0.1-0.1
		c0.1,1.1,0.1,2.2,0.2,3.3c1.3,0.1,2.3,0.2,3.2,0.2l0,0c0.1,0.9,0.2,1.7,0.3,2.8c1.2,0,2.2,0,3.2,0c0,0-0.1-0.1-0.1-0.1
		c0,0.9,0.1,1.8,0.1,2.8c-0.1,0.2-0.1,0.4-0.1,0.6c-0.3-0.7-0.7-1.5-1.1-2.5c-0.7-0.1-1.7-0.2-2.8-0.4c-0.1-0.7-0.3-1.5-0.4-2.2
		c-1.1-0.3-2.2-0.7-3.3-1c0-0.9,0-1.7,0-2.7c-1.1-0.1-1.8-0.1-2.6-0.2l0,0c-0.1-1.1-0.2-2.2-0.2-3.3c-1.2,0-2.2,0-3.3,0L65.5,74.7z"
		/>
	<path class="st7" d="M79.4,86.4c0-0.9-0.1-1.8-0.1-2.8c0.9,0,1.8,0,2.8,0c0,1.2,0,2.3,0,3.5c-0.3,0-0.6,0-0.9-0.1c0,0-0.2,0-0.2,0
		l-0.2-0.1C80.3,86.9,79.8,86.7,79.4,86.4z"/>
	<path class="st2" d="M58,79.7c0.4,0.4,0.8,0.8,1.3,1.2C58.2,81.1,57.6,80.9,58,79.7z"/>
	<path class="st5" d="M79.4,86.4c0.5,0.2,0.9,0.4,1.4,0.7c-0.5,0-1,0-1.4-0.1C79.3,86.8,79.3,86.6,79.4,86.4z"/>
	<path class="st7" d="M21.4,43.2c0.2-0.1,0.5-0.1,0.7-0.2c1.1,0.1,2.2,0.2,3.3,0.2c0.1,1,0.2,1.9,0.3,3.1c1,0,1.8,0,2.6,0
		c1.9,0,3.8,0,5.7,0c0.4,1.1,0.7,1.9,1,2.6c2.1,0,4.1,0,6.3,0c0-1,0-1.8,0-2.6c0.3-0.4,0.6-0.8,0.9-1.2c2.9,2.6,5.7,5.1,8.6,7.7
		c1,0.9,2,1.8,3,2.6c0,0.2,0.1,0.5,0.1,0.7c-4.5,0.2-9,0.5-13.6,0.7c-0.5-0.7-1-1.5-1.5-2.2c-2.3-0.6-4.5-1.1-7-1.8
		c-0.4-0.7-0.8-1.7-1.3-2.5c-2.6-0.2-5-0.2-7.4-0.6c-0.6-0.1-1.4-1.3-1.6-2.2C21.2,46.2,21.4,44.7,21.4,43.2z"/>
	<path class="st7" d="M57.2,62.4c-0.9,0-1.8,0-2.7,0c-0.2-1.2-0.4-2.3-0.5-3.5c1.1,0,2.2,0,3.4-0.1c0,0,0,0,0,0
		C57.3,60.1,57.3,61.2,57.2,62.4C57.2,62.4,57.2,62.4,57.2,62.4z"/>
	<path class="st5" d="M57.3,58.9c-1.1,0-2.2,0-3.4,0.1c0-0.9-0.1-1.9-0.1-2.8c1,0,2,0,3.2,0C57.1,57.2,57.2,58,57.3,58.9z"/>
	<path class="st4" d="M38.8,54.7c0.5,0.7,1,1.5,1.5,2.2c-0.5,0.3-1.1,0.6-1.6,0.9C37.7,56.7,37.7,55.7,38.8,54.7z"/>
	<path class="st5" d="M82,87.2c0-1.2,0-2.3,0-3.5c2.1,0,4.3,0,6.5,0c0.2,1.1,0.4,2,0.4,2.1c1.5,1.5,2.4,2.5,3.8,4
		c0.2,0,1.1,0.2,2.1,0.3c0.1,0.9,0.2,1.7,0.2,2.4c1.1,0.3,2.2,0.5,3.3,0.8c0.1,0.7,0.1,1.3,0.2,2.2c0.7,0.3,1.5,0.6,2.4,0.9
		c0.1,0.9,0.3,1.8,0.4,2.8c1,0.2,2,0.3,3.1,0.5c0,1.9,0,3.7,0,5.9c-1.2,0-2.3,0-3.3,0c0-1.1,0-2.1,0-3.4c-1.2,0-2,0-2.8,0
		c0,0,0,0,0,0c-0.1-0.9-0.1-1.7-0.2-2.8c-1.2,0-2.2,0-3.3,0l0,0c0-1.1,0-2.2,0-3.5c-1.5,0-2.5,0-3.5,0l0,0c0-0.8-0.1-1.7-0.1-2.8
		c-1,0-1.8,0-2.7,0l0,0c0-1.1,0-2.2,0-3.5c-1.5,0-2.5,0-3.5,0c0,0,0,0,0,0c-0.1-0.9-0.1-1.7-0.2-2.8C84,87.2,83,87.2,82,87.2
		L82,87.2z"/>
	<path class="st7" d="M91.6,96.1c1,0,2,0,3.5,0c0,1.3,0,2.4,0,3.5c-1-0.1-2-0.1-3.2-0.2C91.8,98.3,91.7,97.2,91.6,96.1z"/>
	<path class="st7" d="M85.5,89.9c1,0,2,0,3.5,0c0,1.3,0,2.4,0,3.5c-0.3,0-0.6,0-0.9-0.1c0,0-0.3,0-0.3,0c-0.7-0.2-1.4-0.5-2.1-0.7
		C85.5,91.7,85.5,90.8,85.5,89.9z"/>
	<path class="st7" d="M98.5,102.3c0.8,0,1.5,0,2.8,0c0,1.2,0,2.3,0,3.4c-0.8,0-1.5,0-2.8,0C98.5,104.5,98.5,103.4,98.5,102.3z"/>
	<path class="st7" d="M95.1,99.6c1,0,2,0,3.3,0c0.1,1.1,0.2,1.9,0.2,2.8c-1,0-2-0.1-3.2-0.1C95.3,101.3,95.2,100.4,95.1,99.6z"/>
	<path class="st7" d="M88.9,93.4c0.8,0,1.6,0,2.7,0c0.1,1.1,0.1,2,0.1,2.8c-0.8,0-1.6-0.1-2.5-0.1C89.1,95.1,89,94.2,88.9,93.4z"/>
	<path class="st8" d="M98.5,93.4c-1.1-0.3-2.2-0.5-3.3-0.8c0.2-0.2,0.5-0.4,0.7-0.6c1.1,0.2,2.1,0.5,3.2,0.7
		C98.9,92.9,98.7,93.2,98.5,93.4z"/>
	<path class="st7" d="M82,87.2c1,0,2,0,3.3,0c0.1,1.1,0.1,1.9,0.2,2.8c-1,0-2,0-3.2,0C82.2,88.9,82.1,88,82,87.2z"/>
	<path class="st5" d="M25.3,43.3c-1.1-0.1-2.2-0.2-3.3-0.2c0-6,0-12.1,0-18.3c8.6,0,16.7,0,25.3,0c0,2.9,0,5.8,0,8.7
		c1.1,0.4,1.9,0.8,3,1.2c0,2.6,0,5.2,0,8c1.1,0.3,2,0.6,3.2,1c0.2,1,0.4,2.1,0.6,3.1c0,1.7,0,3.5,0,5.2c-0.1,1.2-0.3,2.4-0.4,3.7
		c-1-0.9-2-1.8-3-2.6c-2.9-2.6-5.7-5.1-8.6-7.7c-0.9-1.5-1.3-2.9-0.9-4.8c0.4-1.9,0.1-4,0.1-6.3c-3.5,0-6.6,0-9.6,0
		c0.1-1.1,0.2-2.2,0.3-3.6c4.2,0,8.1,0,12,0c-0.1-1-0.1-1.6-0.1-2.2c-4.5-0.7-15.8-0.5-18.6,0.4C25.3,33.5,25.3,38.4,25.3,43.3z"/>
	<path class="st1" d="M54.2,51.9c0-1.7,0-3.5,0-5.2c0.2-0.1,0.4-0.1,0.6-0.2c2.1-0.8,3.8-0.2,5.6,0.9c2.7,1.7,4.8,4.1,6.8,6.6
		c-0.6,1.7-1.2,3.6-1.9,5.7c0.3,0.5,0.6,1.2,1,1.8c-0.6,0-1.1-0.1-1.8-0.1c-0.2-0.9-0.4-1.8-0.5-2.6c-1.8-1.4-3.6-2.8-5.3-4.1
		c-0.2,0.1-0.3,0.2-0.5,0.4c-0.2-1-0.4-1.9-0.6-2.9C56.4,52.1,55.3,52,54.2,51.9z"/>
	<path class="st7" d="M63.5,67.9c-0.9,0-1.8,0-2.9,0c-0.2-0.9-0.5-1.6-0.7-2.5c-0.8-0.2-1.6-0.4-2.7-0.6c0-0.8,0-1.6,0-2.4
		c0,0,0,0,0,0c0.9,0,1.9-0.1,2.8-0.1c0.2,0.1,0.3,0.2,0.5,0.2c0.1,0.8,0.2,1.5,0.3,2.4c0.9,0.1,1.7,0.2,2.5,0.3
		C63.4,66.1,63.4,67,63.5,67.9z"/>
	<path class="st5" d="M75.8,77.6c1,0,2,0,3.5,0c0,1.2,0,2.3,0,3.4c-1.2,0-2.3,0-3.5,0l0,0C75.8,79.9,75.8,78.7,75.8,77.6z"/>
	<path class="st7" d="M75.8,77.6c0,1.1,0,2.3,0,3.4c-1-0.1-2-0.1-3.2-0.2c-0.1-1.1-0.1-2.2-0.2-3.3C73.5,77.5,74.7,77.6,75.8,77.6z"
		/>
	<path class="st7" d="M69.7,74.1c-1,0-2,0-3.2,0c-0.1-1.1-0.2-1.9-0.3-2.8c1,0,2,0,3.2,0C69.5,72.4,69.6,73.2,69.7,74.1z"/>
	<path class="st7" d="M72.4,77.5c-0.8,0-1.6-0.1-2.6-0.1c-0.1-1.2-0.1-2.3-0.2-3.4c0.8,0,1.6,0.1,2.6,0.1
		C72.3,75.4,72.4,76.5,72.4,77.5z"/>
	<path class="st7" d="M75.8,81c1.2,0,2.3,0,3.5,0c0,0.9,0,1.9,0,2.8c-1,0-2,0-3.2,0C76,82.7,75.9,81.8,75.8,81z"/>
	<path class="st5" d="M60.1,62.3c-0.9,0-1.9,0.1-2.8,0.1c0-1.2,0-2.3,0-3.5c0.8,0,1.5,0.1,2.6,0.2C60,60.2,60,61.2,60.1,62.3z"/>
	<path class="st7" d="M66.2,71.3c-0.8,0-1.6-0.1-2.6-0.1c-0.1-1.2-0.1-2.3-0.2-3.4c0.8,0,1.6,0.1,2.6,0.1
		C66.1,69.2,66.2,70.3,66.2,71.3z"/>
	<path class="st5" d="M63.4,65.2c-0.8-0.1-1.5-0.2-2.5-0.3c-0.1-0.8-0.2-1.6-0.3-2.4c0.8,0,1.7,0,2.8,0
		C63.4,63.5,63.4,64.3,63.4,65.2z"/>
	<path class="st2" d="M72.3,60.1c-0.1-0.2-0.2-0.3-0.3-0.5c0.2-0.1,0.4-0.2,0.7-0.3c0.1,0.2,0.2,0.4,0.2,0.5
		C72.8,59.9,72.5,60,72.3,60.1z"/>
	<path class="st2" d="M62.1,43.1c-0.5-0.3-1-0.7-1.6-1c0.1-0.2,0.3-0.5,0.4-0.7c0.5,0.3,1.1,0.6,1.6,0.8
		C62.5,42.5,62.3,42.8,62.1,43.1z"/>
	<path class="st8" d="M25.3,43.3c0-4.9,0-9.8,0-14.6c2.7-0.9,14.1-1.1,18.6-0.4c0,0.6,0.1,1.2,0.1,2.2c-4,0-7.8,0-12,0
		c-0.1,1.4-0.2,2.5-0.3,3.6l0,0c-1.1,0.1-2.2,0.2-3.5,0.3c0,4.3,0,8.2,0,12.1c-0.8,0-1.7,0-2.6,0C25.5,45.2,25.4,44.2,25.3,43.3z"/>
	<path class="st8" d="M31.8,34.1c3,0,6.1,0,9.6,0c0,2.3,0.3,4.4-0.1,6.3c-0.4,1.9,0,3.3,0.9,4.8c-0.3,0.4-0.6,0.8-0.9,1.2
		c-0.9-1.1-1.9-2.2-3.1-3.6c-1.8,0-3.9,0-6.4,0C31.8,39.8,31.8,37,31.8,34.1L31.8,34.1z"/>
	<path class="st5" d="M31.8,34.1c0,2.8,0,5.7,0,8.8c2.5,0,4.6,0,6.4,0c1.2,1.4,2.2,2.5,3.1,3.6c0,0.8,0,1.6,0,2.6
		c-2.2,0-4.1,0-6.3,0c-0.3-0.7-0.6-1.5-1-2.6c-1.9,0-3.8,0-5.7,0c0-3.9,0-7.8,0-12.1C29.6,34.3,30.7,34.2,31.8,34.1z"/>
</g>
</svg>
