<?xml version="1.0" encoding="utf-8"?>
<!-- Generator: Adobe Illustrator 24.0.1, SVG Export Plug-In . SVG Version: 6.00 Build 0)  -->
<svg version="1.1" id="Layer_1" xmlns="http://www.w3.org/2000/svg" xmlns:xlink="http://www.w3.org/1999/xlink" x="0px" y="0px"
	 viewBox="0 0 128 128" style="enable-background:new 0 0 128 128;" xml:space="preserve">
<style type="text/css">
	.st0{fill:#8952A6;}
	.st1{fill:#F5F4F7;}
	.st2{fill:#0F1024;}
	.st3{fill:#E75AA5;}
	.st4{fill:#EF56A2;}
	.st5{fill:#CA67AF;}
	.st6{fill:#E05DA8;}
	.st7{fill:#BE6CB3;}
	.st8{fill:#D462AC;}
	.st9{fill:#B172B7;}
	.st10{fill:#DC5FA9;}
	.st11{fill:#A379BD;}
	.st12{fill:#987DC0;}
	.st13{fill:#2DAFE4;}
	.st14{fill:#9181C2;}
	.st15{fill:#8686C6;}
	.st16{fill:#6C92CF;}
	.st17{fill:#798CCA;}
	.st18{fill:#5E99D4;}
	.st19{fill:#37ABE1;}
	.st20{fill:#46A6DD;}
	.st21{fill:#549FD8;}
	.st22{fill:#FDFDFD;}
	.st23{fill:#F7529F;}
	.st24{fill:#E5E5E7;}
	.st25{fill:#F9F5FA;}
	.st26{fill:#BA6FB5;}
	.st27{fill:#AE74B9;}
	.st28{fill:#C36AB1;}
</style>
<g>
	<path class="st0" d="M128,64.1c0,35.3-28.7,63.9-64.1,63.9C28.6,128,0,99.3,0,63.9C0,28.6,28.7,0,64.2,0C99.4,0,128,28.8,128,64.1z
		 M78.6,109.8c0.4,0,0.8,0,1.2,0c5.5-0.1,10-2.1,13.3-6.8c5.5-8,11.3-15.8,16.9-23.8c0.8-1.2,1.5-2.5,1.9-3.8
		c1.5-4.8,0.2-9.3-1.8-13.6c-3.6-8-9.3-14.4-15.8-20.2c-7.6-6.9-16.1-12.5-25.6-16.5c-7-3-14.2-5.3-22-4.4
		c-4.4,0.5-8.1,2.3-10.8,6.1c-5.6,8-11.2,15.9-17,23.7c-2.8,3.8-3.4,7.9-2.5,12.4C18,69,21.2,74.2,25.1,79
		c9.4,11.6,21.1,20.2,34.6,26.2C65.7,107.8,71.9,109.7,78.6,109.8z"/>
	<path class="st1" d="M78.6,109.8c-6.7,0-12.9-1.9-18.9-4.6c-13.6-6-25.3-14.6-34.6-26.2c-3.9-4.8-7.1-10-8.5-16.1
		c-1-4.5-0.3-8.6,2.5-12.4c5.8-7.8,11.4-15.8,17-23.7c2.7-3.8,6.3-5.6,10.8-6.1c7.8-0.8,15,1.5,22,4.4c9.5,4,18,9.6,25.6,16.5
		c6.4,5.8,12.1,12.2,15.8,20.2c2,4.3,3.2,8.8,1.8,13.6c-0.4,1.4-1.1,2.7-1.9,3.8C104.4,87.2,98.6,95,93.1,103
		c-3.3,4.7-7.7,6.7-13.3,6.8C79.4,109.8,79,109.8,78.6,109.8z M36.3,29c-0.7,0.9-1.3,1.9-2,2.8c-0.5,0.7-1,1.4-1.5,2.1
		c-0.8,1.1-1.6,2.3-2.5,3.4c-0.8,1.1-1.6,2.3-2.5,3.4c-0.7,1-1.5,2-2.2,3.1c-0.7,1-1.5,2-2.2,3.1C22.7,48,22,49,21.2,50
		c-0.7,0.9-1.3,1.9-2,2.8c-0.4,1.1-0.9,2.3-1.3,3.4c-0.1,1.1-0.2,2.3-0.3,3.4c0.2,1.2,0.4,2.5,0.6,3.7c0.4,1.2,0.8,2.5,1.3,3.7
		c0.5,1,1,2.1,1.5,3.1c0.3,0.6,0.6,1.2,1,1.8c0.5,0.8,1,1.6,1.5,2.5c0.8,1.1,1.7,2.2,2.5,3.4c2.3,2.6,4.6,5.1,7,7.7
		c7.1,6.9,15.1,12.5,24,16.8c6.6,3.2,13.5,5.7,20.9,6c5.9,0.3,10.8-1.3,14.3-6.6c5.2-7.8,10.8-15.3,16.3-22.9
		c3.3-4.5,3.1-9.3,1.2-14.2c-1.2-2.5-2.5-5-3.7-7.6c-1.1-1.5-2.3-3-3.4-4.5c-1.1-1.4-2.2-2.8-3.3-4.2c-1.3-1.4-2.7-2.7-4-4.1
		c-1.3-1.1-2.6-2.2-3.9-3.4c-1.4-1.1-2.8-2.3-4.2-3.4c-1.1-0.8-2.3-1.6-3.4-2.5c-1.1-0.7-2.3-1.4-3.4-2.1c-1-0.6-2.1-1.2-3.1-1.9
		c-1.3-0.7-2.7-1.5-4-2.2c-1.2-0.7-2.5-1.4-3.7-2c-1.5-0.6-3.1-1.2-4.6-1.8c-1.5-0.5-3.1-1.1-4.6-1.6c-1.8-0.3-3.6-0.7-5.4-1
		c-3-0.6-6-1-9.1-0.4c-2.8,0.5-5.5,1.4-7.4,3.7C37.8,26.9,37,28,36.3,29z"/>
	<path class="st2" d="M109.8,64.8c1.9,4.9,2.1,9.6-1.2,14.2c-5.5,7.6-11.1,15.1-16.3,22.9c-3.6,5.3-8.5,6.9-14.3,6.6
		c-7.4-0.3-14.3-2.8-20.9-6c-8.9-4.3-16.9-9.9-24-16.8c3.5-0.6,6.2-2.6,8.7-4.9c2.8-2.5,5.6-4.9,8.4-7.3c0.5-0.2,1-0.4,1.6-0.6
		c1.8-0.8,3.6-1,5.5-0.3c0.7,0.4,1.6,0.8,2.2,1.4c1.3,1.2,2.4,2.5,3.6,3.8c2.4,3.3,4.7,6.8,8.2,9.1c3.2,2.1,6.7,2.7,10,0.7
		c2.1-1.2,3.9-3.1,5.8-4.7c0.6-0.1,1.2-0.1,1.7-0.2c-0.2-0.4-0.4-0.7-0.5-1.1c0.6-0.8,1.1-1.6,1.7-2.4c3.2,0.3,6.3,0.9,9.5,0.8
		c6.5-0.2,9.9-4.7,8.6-11c-0.3-1.6-0.9-3.1-1.4-4.7C107.5,64.3,108.6,64.5,109.8,64.8z M96.1,83.8c1.2-0.1,2.2-0.1,3.2-0.3
		c0.4-0.1,0.8-0.5,1.1-0.7c-0.4-0.2-0.9-0.6-1.3-0.6C96.6,82.1,94,82,91.5,82c-0.5,0-0.9,0.3-1.4,0.5c0.4,0.3,0.7,0.7,1.1,0.8
		C92.9,83.5,94.6,83.7,96.1,83.8z"/>
	<path class="st3" d="M57.2,72.4c-1.9-0.7-3.7-0.5-5.5,0.3c-0.5,0.2-1,0.4-1.6,0.6c-0.3-0.1-0.6-0.3-0.8-0.3
		c-1.9,0.4-3.8,0.8-5.7,1.2c-1.8,0.4-3.6,0.8-5.3,1.2c-4.1,0.8-8.2,1.6-12.3,2.5c-0.8-1.1-1.7-2.2-2.5-3.4c2.7-0.6,5.3-1.3,8-1.9
		c2.7-0.6,5.5-1,8.3-1.5c3.1-0.6,6.2-1.3,9.3-1.9c4.2-0.8,8.4-1.6,12.6-2.5c0.4-0.1,0.6-0.8,0.8-1.2c1.8,1.2,3.5,2.5,5.3,3.7
		c-1.4,1.5-3.3,1.1-5,1.6C61,71.4,59.1,71.9,57.2,72.4z"/>
	<path class="st4" d="M26,77.9c4.1-0.8,8.2-1.6,12.3-2.5c1.8-0.4,3.6-0.8,5.3-1.2c1.9-0.4,3.8-0.8,5.7-1.2c0.2,0,0.5,0.2,0.8,0.3
		c-2.8,2.4-5.6,4.9-8.4,7.3c-2.6,2.3-5.3,4.3-8.7,4.9C30.6,83,28.3,80.5,26,77.9z"/>
	<path class="st5" d="M19.5,67.1c-0.4-1.2-0.8-2.5-1.3-3.7c2.5-0.5,5-0.9,7.5-1.4c4.1-0.8,8.3-1.5,12.3-2.3c2.8-0.6,5.5-1.4,8.3-2.1
		c1.1,1.1,2.2,2.2,3.2,3.3c-4.1,0.8-8.2,1.7-12.3,2.5c-4,0.8-8.1,1.7-12.1,2.5C23.3,66.3,21.4,66.7,19.5,67.1z"/>
	<path class="st6" d="M62.5,65.5c-0.3,0.4-0.5,1.1-0.8,1.2c-4.2,0.9-8.4,1.7-12.6,2.5c-3.1,0.6-6.2,1.3-9.3,1.9
		c-2.7,0.5-5.5,0.9-8.3,1.5c-2.7,0.5-5.3,1.2-8,1.9c-0.5-0.8-1-1.6-1.5-2.5c0.2-0.1,0.3-0.3,0.5-0.3c3.3-0.6,6.5-1.1,9.8-1.7
		c2.9-0.5,5.8-1.2,8.7-1.8c4.5-1,9-1.9,13.4-2.9c0,0,0.1,0.1,0.1,0.1c0.7,0.3,1.5,0.6,2.2,0.9c-0.3-0.7-0.6-1.3-1-2
		c1.3-0.3,2.5-0.7,3.8-1C60.5,64.1,61.5,64.8,62.5,65.5z"/>
	<path class="st7" d="M46.4,57.5c-2.8,0.7-5.5,1.5-8.3,2.1c-4.1,0.9-8.2,1.6-12.3,2.3c-2.5,0.5-5,0.9-7.5,1.4
		c-0.2-1.2-0.4-2.5-0.6-3.7c3.5-0.6,6.9-1.1,10.4-1.8c5.3-1,10.6-2.1,15.9-3.2C44.8,55.6,45.6,56.6,46.4,57.5z"/>
	<path class="st8" d="M19.5,67.1c1.9-0.4,3.8-0.8,5.8-1.2c4-0.8,8.1-1.7,12.1-2.5c4.1-0.8,8.2-1.7,12.3-2.5c0.9,0.8,1.8,1.7,2.7,2.5
		c-2.3,0.5-4.6,1.1-6.9,1.6c-6.6,1.4-13.2,2.6-19.8,4c-1.6,0.3-3.1,0.9-4.6,1.3C20.5,69.2,20,68.2,19.5,67.1z"/>
	<path class="st9" d="M43.9,54.7c-5.3,1.1-10.6,2.2-15.9,3.2c-3.5,0.7-6.9,1.2-10.4,1.8c0.1-1.1,0.2-2.3,0.3-3.4
		c2.7-0.5,5.3-1,8-1.5c5.2-1,10.4-2.1,15.6-3.1C42.3,52.6,43.1,53.7,43.9,54.7z"/>
	<path class="st10" d="M21,70.3c1.5-0.4,3.1-1,4.6-1.3c6.6-1.4,13.2-2.6,19.8-4c2.3-0.5,4.6-1.1,6.9-1.6c0.7,0.7,1.4,1.4,2.1,2
		c-4.5,1-9,2-13.4,2.9c-2.9,0.6-5.8,1.2-8.7,1.8c-3.3,0.6-6.5,1.1-9.8,1.7c-0.2,0-0.3,0.2-0.5,0.3C21.6,71.5,21.3,70.9,21,70.3z"/>
	<path class="st11" d="M41.5,51.6c-5.2,1-10.4,2.1-15.6,3.1c-2.7,0.5-5.3,1-8,1.5c0.4-1.1,0.9-2.3,1.3-3.4c0.7-0.1,1.4,0,2.1-0.2
		c3.9-0.7,7.8-1.5,11.7-2.3c2.2-0.5,4.4-1,6.5-1.5C40.2,49.8,40.9,50.7,41.5,51.6z"/>
	<path class="st12" d="M39.6,48.8c-2.2,0.5-4.3,1.1-6.5,1.5c-3.9,0.8-7.8,1.6-11.7,2.3c-0.7,0.1-1.4,0.1-2.1,0.2
		c0.7-0.9,1.3-1.9,2-2.8c0.6,0,1.2,0,1.8-0.1c2.6-0.5,5.2-0.9,7.8-1.5c2.5-0.5,5-1.2,7.5-1.8C38.8,47.4,39.2,48.1,39.6,48.8z"/>
	<path class="st13" d="M38.6,25.9c1.9-2.3,4.6-3.2,7.4-3.7c3.1-0.6,6.1-0.1,9.1,0.4c-0.5,1.5-1.9,0.7-2.8,1.2
		c-0.6,0.4-1.2,0.8-1.9,1.2c-2.8,0-5.5,0.3-8,1.7c-0.4-0.1-0.8-0.3-1.1-0.4C40.4,25.9,39.4,27.2,38.6,25.9z"/>
	<path class="st14" d="M38.3,46.7c-2.5,0.6-5,1.3-7.5,1.8c-2.6,0.6-5.2,1-7.8,1.5c-0.6,0.1-1.2,0.1-1.8,0.1c0.7-1,1.5-2.1,2.2-3.1
		c0.4,0.1,0.9,0.4,1.2,0.3c2.2-0.4,4.3-0.9,6.4-1.3c2.1-0.4,4.2-0.8,6.3-1.1C37.7,45.4,38,46,38.3,46.7z"/>
	<path class="st15" d="M37.4,44.8c-2.1,0.4-4.2,0.7-6.3,1.1c-2.1,0.4-4.3,0.9-6.4,1.3c-0.4,0.1-0.8-0.2-1.2-0.3c0.7-1,1.5-2,2.2-3.1
		c0.5,0.1,1.1,0.3,1.5,0.2c3.1-0.5,6.2-1.1,9.3-1.7C36.8,43.2,37.1,44,37.4,44.8z"/>
	<path class="st16" d="M27.8,40.8c0.8-1.1,1.6-2.3,2.5-3.4c0.4,0.1,0.8,0.2,1.2,0.2c1.2-0.2,2.5-0.5,3.7-0.8c0.3,0.4,0.6,0.7,1,1.1
		c0.2-0.5,0.4-0.9,0.6-1.4c0.8-0.1,1.6-0.2,2.4-0.4c0.3,1,0.6,2.1,0.9,3.1c-1,0.1-2,0.2-2.9,0.3c-0.5-0.3-1.1-0.7-1.3,0.3
		c-1.1,0.1-2.1,0.3-3.2,0.4C31,40.5,29.4,40.6,27.8,40.8z"/>
	<path class="st17" d="M27.8,40.8c1.6-0.2,3.2-0.3,4.8-0.5c1.1-0.1,2.1-0.3,3.2-0.4c0.2,0.8,0.4,1.6,0.7,2.5
		c-3.1,0.6-6.2,1.2-9.3,1.7c-0.5,0.1-1-0.1-1.5-0.2C26.4,42.8,27.1,41.8,27.8,40.8z"/>
	<path class="st3" d="M109.8,64.8c-1.1-0.2-2.2-0.5-3.4-0.7c-1.2-2.2-2.4-4.3-3.6-6.5c1.1-0.1,2.2-0.3,3.3-0.4
		C107.3,59.7,108.5,62.2,109.8,64.8z"/>
	<path class="st18" d="M35.2,36.8c-1.2,0.3-2.5,0.6-3.7,0.8c-0.4,0.1-0.8-0.1-1.2-0.2c0.8-1.1,1.6-2.3,2.5-3.4
		c0.7,0.1,1.4,0.3,2.1,0.2c1.3-0.1,2.7-0.3,4-0.5c0.1,0.8,0.2,1.6,0.3,2.4c-0.8,0.1-1.6,0.2-2.4,0.4c-0.3-0.4-0.6-0.8-1-1.2
		C35.6,35.8,35.4,36.3,35.2,36.8z"/>
	<path class="st19" d="M50.4,25c0.6-0.4,1.2-0.8,1.9-1.2c0.9-0.5,2.3,0.3,2.8-1.2c1.8,0.3,3.6,0.7,5.4,1c-0.5,0.3-1,0.6-1.5,0.9
		c-0.8,0.4-1.6,0.8-2.4,1.2C54.5,25.5,52.4,25.2,50.4,25z"/>
	<path class="st9" d="M91.4,41.1c1.3,1.1,2.6,2.2,3.9,3.4c-1.1,0.3-2.1,0.7-3.2,1c-1.4-1.2-2.9-2.5-4.3-3.7
		C89,41.5,90.2,41.3,91.4,41.1z"/>
	<path class="st5" d="M99.3,48.5c1.1,1.4,2.2,2.8,3.3,4.2c-1,0.3-1.9,0.5-2.9,0.8c-1.3-1.4-2.5-2.8-3.8-4.3
		C97.1,49,98.2,48.8,99.3,48.5z"/>
	<path class="st7" d="M99.3,48.5c-1.1,0.2-2.2,0.5-3.3,0.7c-1.3-1.3-2.6-2.5-3.9-3.8c1.1-0.3,2.1-0.7,3.2-1
		C96.6,45.8,98,47.2,99.3,48.5z"/>
	<path class="st20" d="M56.6,25.7c0.8-0.4,1.6-0.8,2.4-1.2c0.5-0.3,1-0.6,1.5-0.9c1.5,0.5,3.1,1.1,4.6,1.6c-0.4,0.3-0.7,0.6-1.1,0.8
		c-0.6,0.4-1.2,0.8-1.8,1.2C60.3,26.7,58.4,26.2,56.6,25.7z"/>
	<path class="st10" d="M99.7,53.5c1-0.3,1.9-0.5,2.9-0.8c1.1,1.5,2.3,3,3.4,4.5c-1.1,0.1-2.2,0.3-3.3,0.4
		C101.8,56.2,100.7,54.9,99.7,53.5z"/>
	<path class="st11" d="M91.4,41.1c-1.2,0.2-2.4,0.5-3.6,0.7c-1.1-0.9-2.3-1.7-3.4-2.6c1-0.5,1.9-1,2.9-1.5
		C88.6,38.8,90,39.9,91.4,41.1z"/>
	<path class="st21" d="M62.1,27.3c0.6-0.4,1.2-0.8,1.8-1.2c0.4-0.3,0.7-0.5,1.1-0.8c1.5,0.6,3.1,1.2,4.6,1.8
		c-0.4,0.3-0.8,0.6-1.2,0.9c-0.6,0.4-1.3,0.7-1.9,1C65,28.3,63.6,27.8,62.1,27.3z"/>
	<path class="st16" d="M73.3,29c1.3,0.7,2.7,1.5,4,2.2c-0.5,0.3-1,0.6-1.5,0.9c-0.4,0.3-0.9,0.5-1.3,0.7c-1.3-0.7-2.7-1.4-4-2.1
		c0.5-0.2,1-0.4,1.5-0.7C72.4,29.7,72.8,29.3,73.3,29z"/>
	<path class="st21" d="M38.9,33.7c-1.3,0.2-2.7,0.4-4,0.5c-0.7,0-1.4-0.1-2.1-0.2c0.5-0.7,1-1.4,1.5-2.1c1.6-0.2,3.2-0.4,4.8-0.6
		C39,32.1,38.9,32.9,38.9,33.7z"/>
	<path class="st18" d="M73.3,29c-0.5,0.3-0.9,0.7-1.4,1c-0.5,0.3-1,0.5-1.5,0.7c-1.3-0.6-2.7-1.2-4-1.8c0.6-0.3,1.3-0.6,1.9-1
		c0.4-0.3,0.8-0.6,1.2-0.9C70.8,27.7,72,28.3,73.3,29z"/>
	<path class="st14" d="M87.2,37.6c-1,0.5-1.9,1-2.9,1.5c-1.2-0.9-2.5-1.7-3.7-2.6c1.1-0.5,2.1-0.9,3.2-1.4
		C85,36,86.1,36.8,87.2,37.6z"/>
	<path class="st15" d="M83.8,35.1c-1.1,0.5-2.1,0.9-3.2,1.4c-1-0.6-2-1.3-3-1.9c0.9-0.5,1.9-1.1,2.8-1.6
		C81.5,33.8,82.7,34.4,83.8,35.1z"/>
	<path class="st17" d="M80.4,33.1c-0.9,0.5-1.9,1.1-2.8,1.6c-1-0.6-2.1-1.2-3.1-1.8c0.4-0.2,0.9-0.5,1.3-0.7c0.5-0.3,1-0.6,1.5-0.9
		C78.3,31.8,79.4,32.4,80.4,33.1z"/>
	<path class="st19" d="M38.6,25.9c0.7,1.3,1.8,0,2.6,0.3c0.4,0.1,0.8,0.3,1.1,0.4c-0.7,0.7-1.5,1.4-2.2,2.1
		c-1.3,0.1-2.6,0.2-3.9,0.3C37,28,37.8,26.9,38.6,25.9z"/>
	<path class="st20" d="M36.3,29c1.3-0.1,2.6-0.2,3.9-0.3c-0.4,0.8-0.7,1.7-1.1,2.5c-1.6,0.2-3.2,0.4-4.8,0.6
		C34.9,30.9,35.6,30,36.3,29z"/>
	<path class="st22" d="M39.1,31.2c0.4-0.8,0.7-1.7,1.1-2.5c0.7-0.7,1.5-1.4,2.2-2.1c2.5-1.3,5.2-1.6,8-1.7c2.1,0.3,4.1,0.5,6.2,0.8
		c1.9,0.5,3.7,1,5.6,1.5c1.4,0.5,2.9,1.1,4.3,1.6c1.3,0.6,2.7,1.2,4,1.8c1.3,0.7,2.7,1.4,4,2.1c1,0.6,2.1,1.2,3.1,1.8
		c1,0.6,2,1.3,3,1.9c1.2,0.9,2.5,1.7,3.7,2.6c1.1,0.9,2.3,1.7,3.4,2.6c1.4,1.2,2.9,2.5,4.3,3.7c1.3,1.3,2.6,2.5,3.9,3.8
		c1.3,1.4,2.5,2.8,3.8,4.3c1,1.4,2,2.7,3,4.1c1.2,2.2,2.4,4.3,3.6,6.5c0.5,1.6,1.1,3.1,1.4,4.7c1.4,6.3-2,10.8-8.6,11
		c-3.1,0.1-6.3-0.5-9.5-0.8c-4.9-1.8-9.7-3.7-14.6-5.5c-2.5-1.4-4.9-2.8-7.4-4.2c-1.8-1.2-3.5-2.5-5.3-3.7c-1-0.7-1.9-1.4-2.9-2.1
		c-1.1-0.9-2.2-1.9-3.3-2.8c-1.3-1.2-2.7-2.5-4-3.7c-1.2-1.2-2.3-2.5-3.5-3.7c-0.8-0.9-1.6-1.9-2.4-2.8c-0.7-0.9-1.3-1.8-2-2.7
		c-0.6-0.9-1.2-1.9-1.8-2.8c-0.4-0.8-0.9-1.6-1.3-2.4c-0.5-1-0.9-2.1-1.4-3.1c-0.3-1-0.6-2.1-0.9-3.1c-0.1-0.8-0.2-1.6-0.3-2.4
		C38.9,32.9,39,32.1,39.1,31.2z M66.8,40.1c-2.4-0.8-4.9-1.4-7.5-0.8c-1.9,0.5-2.7,1.5-2.8,3.4c0.1,0.8,0.3,1.6,0.4,2.5
		c0.4,0.8,0.8,1.7,1.1,2.5c0.6,0.9,1.2,1.9,1.8,2.8c0.8,1,1.7,2,2.5,3.1c0.8,0.8,1.6,1.5,2.4,2.3c0.8,0.7,1.7,1.4,2.5,2.1
		c1.1,0.8,2.3,1.6,3.4,2.5c1.7,0.9,3.5,1.9,5.2,2.8c3.1,1.7,6.4,2.7,10,2.6c4,0,5.5-2.4,4-6.1c-0.6-1.2-1.2-2.4-1.8-3.6
		c-0.6-0.9-1.3-1.8-1.9-2.6c-0.7-0.7-1.3-1.4-2-2.1c-0.9-0.9-1.8-1.8-2.7-2.6c-0.9-0.8-1.9-1.5-2.8-2.3c-1.2-0.8-2.5-1.7-3.7-2.5
		c-1.2-0.6-2.4-1.3-3.6-1.9C70,41.3,68.4,40.7,66.8,40.1z"/>
	<path class="st23" d="M75.2,73.4c4.9,1.8,9.7,3.7,14.6,5.5c-0.6,0.8-1.1,1.6-1.7,2.4c-0.7-0.2-1.5-0.4-2.3-0.5
		c-0.3,0-0.6,0.3-0.9,0.4c0.2,0.3,0.2,0.7,0.5,0.8c0.4,0.3,1,0.4,1.4,0.5c-1.9,1.6-3.6,3.5-5.8,4.7c-3.4,1.9-6.8,1.4-10-0.7
		c-3.5-2.3-5.8-5.7-8.2-9.1c0.3-0.3,0.5-0.8,0.8-0.8c3.4-0.7,6.8-1.3,10.2-1.9C74.7,74.7,75.2,74.3,75.2,73.4z"/>
	<path class="st4" d="M75.2,73.4c0,0.9-0.4,1.3-1.3,1.4c-3.4,0.6-6.8,1.2-10.2,1.9c-0.3,0.1-0.5,0.5-0.8,0.8
		c-1.2-1.3-2.3-2.6-3.6-3.8c-0.6-0.6-1.4-0.9-2.2-1.4c1.9-0.5,3.8-1,5.7-1.6c1.7-0.5,3.6-0.1,5-1.6C70.2,70.6,72.7,72,75.2,73.4z"/>
	<path class="st24" d="M96.1,83.8c-1.5-0.2-3.2-0.3-4.9-0.6c-0.4-0.1-0.7-0.5-1.1-0.8c0.5-0.2,0.9-0.5,1.4-0.5
		c2.6,0,5.1,0.1,7.7,0.3c0.5,0,0.9,0.4,1.3,0.6c-0.4,0.2-0.7,0.6-1.1,0.7C98.3,83.7,97.3,83.7,96.1,83.8z"/>
	<path class="st25" d="M86.9,82.6c-0.5-0.2-1-0.3-1.4-0.5c-0.2-0.1-0.3-0.6-0.5-0.8c0.3-0.1,0.6-0.4,0.9-0.4
		c0.8,0.1,1.5,0.3,2.3,0.5c0.2,0.4,0.4,0.7,0.5,1.1C88.1,82.4,87.5,82.5,86.9,82.6z"/>
	<path class="st25" d="M36.5,42.4c-0.2-0.8-0.4-1.6-0.7-2.5c0.2-1,0.8-0.6,1.3-0.3c0.4,1.1,0.8,2.3,1.2,3.4c0.4,0.9,0.9,1.8,1.3,2.8
		c0.5,0.8,1,1.7,1.4,2.5c0.6,0.9,1.3,1.8,1.9,2.8c0.8,1,1.7,2.1,2.5,3.1c1.1,1.2,2.2,2.5,3.4,3.7c1.2,1.2,2.4,2.3,3.5,3.5
		c1.1,1,2.3,2.1,3.4,3.1c0.3,0.7,0.6,1.3,1,2c-0.7-0.3-1.5-0.6-2.2-0.9c0,0-0.1-0.1-0.1-0.1c-0.7-0.7-1.4-1.4-2.1-2
		c-0.9-0.8-1.8-1.7-2.7-2.5c-1.1-1.1-2.2-2.2-3.2-3.3c-0.8-0.9-1.6-1.9-2.4-2.8c-0.8-1-1.6-2.1-2.5-3.1c-0.6-0.9-1.2-1.9-1.9-2.8
		c-0.4-0.7-0.8-1.5-1.3-2.2c-0.3-0.6-0.6-1.2-0.9-1.8C37.1,44,36.8,43.2,36.5,42.4z"/>
	<path class="st8" d="M55.8,64.4c-1.1-1-2.3-2.1-3.4-3.1c1.3-0.2,2.6-0.5,4-0.7c1.1,0.9,2.2,1.9,3.3,2.8
		C58.3,63.7,57,64.1,55.8,64.4z"/>
	<path class="st17" d="M38.3,43c-0.4-1.1-0.8-2.3-1.2-3.4c1-0.1,1.9-0.2,2.9-0.3c0.5,1,0.9,2.1,1.4,3.1C40.4,42.6,39.3,42.8,38.3,43
		z"/>
	<path class="st1" d="M35.2,36.8c0.2-0.5,0.4-1,0.6-1.5c0.3,0.4,0.6,0.8,1,1.2c-0.2,0.5-0.4,0.9-0.6,1.4
		C35.9,37.5,35.6,37.2,35.2,36.8z"/>
	<path class="st26" d="M78.9,46.4c0.9,0.8,1.9,1.5,2.8,2.3c-0.4,0.3-0.8,0.7-1.3,0.8c-4.7,1-9.5,1.8-14.2,2.9
		c-1.3,0.3-2.9-0.4-3.8,1.1c-0.8-1-1.7-2-2.5-3.1c2-0.4,4-0.8,6-1.3C70.2,48.2,74.5,47.3,78.9,46.4z"/>
	<path class="st10" d="M76,63.1c-1.7-0.9-3.5-1.9-5.2-2.8c0.1-0.1,0.2-0.3,0.4-0.3c5.2-1.1,10.4-2.1,15.6-3.2c0.6-0.1,1-0.5,1.6-0.8
		c0.6,1.2,1.2,2.4,1.8,3.6c-2.3,0.5-4.6,1-6.8,1.6C80.8,61.8,78.4,62.5,76,63.1z"/>
	<path class="st8" d="M88.2,56.1c-0.5,0.3-1,0.7-1.6,0.8C81.5,58,76.3,59,71.1,60c-0.1,0-0.2,0.2-0.4,0.3c-1.1-0.8-2.3-1.6-3.4-2.5
		c3.8-0.8,7.5-1.7,11.3-2.5c2.6-0.6,5.1-1.3,7.7-1.9C87,54.3,87.6,55.2,88.2,56.1z"/>
	<path class="st27" d="M78.9,46.4c-4.3,0.9-8.6,1.9-13,2.8c-2,0.4-4,0.8-6,1.3c-0.6-0.9-1.2-1.9-1.8-2.8c5.2-1,10.5-2.1,15.7-3.1
		c0.5-0.1,0.9-0.4,1.4-0.6C76.4,44.7,77.6,45.5,78.9,46.4z"/>
	<path class="st28" d="M62.5,53.5c0.9-1.5,2.5-0.9,3.8-1.1c4.7-1.1,9.5-1.9,14.2-2.9c0.5-0.1,0.8-0.5,1.3-0.8
		c0.9,0.9,1.8,1.8,2.7,2.6c-1.1,0.3-2.3,0.6-3.4,0.8c-4.1,0.8-8.1,1.5-12.2,2.4c-1.3,0.3-2.6,0.9-3.9,1.3
		C64.1,55,63.3,54.3,62.5,53.5z"/>
	<path class="st5" d="M64.9,55.8c1.3-0.4,2.6-1,3.9-1.3c4-0.8,8.1-1.6,12.2-2.4c1.1-0.2,2.3-0.5,3.4-0.8c0.7,0.7,1.3,1.4,2,2.1
		c-2.6,0.6-5.1,1.3-7.7,1.9c-3.8,0.9-7.5,1.7-11.3,2.5C66.5,57.2,65.7,56.5,64.9,55.8z"/>
	<path class="st3" d="M76,63.1c2.4-0.6,4.8-1.3,7.2-1.9c2.3-0.6,4.5-1,6.8-1.6c1.4,3.7,0,6.1-4,6.1C82.4,65.8,79.1,64.8,76,63.1z"/>
	<path class="st11" d="M75.1,43.9c-0.5,0.2-0.9,0.5-1.4,0.6c-5.2,1.1-10.5,2.1-15.7,3.1c-0.4-0.8-0.8-1.7-1.1-2.5
		c1.5-0.3,3-0.6,4.5-0.9c3.4-0.7,6.8-1.5,10.1-2.2C72.8,42.6,74,43.2,75.1,43.9z"/>
	<path class="st12" d="M71.6,42c-3.4,0.7-6.7,1.5-10.1,2.2c-1.5,0.3-3,0.6-4.5,0.9c-0.1-0.8-0.3-1.6-0.4-2.5
		c1.9-0.3,3.9-0.6,5.8-1.1c1.5-0.4,3-1,4.5-1.5C68.4,40.7,70,41.3,71.6,42z"/>
	<path class="st14" d="M66.8,40.1c-1.5,0.5-3,1.2-4.5,1.5c-1.9,0.5-3.9,0.7-5.8,1.1c0.1-2,0.9-3,2.8-3.4
		C61.9,38.6,64.4,39.2,66.8,40.1z"/>
	<path class="st5" d="M56.3,60.6c-1.3,0.2-2.6,0.5-4,0.7c-1.2-1.2-2.4-2.3-3.5-3.5c1.2-0.3,2.3-0.6,3.5-1
		C53.6,58.1,55,59.3,56.3,60.6z"/>
	<path class="st7" d="M52.3,56.9c-1.2,0.3-2.3,0.6-3.5,1c-1.1-1.2-2.2-2.5-3.4-3.7c1.1-0.3,2.3-0.6,3.4-0.9
		C50,54.4,51.2,55.6,52.3,56.9z"/>
	<path class="st27" d="M48.9,53.2c-1.1,0.3-2.3,0.6-3.4,0.9c-0.8-1-1.7-2.1-2.5-3.1c1.2-0.2,2.4-0.5,3.6-0.7
		C47.3,51.3,48.1,52.2,48.9,53.2z"/>
	<path class="st11" d="M46.5,50.4c-1.2,0.2-2.4,0.5-3.6,0.7c-0.6-0.9-1.3-1.8-1.9-2.8c1.2-0.2,2.3-0.4,3.5-0.6
		C45.2,48.5,45.8,49.4,46.5,50.4z"/>
	<path class="st14" d="M38.3,43c1-0.2,2.1-0.4,3.1-0.6c0.4,0.8,0.9,1.6,1.3,2.4c-1,0.3-2.1,0.7-3.1,1C39.2,44.8,38.7,43.9,38.3,43z"
		/>
	<path class="st12" d="M39.6,45.8c1-0.3,2.1-0.7,3.1-1c0.6,0.9,1.2,1.9,1.8,2.8c-1.2,0.2-2.3,0.4-3.5,0.6
		C40.6,47.4,40.1,46.6,39.6,45.8z"/>
</g>
</svg>
