<?xml version="1.0" encoding="utf-8"?>
<!-- Generator: Adobe Illustrator 24.0.1, SVG Export Plug-In . SVG Version: 6.00 Build 0)  -->
<svg version="1.1" id="Layer_1" xmlns="http://www.w3.org/2000/svg" xmlns:xlink="http://www.w3.org/1999/xlink" x="0px" y="0px"
	 viewBox="0 0 128 128" style="enable-background:new 0 0 128 128;" xml:space="preserve">
<style type="text/css">
	.st0{fill:#397CF1;}
	.st1{fill:#EAEDF1;}
	.st2{fill:#397DF1;}
	.st3{fill:#F8FAFE;}
</style>
<g>
	<path class="st0" d="M128,53.6c0,6.9,0,13.9,0,20.8c-0.2,0.1-0.4,0.2-0.4,0.3c-2.1,11-6.4,20.9-13.6,29.6
		c-7.5,9.2-16.6,16.1-27.8,20.1c-3.9,1.4-7.9,2.4-11.8,3.6c-7.1,0-14.3,0-21.4,0c-0.1-0.2-0.2-0.4-0.3-0.4c-11.2-2.2-21.2-6.6-30-14
		C13,105.5,6.3,95.7,2.4,83.8c-0.8-2.5-1.6-5.1-2.4-7.6c0-8.1,0-16.3,0-24.4c0.2-0.1,0.4-0.2,0.4-0.3c1.9-9.7,5.7-18.6,11.7-26.4
		c7-9,15.6-16.2,26.3-20.4C43,2.9,47.7,1.5,52.4,0c7.7,0,15.5,0,23.2,0c4.6,1.5,9.3,2.6,13.7,4.5c9.3,4.1,17.4,9.9,24,17.9
		c5.6,6.8,9.7,14.3,12.3,22.7C126.5,47.9,127.2,50.7,128,53.6z M63.8,10C35.8,9,7.9,33.9,9.8,67.1c1.4,25.7,22.4,50.2,52.9,50.9
		c32.4,0.8,58.8-27.5,55.1-60.3C114.8,33,93.2,9.6,63.8,10z"/>
	<path class="st1" d="M63.8,10c29.4-0.3,51,23.1,53.9,47.8c3.7,32.7-22.6,61-55.1,60.3c-30.4-0.7-51.4-25.3-52.9-50.9
		C7.9,33.9,35.8,9,63.8,10z M113.4,64.1c0-27.2-22.5-49.7-49.7-49.6C36.6,14.7,14.4,37,14.3,64.1c0,27.2,22.5,49.7,49.7,49.6
		C91.2,113.6,113.4,91.2,113.4,64.1z"/>
	<path class="st2" d="M113.4,64.1c0,27.1-22.3,49.4-49.4,49.5c-27.2,0.1-49.7-22.4-49.7-49.6c0-27.1,22.2-49.4,49.4-49.5
		C90.9,14.4,113.4,36.9,113.4,64.1z M77.1,49.2c-4.3,5.7-8.6,11.4-12.9,17.1c-0.6,0.8-1,1.9-1.4,2.8c2.2-0.4,3.7-1.2,5.4-1.9
		C72.8,65.4,78,67.4,80,72c2.4,5.4,2.4,11.1,0,16.5c-2.6,6.1-11.6,7.8-16.3,3.1c0.3-0.3,0.6-0.5,0.8-0.8c2-1.9,2.2-4.2,0.8-6.5
		c-1.4-2.1-3.6-2.4-5.8-1.6c-2.6,0.9-3.3,3.1-2.8,5.6c0.8,4.3,3.3,7.3,7.5,8.9c6.6,2.5,16.3,0.7,20.5-4.2c5.3-6.2,5.9-13.3,3-20.7
		c-2.8-7-8.5-9.9-16.4-9.5c5.8-5.9,11.2-11.4,16.7-17c-1.1-2.1-2.9-2.7-5.3-2.6c-4,0.2-7.9,0.1-11.9,0.1c-4.6,0-9.3,0-14.2,0
		c0-3.5-0.2-6.8,0.1-10c0.1-2.4-1.1-3.3-3-3.5c-2.3-0.2-4.7-0.1-7-0.1c-0.1,0.6-0.2,0.9-0.1,1.2c0,0.3,0.1,0.7,0.3,0.8
		c3.1,2.4,2.2,5.9,2.4,9.1c0.1,1.8-0.5,2.7-2.6,2.6c-2.8-0.2-5.7,0-8.7,0c0.1,1.6,0.2,2.8,0.3,4c1,0.3,2,0.8,3,0.8
		c2.6,0.1,5.2,0,7.9,0c0,7.3,0,14.7,0,22c0,0.1-0.1,0.1-0.1,0.2c0,0.1,0.1,0.2,0.2,0.4c1,4.7,3.8,7.4,8.7,8c4.8,0.6,9.2,0.2,12-4.4
		c0.6-1,0.3-2.6,0.5-4c-1,0.5-2.1,0.9-2.9,1.6c-2.1,2-4.3,3.7-7.4,2.5c-3.1-1.2-3.2-4-3.2-6.7c-0.1-5.9,0-11.9,0-17.8
		c0-0.8,0.3-1.7,0.5-2.5c1.1,0.2,2.3,0.6,3.4,0.7c4.3,0.1,8.7,0,13,0.1C74.7,48.3,75.9,48.9,77.1,49.2z"/>
	<path class="st3" d="M49,70.2c0-7.3,0-14.7,0-22c-0.8-0.3-1.7-0.9-2.5-0.9c-2.8-0.1-5.5,0-8.3,0c-0.1-1.2-0.2-2.3-0.3-4
		c3.1,0,5.9-0.1,8.7,0c2,0.1,2.6-0.7,2.6-2.6c-0.1-3.2,0.7-6.6-2.4-9.1c-0.2-0.1-0.2-0.5-0.3-0.8c0-0.3,0.1-0.6,0.1-1.2
		c2.3,0,4.7-0.2,7,0.1c1.9,0.2,3.2,1.2,3,3.5c-0.2,3.2-0.1,6.5-0.1,10c5,0,9.6,0,14.2,0c4,0,7.9,0.1,11.9-0.1
		c2.4-0.1,4.2,0.5,5.3,2.6c-5.5,5.6-10.9,11.1-16.7,17c7.9-0.3,13.6,2.5,16.4,9.5c2.9,7.3,2.3,14.5-3,20.7
		c-4.2,4.9-13.9,6.7-20.5,4.2c-4.2-1.6-6.7-4.6-7.5-8.9c-0.4-2.5,0.2-4.6,2.8-5.6c2.2-0.8,4.5-0.5,5.8,1.6c1.4,2.2,1.2,4.5-0.8,6.5
		c-0.3,0.3-0.6,0.5-0.8,0.8c4.7,4.7,13.6,3.1,16.3-3.1c2.3-5.4,2.3-11,0-16.5c-2-4.6-7.2-6.6-11.9-4.8c-1.6,0.6-3.2,1.5-5.4,1.9
		c0.5-0.9,0.8-2,1.4-2.8c4.3-5.7,8.6-11.4,12.9-17.1c0.3-0.5,0.6-1,1-1.7c-7.2,0-14.1,0-20.9,0c-0.2,0.8-0.5,1.6-0.5,2.5
		c0,5.9-0.1,11.9,0,17.8c0,2.7,0.2,5.6,3.2,6.7c3.1,1.2,5.3-0.6,7.4-2.5c0.8-0.7,2-1.1,2.9-1.6c-0.1,1.3,0.1,2.9-0.5,4
		c-2.8,4.6-7.1,5-12,4.4c-4.9-0.6-7.6-3.3-8.7-8C49.1,70.6,49.1,70.4,49,70.2z"/>
	<path class="st0" d="M57.1,47.5c6.9,0,13.7,0,20.9,0c-0.4,0.7-0.7,1.2-1,1.7c-1.2-0.3-2.4-0.9-3.6-1c-4.3-0.1-8.7,0-13-0.1
		C59.4,48.2,58.3,47.8,57.1,47.5z"/>
	<path class="st0" d="M38.2,47.3c2.8,0,5.5-0.1,8.3,0c0.8,0,1.7,0.6,2.5,0.9c-2.6,0-5.2,0.1-7.9,0C40.1,48.1,39.2,47.6,38.2,47.3z"
		/>
	<path class="st0" d="M49,70.2c0.1,0.2,0.2,0.4,0.1,0.6c-0.1-0.1-0.1-0.2-0.2-0.4C48.9,70.4,48.9,70.3,49,70.2z"/>
</g>
</svg>
