<?xml version="1.0" encoding="utf-8"?>
<!-- Generator: Adobe Illustrator 25.0.1, SVG Export Plug-In . SVG Version: 6.00 Build 0)  -->
<svg version="1.1" id="Layer_1" xmlns="http://www.w3.org/2000/svg" xmlns:xlink="http://www.w3.org/1999/xlink" x="0px" y="0px"
	 viewBox="0 0 48 48" style="enable-background:new 0 0 48 48;" xml:space="preserve">
<style type="text/css">
	.st0{fill:#DAF5EC;}
	.st1{fill:#02D17B;}
</style>
<path class="st0" d="M3.4,23.9c0-3.5,0-6.9,0-10.4c0-1.1,0.5-1.8,1.4-2.3c1.9-1.1,3.8-2.2,5.7-3.3c2-1.2,4.1-2.4,6.1-3.6
	c2-1.1,3.9-2.3,5.9-3.4c0.8-0.5,1.7-0.6,2.5-0.1c1.8,1,3.6,2.1,5.5,3.1c2.2,1.3,4.4,2.6,6.7,3.9c2,1.2,4,2.3,6,3.5
	c0.9,0.5,1.3,1.3,1.3,2.3c0,6.8,0,13.6,0,20.4c0,1.2-0.4,2-1.5,2.6c-3,1.7-6,3.5-9.1,5.2c-2.4,1.4-4.8,2.8-7.3,4.2
	c-0.5,0.3-1,0.6-1.6,0.9c-0.8,0.4-1.7,0.4-2.5-0.1c-2.2-1.3-4.5-2.6-6.7-3.9c-2.1-1.2-4.2-2.5-6.3-3.7c-1.6-0.9-3.2-1.8-4.8-2.8
	c-0.8-0.5-1.3-1.1-1.3-2.1C3.4,30.9,3.4,27.4,3.4,23.9z M17.9,23.7c-0.2,0.2-0.4,0.3-0.5,0.4c-1.8,1.8-3.7,3.7-5.5,5.5
	c-0.6,0.6-0.6,1.1,0,1.8c0.2,0.2,0.4,0.4,0.6,0.5c0.7,0.6,1.1,0.6,1.7-0.1c2.4-2.4,4.8-4.8,7.3-7.2c0.8-0.8,0.8-1.2,0-1.9
	c-2.4-2.4-4.8-4.8-7.1-7.1c-0.1-0.1-0.2-0.2-0.4-0.3c-0.5-0.4-0.9-0.3-1.4,0.1c-0.2,0.2-0.4,0.4-0.7,0.6c-0.7,0.6-0.7,1.1-0.1,1.8
	c1.4,1.4,2.8,2.8,4.2,4.2C16.7,22.5,17.3,23,17.9,23.7z M30,29.4c-2,0-4,0-6,0c-0.7,0-1.1,0.4-1.1,1.1c0,0.4,0,0.7,0,1.1
	c0,0.7,0.4,1,1,1c0.9,0,1.9,0,2.8,0c3,0,6.1,0,9.1,0c0.8,0,1.2-0.3,1.2-1.2c0-0.3,0-0.6,0-0.9c0-0.8-0.4-1.2-1.2-1.2
	C33.9,29.4,31.9,29.4,30,29.4z"/>
<path class="st1" d="M17.9,23.7c-0.7-0.7-1.3-1.2-1.8-1.8c-1.4-1.4-2.8-2.8-4.2-4.2c-0.7-0.7-0.6-1.2,0.1-1.8
	c0.2-0.2,0.4-0.4,0.7-0.6c0.4-0.4,0.9-0.4,1.4-0.1c0.1,0.1,0.3,0.2,0.4,0.3c2.4,2.4,4.8,4.8,7.1,7.1c0.8,0.8,0.8,1.2,0,1.9
	c-2.4,2.4-4.8,4.8-7.3,7.2c-0.6,0.6-1,0.7-1.7,0.1c-0.2-0.2-0.4-0.4-0.6-0.5c-0.7-0.6-0.7-1.1,0-1.8c1.8-1.9,3.7-3.7,5.5-5.5
	C17.5,24,17.7,23.9,17.9,23.7z"/>
<path class="st1" d="M30,29.4c1.9,0,3.9,0,5.8,0c0.8,0,1.2,0.3,1.2,1.2c0,0.3,0,0.6,0,0.9c0,0.8-0.4,1.2-1.2,1.2c-3,0-6.1,0-9.1,0
	c-0.9,0-1.9,0-2.8,0c-0.6,0-1-0.4-1-1c0-0.4,0-0.7,0-1.1c0-0.7,0.4-1.1,1.1-1.1C26,29.4,28,29.4,30,29.4z"/>
</svg>
