<svg xmlns="http://www.w3.org/2000/svg" xml:space="preserve" id="Layer_1" x="0" y="0" style="enable-background:new 0 0 48 48" version="1.0" viewBox="0 0 48 48"><style>.st0{fill:#caebfc}</style><path d="M44.26 23.98c0 3.49-.01 6.97.01 10.46 0 .88-.35 1.54-1.08 1.97-1.74 1.04-3.5 2.06-5.25 3.08-1.97 1.15-3.95 2.29-5.92 3.43-2.35 1.37-4.69 2.75-7.06 4.09-.67.38-1.42.42-2.12.02-1.66-.95-3.32-1.9-4.98-2.86-2.22-1.29-4.44-2.57-6.66-3.87-2.26-1.32-4.54-2.62-6.78-3.97-.64-.38-.97-1.05-.97-1.79-.01-7.07-.02-14.14 0-21.22 0-.91.53-1.56 1.31-2.02 3.93-2.28 7.86-4.57 11.8-6.86 1.93-1.12 3.88-2.21 5.79-3.36 1.13-.68 2.15-.54 3.25.11 3.97 2.35 7.98 4.65 11.97 6.96 1.86 1.08 3.73 2.14 5.57 3.25.72.44 1.15 1.09 1.14 2-.03 3.54-.02 7.06-.02 10.58zm-13.44-5.03c0-.84.01-1.68 0-2.52-.01-.8-.45-1.39-1.2-1.68-1.37-.52-2.75-1.04-4.11-1.59-.85-.34-1.68-.6-2.61-.21-1.51.63-3.05 1.19-4.57 1.79-.9.35-1.25.86-1.25 1.82 0 1.53-.03 3.06.01 4.59.01.52-.13.82-.63.94-.16.04-.32.09-.48.15-1.31.5-2.62.98-3.93 1.5-.67.26-.94.81-.94 1.51 0 1.83.03 3.67-.01 5.5-.02.87.35 1.41 1.11 1.78 1.6.78 3.18 1.58 4.77 2.38.65.33 1.27.32 1.92-.01 1.53-.77 3.07-1.52 4.59-2.3.34-.18.6-.16.93.01 1.54.79 3.09 1.54 4.63 2.33.57.29 1.13.32 1.69.05 1.72-.84 3.43-1.69 5.13-2.56.63-.32.93-.87.92-1.6-.02-1.78-.01-3.57-.01-5.35 0-1.13-.33-1.56-1.42-1.95-1.4-.51-2.78-1.06-4.18-1.56-.31-.11-.37-.26-.37-.55.02-.82.01-1.64.01-2.47z" class="st0"/><path d="M30.82 18.95c0 .82.01 1.65 0 2.47 0 .29.06.44.37.55 1.4.5 2.78 1.05 4.18 1.56 1.09.4 1.42.83 1.42 1.95 0 1.78-.01 3.57.01 5.35.01.73-.29 1.27-.92 1.6-1.7.87-3.41 1.72-5.13 2.56-.55.27-1.12.25-1.69-.05-1.54-.79-3.09-1.54-4.63-2.33-.33-.17-.59-.18-.93-.01-1.52.78-3.06 1.53-4.59 2.3-.65.33-1.27.33-1.92.01-1.59-.8-3.17-1.6-4.77-2.38-.75-.37-1.12-.91-1.11-1.78.03-1.83.01-3.67.01-5.5 0-.7.28-1.25.94-1.51 1.3-.52 2.62-1.01 3.93-1.5.16-.06.31-.11.48-.15.5-.12.65-.42.63-.94-.04-1.53-.02-3.06-.01-4.59 0-.96.35-1.47 1.25-1.82 1.52-.59 3.06-1.16 4.57-1.79.93-.39 1.76-.13 2.61.21 1.36.54 2.74 1.06 4.11 1.59.75.29 1.19.88 1.2 1.68 0 .84-.01 1.68-.01 2.52zm-1.85-2.55c-1.69-.63-3.25-1.22-4.81-1.79-.18-.06-.43-.01-.62.06-.91.32-1.82.66-2.72 1-.59.22-1.18.46-1.86.73 1.38.56 2.67 1.02 3.91 1.59.75.34 1.4.36 2.16.01 1.24-.57 2.55-1.04 3.94-1.6zm5.93 8.91c-1.67-.63-3.21-1.22-4.75-1.79-.13-.05-.31-.07-.43-.02-1.57.59-3.13 1.2-4.75 1.82 1.28.52 2.53.96 3.72 1.53.83.4 1.52.48 2.38.06 1.2-.6 2.49-1.05 3.83-1.6zm-21.85-.03c.1.07.15.12.2.14 1.51.62 3.02 1.24 4.54 1.85.1.04.26.01.37-.03.88-.35 1.76-.71 2.64-1.07.66-.27 1.32-.55 2.08-.87-1.67-.65-3.22-1.25-4.78-1.84-.08-.03-.2-.01-.29.03-1.58.59-3.15 1.18-4.76 1.79zm17.77 7.7c.99-.51 1.85-1.07 2.78-1.4 1.13-.4 1.55-1.05 1.38-2.23-.1-.66-.02-1.35-.02-2.1-1.37.62-2.64 1.2-3.91 1.79-.1.05-.22.19-.22.28-.01 1.19-.01 2.38-.01 3.66zm-11.92-.04c1.34-.67 2.6-1.29 3.85-1.93.09-.04.19-.17.19-.26.01-1.14.01-2.27.01-3.43-.1.01-.16 0-.2.02-1.21.56-2.43 1.11-3.64 1.69-.11.05-.2.26-.2.4-.02 1.13-.01 2.28-.01 3.51zm10.06-11.05v-3.53c-1.33.56-2.6 1.09-3.87 1.65-.11.05-.22.25-.23.39-.02.99-.01 1.98-.01 3.03 1.41-.53 2.76-1.03 4.11-1.54z" style="fill:#46afe3"/><path d="M28.97 16.4c-1.39.56-2.69 1.02-3.95 1.6-.76.35-1.41.34-2.16-.01-1.24-.57-2.53-1.04-3.91-1.59.68-.27 1.27-.51 1.86-.73.9-.34 1.81-.68 2.72-1 .19-.07.44-.12.62-.06 1.57.57 3.12 1.16 4.82 1.79zM34.9 25.31c-1.35.55-2.63.99-3.83 1.59-.86.43-1.56.34-2.38-.06-1.18-.57-2.43-1.01-3.72-1.53 1.62-.62 3.18-1.23 4.75-1.82.12-.05.3-.03.43.02 1.55.58 3.09 1.17 4.75 1.8zM13.05 25.28c1.61-.61 3.18-1.2 4.76-1.79.09-.03.21-.06.29-.03 1.56.59 3.11 1.2 4.78 1.84-.76.32-1.42.6-2.08.87-.88.36-1.76.72-2.64 1.07-.11.04-.27.07-.37.03-1.52-.61-3.03-1.23-4.54-1.85-.05-.02-.1-.07-.2-.14zM30.82 32.98c0-1.28-.01-2.47.01-3.65 0-.1.12-.24.22-.28 1.27-.59 2.54-1.17 3.91-1.79 0 .75-.08 1.44.02 2.1.17 1.17-.25 1.83-1.38 2.23-.93.32-1.78.88-2.78 1.39zM18.9 32.94c0-1.24-.01-2.38.01-3.52 0-.14.09-.34.2-.4 1.21-.58 2.42-1.13 3.64-1.69.04-.02.09-.01.2-.02 0 1.15 0 2.29-.01 3.43 0 .09-.1.22-.19.26-1.26.65-2.51 1.27-3.85 1.94zM28.96 21.89c-1.35.51-2.7 1.01-4.1 1.54 0-1.05-.01-2.04.01-3.03 0-.13.11-.34.23-.39 1.26-.55 2.54-1.09 3.87-1.65-.01 1.2-.01 2.33-.01 3.53z" class="st0"/></svg>