<svg xmlns="http://www.w3.org/2000/svg" xml:space="preserve" id="Layer_1" x="0" y="0" style="enable-background:new 0 0 48 48" version="1.0" viewBox="0 0 48 48"><style>.st1{fill:#45afe3}</style><path d="M44.27 23.97c0 3.49-.01 6.97.01 10.46 0 .88-.35 1.54-1.07 1.98-1.54.93-3.09 1.82-4.65 2.73l-9.84 5.73c-1.23.72-2.47 1.43-3.71 2.14-.95.54-1.83.29-2.71-.22-3.76-2.19-7.52-4.37-11.28-6.55-2.18-1.27-4.35-2.54-6.52-3.82-.69-.42-1.06-1.08-1.06-1.86-.02-7.07-.02-14.15 0-21.22 0-.91.52-1.57 1.3-2.02 3.95-2.29 7.9-4.59 11.84-6.88 1.9-1.1 3.82-2.18 5.7-3.32 1.17-.71 2.2-.57 3.34.11 3.32 1.98 6.67 3.89 10.01 5.83 2.5 1.45 5 2.89 7.48 4.36.73.43 1.16 1.09 1.15 1.99 0 3.52.01 7.04.01 10.56zm-29.83 6.35V15.64c0-.13.01-.27 0-.4-.04-.61-.31-.88-.92-.89-.47-.01-.94 0-1.41 0-.74 0-.99.26-.99 1 0 5.49.02 10.98-.02 16.47-.01.93.83 1.77 1.75 1.76 6.55-.04 13.1-.02 19.65-.02h3.49c.5 0 .7-.21.71-.7.01-.51 0-1.01 0-1.52 0-.89-.12-1.02-1.02-1.02H14.44zm10.98-7.09c-.05-.07-.11-.19-.19-.27-1.06-1.1-2.13-2.2-3.2-3.29-.68-.69-1.74-.77-2.4-.13-1.2 1.16-2.37 2.35-3.54 3.54-.34.34-.32.77.01 1.13.37.39.74.78 1.14 1.14.49.44.79.41 1.26-.06.46-.45.91-.91 1.36-1.36.28-.28.56-.56.85-.84 1.23 1.22 2.39 2.39 3.57 3.55.17.17.39.34.61.42.77.29 1.45.09 2.02-.49 1.51-1.51 3.02-3.03 4.6-4.61.44.47.85.91 1.27 1.34.16.17.34.33.55.44.79.43 1.86-.19 1.85-1-.03-2-.01-4.01-.01-6.01 0-.48-.3-.77-.79-.77-2.04 0-4.08-.02-6.11.02-.29.01-.66.25-.85.49-.4.53-.3 1.15.18 1.64.49.5 1.01.98 1.5 1.45-1.24 1.24-2.42 2.41-3.68 3.67z" style="fill:#caebfc"/><path d="M14.44 30.32h21.23c.89 0 1.02.13 1.02 1.02v1.52c-.01.49-.21.7-.71.7-1.16.01-2.32 0-3.49 0-6.55 0-13.1-.02-19.65.02-.92.01-1.76-.83-1.75-1.76.05-5.49.02-10.98.02-16.47 0-.74.25-.99.99-1h1.41c.61.01.88.27.92.89.01.13 0 .27 0 .4v13.99c.01.2.01.4.01.69z" class="st1"/><path d="m25.42 23.23 3.66-3.66c-.48-.47-1-.95-1.5-1.45-.48-.49-.58-1.11-.18-1.64.19-.25.56-.49.85-.49 2.04-.04 4.08-.03 6.11-.02.49 0 .79.29.79.77.01 2-.02 4.01.01 6.01.01.81-1.06 1.44-1.85 1-.2-.11-.38-.27-.55-.44-.42-.43-.83-.88-1.27-1.34-1.58 1.58-3.09 3.1-4.6 4.61-.58.58-1.25.77-2.02.49-.23-.08-.44-.25-.61-.42-1.18-1.16-2.34-2.33-3.57-3.55-.29.29-.57.57-.85.84-.45.45-.9.91-1.36 1.36-.47.47-.77.49-1.26.06-.4-.36-.78-.75-1.14-1.14-.33-.36-.34-.79-.01-1.13 1.17-1.19 2.33-2.38 3.54-3.54.66-.64 1.72-.56 2.4.13 1.08 1.09 2.14 2.19 3.2 3.29.1.08.16.19.21.26z" class="st1"/></svg>