<svg xmlns="http://www.w3.org/2000/svg" xml:space="preserve" id="Layer_1" x="0" y="0" style="enable-background:new 0 0 48 48" version="1.0" viewBox="0 0 48 48"><style>.st0{fill:#f8e4da}</style><path d="M3.44 23.94c0-3.47.01-6.94 0-10.41 0-1.05.5-1.76 1.38-2.27 2.14-1.23 4.26-2.49 6.39-3.72 2.22-1.29 4.45-2.57 6.67-3.85 1.51-.87 3.04-1.72 4.52-2.64.99-.61 1.92-.59 2.89-.03 3.59 2.08 7.17 4.16 10.76 6.24l7.08 4.14c.86.5 1.22 1.3 1.22 2.23.02 6.87.02 13.74 0 20.61 0 1-.46 1.8-1.36 2.32-3.18 1.85-6.34 3.71-9.52 5.56-2.74 1.6-5.49 3.17-8.23 4.78-1.14.67-2.14.38-3.2-.25-2.65-1.59-5.33-3.11-8-4.67-2.19-1.27-4.38-2.55-6.57-3.83-.91-.53-1.83-1.05-2.75-1.59-.81-.47-1.29-1.15-1.29-2.12.01-3.49.01-7 .01-10.5zm14.08-5.33c.28 1.07.54 2.05.8 3.03-.07.01-.19.02-.3.02-.72 0-1.45-.01-2.17 0-.79.01-1.12.53-.8 1.24.13.29.25.59.37.88.26.64.53 1.28.78 1.89-2.18 1.54-3.36 3.51-3.26 6.16.02.52.03 1.05 0 1.57-.11 1.49 1.16 2.47 2.45 2.44 1.6-.04 3.2-.01 4.8-.01h12.32c1.36 0 2.24-.64 2.43-1.98.14-.97.08-1.97.01-2.96-.15-2.05-1.13-3.66-2.76-4.88-.28-.21-.29-.37-.17-.67.34-.84.67-1.69.97-2.54.22-.61-.14-1.13-.78-1.16-.42-.02-.84 0-1.26 0H29.6c.28-1.05.53-2.03.8-3.03.69-.23 1.47-.48 2.23-.77.37-.14.76-.36.76-.85 0-.47-.35-.72-.74-.86-.71-.25-1.43-.47-2.15-.68-.32-.09-.54-.18-.66-.57-.4-1.25-.95-2.44-1.78-3.48-.63-.78-1.33-.95-2.22-.51-.38.19-.75.37-1.13.56-.52.26-1.03.26-1.54 0-.43-.22-.86-.45-1.31-.65-.65-.28-1.26-.17-1.75.35-.98 1.03-1.55 2.3-1.97 3.63-.13.42-.32.58-.72.68-.66.16-1.32.35-1.96.58-.43.16-.89.39-.9.96-.02.58.5.7.87.93.11.07.25.11.37.15.6.19 1.21.37 1.72.53z" class="st0"/><path d="M17.52 18.61c-.51-.15-1.12-.33-1.72-.52-.13-.04-.26-.08-.37-.15-.38-.23-.89-.34-.87-.93.01-.57.47-.8.9-.96.64-.24 1.3-.42 1.96-.58.4-.09.59-.26.72-.68.42-1.33 1-2.59 1.97-3.63.49-.51 1.1-.63 1.75-.35.45.19.87.43 1.31.65.51.26 1.03.27 1.54 0 .37-.19.75-.37 1.13-.56.89-.44 1.59-.27 2.22.51.83 1.04 1.39 2.22 1.78 3.48.12.38.34.47.66.57.72.2 1.44.42 2.15.68.39.14.74.39.74.86 0 .48-.38.7-.76.85-.76.29-1.54.54-2.23.77-.26 1-.52 1.98-.8 3.03h1.35c.42 0 .84-.01 1.26 0 .64.03 1 .55.78 1.16-.31.85-.63 1.7-.97 2.54-.12.3-.11.45.17.67 1.63 1.22 2.61 2.83 2.76 4.88.07.98.13 1.99-.01 2.96-.19 1.34-1.07 1.98-2.43 1.98H20.19c-1.6 0-3.2-.03-4.8.01-1.29.03-2.56-.95-2.45-2.44.04-.52.02-1.04 0-1.57-.1-2.65 1.07-4.63 3.26-6.16-.25-.61-.51-1.25-.78-1.89-.12-.29-.24-.59-.37-.88-.32-.71.01-1.23.8-1.24.72-.01 1.45 0 2.17 0 .12 0 .23-.02.3-.02-.26-.99-.52-1.97-.8-3.04zm1.7.23c.24.54.4.97.62 1.36.22.4.43.89.79 1.13 1.02.68 2.03.33 2.63-.79.17-.32.19-.81.7-.82.52-.01.55.47.7.81.32.71 1.48 1.48 2.35 1.03.58-.3 1.63-1.96 1.59-2.64 0-.01-.02-.03-.05-.07-3.06.42-6.13.37-9.33-.01zm7.05 14.99h.08c.64-2.93 1.29-5.86 1.96-8.9-.67.43-1.24.75-1.77 1.13-.34.25-.64.58-.9.91-.24.3-.44.64-.58 1-.11.26-.19.58-.13.84.27 1.16.6 2.3.91 3.45.13.52.28 1.04.43 1.57zm-4.7-.02c.03.01.06.01.08.02.03-.09.06-.17.08-.26.44-1.68.88-3.35 1.33-5.03.02-.08.07-.18.04-.24-.39-.64-.69-1.39-1.21-1.89-.61-.58-1.43-.95-2.26-1.48.66 3.03 1.3 5.95 1.94 8.88z" style="fill:#f5874c"/><path d="M19.22 18.84c3.2.38 6.28.43 9.32 0 .03.05.05.06.05.07.03.68-1.01 2.34-1.59 2.64-.87.44-2.02-.32-2.35-1.03-.15-.33-.18-.82-.7-.81-.51.01-.53.5-.7.82-.59 1.12-1.61 1.48-2.63.79-.36-.24-.56-.73-.79-1.13-.21-.38-.37-.81-.61-1.35zM26.27 33.83c-.14-.53-.29-1.05-.43-1.58-.31-1.15-.64-2.29-.91-3.45-.06-.26.02-.58.13-.84.15-.35.35-.7.58-1 .26-.33.56-.66.9-.91.52-.39 1.09-.71 1.77-1.13-.67 3.05-1.31 5.98-1.96 8.9-.03.01-.06.01-.08.01zM21.57 33.81c-.64-2.92-1.28-5.84-1.94-8.87.82.52 1.64.89 2.26 1.48.53.5.83 1.24 1.21 1.89.03.05-.02.16-.04.24-.44 1.68-.88 3.36-1.33 5.03-.02.09-.06.17-.08.26a.114.114 0 0 0-.08-.03z" class="st0"/></svg>