<svg xmlns="http://www.w3.org/2000/svg" xml:space="preserve" id="Layer_1" x="0" y="0" style="enable-background:new 0 0 48 48" version="1.0" viewBox="0 0 48 48"><style>.st1{fill:#f5874c}</style><path d="M3.43 23.93c0-3.45.01-6.9 0-10.36 0-1.07.49-1.79 1.39-2.31 2.14-1.23 4.26-2.49 6.39-3.72 2.22-1.29 4.45-2.57 6.67-3.85 1.51-.87 3.04-1.72 4.52-2.64 1.01-.63 1.95-.57 2.94.01 3.31 1.93 6.62 3.84 9.92 5.77 2.63 1.53 5.25 3.06 7.87 4.59.86.5 1.21 1.31 1.21 2.23.02 6.87.02 13.74 0 20.61 0 1.18-.68 1.94-1.66 2.51-4.09 2.35-8.17 4.72-12.25 7.08-1.71.99-3.43 1.99-5.12 3.01-1.16.7-2.19.45-3.29-.21-2.64-1.59-5.33-3.12-8-4.67-2.19-1.27-4.38-2.55-6.57-3.83-.91-.53-1.83-1.05-2.75-1.58-.8-.47-1.26-1.17-1.27-2.13V23.93zm11.09 8.08c.79 0 1.58-.01 2.37 0 .45.01.8-.12 1.11-.46.76-.85 1.54-1.69 2.32-2.52 2.58-2.76 5.19-5.51 7.74-8.3.53-.58 1.06-.85 1.82-.72h.05c.29-.03.39.1.38.38-.01.49-.02.98 0 1.46.01.24.02.52.13.72.42.76 1.37.85 2.05.19.81-.78 1.6-1.59 2.4-2.39.53-.54 1.08-1.06 1.57-1.63.44-.52.44-1.13-.02-1.6-1.35-1.39-2.72-2.75-4.11-4.11-.4-.39-.9-.39-1.41-.15-.44.22-.64.56-.63 1.05.01.54-.01 1.08 0 1.62.01.31-.11.42-.41.41-.77-.02-1.55.01-2.32-.01-.39-.01-.67.13-.92.41-1.03 1.13-2.05 2.26-3.09 3.38-1.7 1.82-3.41 3.62-5.11 5.43-.61.65-1.18 1.33-1.8 1.97-.35.36-.61.8-1.27.77-1.16-.06-2.32-.02-3.48-.02-.59 0-.78.2-.78.78v2.47c0 .68.16.84.87.85.85.03 1.69.02 2.54.02zm11.57-6.97c-.26.29-.46.52-.68.76l-1.74 1.89c-.24.25-.23.44.03.71.9.92 1.79 1.86 2.64 2.84.49.56 1.01.87 1.78.8.71-.07 1.43-.01 2.19-.01 0 .72.01 1.35 0 1.99-.01.55.27.88.75 1.07.47.18.93.16 1.31-.21 1.37-1.37 2.75-2.73 4.1-4.11.44-.45.44-1.14-.01-1.59-1.36-1.38-2.73-2.74-4.1-4.11-.4-.4-.88-.37-1.35-.18-.44.18-.69.51-.69 1.01 0 .54 0 1.08-.02 1.62 0 .13-.06.32-.16.38-.45.24-1.51-.06-1.87-.45-.7-.82-1.42-1.59-2.18-2.41zm-7.5-2.16c.87-.95 1.72-1.86 2.53-2.79.07-.07.01-.36-.09-.46-1.04-1.14-2.1-2.27-3.17-3.39-.15-.16-.43-.27-.66-.27-1.82-.02-3.64-.01-5.45-.02-.45 0-.65.17-.64.62.01.89 0 1.78 0 2.68 0 .59.16.75.75.75 1.18 0 2.36.02 3.53-.01.44-.01.7.17.98.48.72.81 1.46 1.58 2.22 2.41z" style="fill:#f8e4da"/><path d="M14.52 32.01c-.84 0-1.68.01-2.53 0-.71-.01-.86-.16-.87-.85v-2.47c0-.58.19-.78.78-.78 1.16-.01 2.33-.05 3.48.02.65.04.92-.41 1.27-.77.62-.64 1.19-1.32 1.8-1.97 1.7-1.81 3.41-3.62 5.11-5.43 1.04-1.12 2.07-2.25 3.09-3.38.25-.28.53-.43.92-.41.77.03 1.55 0 2.32.01.31.01.42-.1.41-.41-.02-.54.01-1.08 0-1.62-.01-.49.18-.84.63-1.05.5-.24 1-.24 1.41.15 1.39 1.35 2.76 2.72 4.11 4.11.46.47.46 1.08.02 1.6-.49.57-1.04 1.1-1.57 1.63-.79.8-1.58 1.61-2.4 2.39-.68.66-1.64.57-2.05-.19-.11-.2-.12-.48-.13-.72-.02-.49-.02-.98 0-1.46.01-.28-.1-.41-.38-.38h-.05c-.75-.13-1.29.14-1.82.72-2.55 2.79-5.16 5.54-7.74 8.3-.78.83-1.56 1.67-2.32 2.52-.31.34-.66.47-1.11.46-.8-.03-1.59-.02-2.38-.02z" class="st1"/><path d="M26.09 25.04c.76.82 1.49 1.59 2.19 2.38.35.39 1.42.69 1.87.45.09-.05.15-.24.16-.38.02-.54.02-1.08.02-1.62 0-.5.24-.83.69-1.01.48-.19.95-.22 1.35.18 1.37 1.37 2.74 2.73 4.1 4.11.45.45.46 1.14.01 1.59-1.36 1.38-2.73 2.74-4.1 4.11-.38.38-.83.4-1.31.21-.48-.19-.76-.52-.75-1.07.01-.64 0-1.27 0-1.99-.76 0-1.48-.05-2.19.01-.77.07-1.3-.24-1.78-.8-.85-.97-1.74-1.91-2.64-2.84-.26-.27-.27-.45-.03-.71l1.74-1.89c.2-.21.41-.45.67-.73zM18.59 22.88c-.77-.83-1.51-1.6-2.21-2.41-.27-.31-.54-.49-.98-.48-1.18.03-2.36.01-3.53.01-.59 0-.74-.16-.75-.75 0-.89.01-1.78 0-2.68-.01-.46.19-.63.64-.62 1.82.01 3.64 0 5.45.02.22 0 .5.11.66.27 1.07 1.11 2.13 2.24 3.17 3.39.09.1.15.38.09.46-.82.93-1.66 1.84-2.54 2.79z" class="st1"/></svg>