<svg xmlns="http://www.w3.org/2000/svg" xml:space="preserve" id="Layer_1" x="0" y="0" style="enable-background:new 0 0 48 48" version="1.0" viewBox="0 0 48 48"><style>.st0{fill:#d0e0f3}</style><path d="M3.43 23.92c0-3.45.01-6.9 0-10.36 0-1.07.49-1.79 1.4-2.31C7.37 9.79 9.9 8.3 12.44 6.82c2.45-1.42 4.91-2.84 7.37-4.25.87-.5 1.76-.98 2.61-1.53.98-.63 1.92-.57 2.89-.01 3.34 1.94 6.68 3.88 10.01 5.82 2.61 1.52 5.22 3.04 7.83 4.57.84.49 1.21 1.28 1.21 2.23v16.97c0 1.16-.01 2.32 0 3.49.01 1.11-.47 1.92-1.43 2.48-4.17 2.42-8.33 4.84-12.5 7.26-1.71 1-3.42 1.99-5.12 3.01-1.12.67-2.13.48-3.21-.16-3.05-1.83-6.14-3.59-9.22-5.38-2.77-1.61-5.55-3.2-8.32-4.83-.74-.43-1.15-1.13-1.15-2 .02-3.53.02-7.05.02-10.57zm20.47 9.83h10.36c1.36 0 2.24-.84 2.24-2.18.01-5.07.01-10.14 0-15.21 0-1.33-.9-2.22-2.22-2.22-6.92 0-13.84.01-20.76-.01-1.02 0-2.22.89-2.2 2.19.05 5.09.04 10.17 0 15.26-.01 1.21 1.04 2.2 2.19 2.19 3.45-.04 6.92-.02 10.39-.02z" class="st0"/><path d="M23.9 33.75c-3.47 0-6.94-.03-10.41.02-1.14.01-2.19-.97-2.19-2.19.04-5.09.04-10.17 0-15.26-.01-1.3 1.18-2.19 2.2-2.19 6.92.02 13.84.01 20.76.01 1.32 0 2.22.89 2.22 2.22.01 5.07.01 10.14 0 15.21 0 1.34-.88 2.18-2.24 2.18H23.9zm-4.91-4.24h3.89c.67 0 .98-.32.98-.99v-.71c-.03-1.68-2.06-2.75-3.32-2.33-1.02.34-2.03.35-3.05.01-.27-.09-.6-.12-.88-.06-1.8.36-2.49 1.25-2.45 3.1.01.67.33.98 1 .98h3.83zm2.75-8.35c.11-1.31-1.17-2.75-2.74-2.77-1.47-.01-2.75 1.29-2.74 2.79.01 1.5 1.28 2.77 2.77 2.77 1.45 0 2.83-1.4 2.71-2.79zm8.47 1.46c-1.01 0-2.02.01-3.03-.01-.38-.01-.53.15-.48.51.04.33-.17.82.44.82 2.02.01 4.03 0 6.05 0 .56 0 .45-.42.47-.76.02-.34-.03-.59-.48-.57-.99.03-1.98.01-2.97.01zm-.06-1.5c.99 0 1.98-.02 2.98.01.5.02.54-.25.54-.63-.01-.37.03-.71-.52-.71-1.97.02-3.93.02-5.9 0-.55-.01-.53.32-.53.69 0 .36 0 .66.52.64.96-.02 1.93 0 2.91 0zm.03 5.59c.99 0 1.98-.01 2.98 0 .51.01.5-.32.5-.67 0-.36-.02-.68-.51-.68-1.97.01-3.93.01-5.9 0-.63-.01-.46.42-.49.76-.03.37.04.61.5.59.97-.02 1.94 0 2.92 0z" style="fill:#4678bc"/><path d="M18.99 29.51h-3.83c-.67 0-.98-.32-1-.98-.04-1.86.64-2.74 2.45-3.1.28-.06.61-.03.88.06 1.02.34 2.03.33 3.05-.01 1.26-.42 3.29.65 3.32 2.33v.71c-.01.67-.32.99-.98.99h-3.89zM21.74 21.16c.12 1.39-1.26 2.79-2.71 2.79-1.49 0-2.76-1.27-2.77-2.77-.01-1.5 1.28-2.8 2.74-2.79 1.57.01 2.84 1.46 2.74 2.77zM30.21 22.62c.99 0 1.98.02 2.98-.01.45-.01.49.24.48.57-.02.34.1.76-.47.76-2.02 0-4.04.01-6.05 0-.62 0-.4-.49-.44-.82-.04-.36.1-.52.48-.51 1 .02 2.01.01 3.02.01zM30.15 21.12c-.98 0-1.95-.02-2.93.01-.52.02-.52-.28-.52-.64 0-.38-.01-.7.53-.69 1.97.02 3.93.02 5.9 0 .55 0 .51.34.52.71.01.38-.03.64-.54.63-.98-.04-1.97-.02-2.96-.02zM30.18 26.71c-.98 0-1.95-.02-2.93.01-.47.01-.53-.22-.5-.59.03-.34-.14-.77.49-.76 1.97.02 3.93.01 5.9 0 .5 0 .51.32.51.68 0 .36.01.68-.5.67-.99-.02-1.98-.01-2.97-.01z" class="st0"/></svg>