<svg xmlns="http://www.w3.org/2000/svg" xml:space="preserve" id="Layer_1" x="0" y="0" style="enable-background:new 0 0 48 48" version="1.0" viewBox="0 0 48 48"><style>.st0{fill:#ddf0ea}.st1{fill:#4aba77}</style><path d="M44.36 23.95c0 3.18-.06 6.37.02 9.55.05 1.72-.66 2.77-2.14 3.56-2.54 1.37-5 2.88-7.5 4.32-2.4 1.39-4.79 2.77-7.19 4.16-.83.48-1.65.97-2.48 1.44-.77.44-1.58.48-2.35.04-1.94-1.1-3.86-2.24-5.79-3.36-2.06-1.2-4.13-2.38-6.19-3.58-2.08-1.2-4.16-2.39-6.22-3.63-.7-.42-1.11-1.08-1.11-1.97.01-7 .01-14.01 0-21.01 0-1.03.51-1.69 1.35-2.18 1.9-1.1 3.8-2.22 5.7-3.32 2.22-1.29 4.44-2.57 6.67-3.86 1.76-1.02 3.53-2 5.27-3.06.99-.61 1.92-.58 2.89-.02 3.32 1.93 6.64 3.86 9.97 5.79 2.58 1.5 5.17 2.99 7.76 4.49.93.54 1.33 1.39 1.34 2.43.01 3.4 0 6.8 0 10.21zm-17.72-5.02c-.01-1.7-1.24-2.59-2.56-2.63-2.04-.07-3.21 1.98-2.43 3.76.08.18.1.45.03.64-.44 1.12-.92 2.22-1.38 3.34-1.13 2.73-2.27 5.47-3.4 8.21-.43 1.06-.41 1.06.64 1.59.07.04.14.1.21.14.8.42 1.23.25 1.56-.57.52-1.29 1.07-2.56 1.59-3.85.13-.32.29-.46.67-.45 1.58.03 3.16.03 4.75 0 .47-.01.68.17.84.58.52 1.32 1.08 2.63 1.64 3.94.23.53.51.66 1.07.48.33-.11.64-.28.96-.42.51-.22.65-.51.46-1.02-.07-.19-.17-.36-.24-.55-1.53-3.72-3.06-7.44-4.61-11.16-.15-.36-.24-.64-.04-1.02.17-.31.17-.68.24-1.01zm10.08.08c.03-1.66-.29-3.2-.92-4.69-.15-.35-.37-.52-.77-.49-.42.03-.84.01-1.26.01-.74 0-.97.36-.68 1.03.06.14.13.27.19.41.84 1.71.96 3.52.59 5.35-.16.79-.52 1.55-.8 2.31-.25.66.04 1.1.73 1.1.4 0 .81-.02 1.21.01.4.03.63-.17.77-.51.59-1.46.98-2.97.94-4.53zm-25.41.15c-.04 1.24.3 2.68.86 4.08.3.75.39.81 1.18.81h.81c.76 0 1-.43.75-1.16-.33-.96-.7-1.92-.87-2.91-.29-1.67-.03-3.29.76-4.82.13-.24.17-.54.18-.82.02-.34-.16-.52-.53-.51-.52.01-1.04 0-1.57 0-.29 0-.47.11-.61.41-.65 1.5-.96 3.04-.96 4.92zm18.71 2.36h.5c.6 0 .82-.17.96-.73.32-1.29.27-2.59-.03-3.87-.1-.42-.35-.69-.85-.66-.39.02-.77 0-1.16.01-.63.01-.97.54-.74 1.14.07.19.14.37.19.57.21.82.11 1.62-.17 2.41-.27.77-.01 1.13.78 1.13h.52zm-12.04 0h.45c.87 0 1.1-.28.85-1.11-.32-1.04-.35-2.04.04-3.08.24-.64-.12-1.07-.81-1.07-.4 0-.81.01-1.21 0-.39-.02-.6.22-.68.53-.27 1.13-.36 2.28-.16 3.44.23 1.29.22 1.29 1.52 1.29z" class="st0"/><path d="M26.64 18.93c-.07.34-.07.71-.23 1-.2.38-.11.66.04 1.02 1.55 3.72 3.07 7.44 4.61 11.16.08.19.18.36.24.55.18.51.04.8-.46 1.02-.32.14-.63.31-.96.42-.56.18-.84.05-1.07-.48-.55-1.31-1.11-2.62-1.64-3.94-.17-.42-.37-.59-.84-.58-1.58.03-3.16.03-4.75 0-.37-.01-.54.13-.67.45-.52 1.29-1.07 2.56-1.59 3.85-.33.82-.77.99-1.56.57-.07-.04-.14-.1-.21-.14-1.06-.53-1.08-.54-.64-1.59 1.12-2.74 2.26-5.47 3.4-8.21.46-1.11.94-2.22 1.38-3.34.07-.18.05-.45-.03-.64-.78-1.78.39-3.83 2.43-3.76 1.31.05 2.54.93 2.55 2.64zm-4.42 7.55h3.15c.28 0 .42-.07.29-.38-.55-1.31-1.09-2.62-1.65-3.97-.6 1.45-1.18 2.87-1.79 4.35zM36.72 19.01c.04 1.55-.34 3.06-.94 4.53-.14.34-.37.53-.77.51-.4-.03-.81 0-1.21-.01-.69 0-.98-.44-.73-1.1.28-.77.64-1.52.8-2.31.38-1.83.25-3.63-.59-5.35-.07-.14-.13-.27-.19-.41-.3-.67-.06-1.03.68-1.03.42 0 .84.03 1.26-.01.4-.03.62.14.77.49.63 1.49.94 3.03.92 4.69zM11.31 19.16c0-1.89.31-3.43.97-4.91.14-.3.32-.41.61-.41.52 0 1.04.01 1.57 0 .36-.01.55.17.53.51-.02.28-.06.58-.18.82a7.42 7.42 0 0 0-.76 4.82c.17.99.54 1.95.87 2.91.25.73.01 1.16-.75 1.16h-.81c-.79 0-.88-.06-1.18-.81-.58-1.4-.91-2.84-.87-4.09zM30.02 21.52h-.5c-.79 0-1.05-.36-.78-1.13.28-.79.38-1.59.17-2.41-.05-.19-.12-.38-.19-.57-.23-.6.11-1.14.74-1.14.39 0 .77.02 1.16-.01.49-.03.75.24.85.66.3 1.29.34 2.58.03 3.87-.14.56-.36.72-.96.73h-.52zM17.98 21.52c-1.3 0-1.29 0-1.51-1.29-.2-1.16-.11-2.3.16-3.44.08-.32.28-.55.68-.53.4.02.81 0 1.21 0 .69 0 1.05.43.81 1.07-.38 1.03-.35 2.04-.04 3.08.25.82.01 1.11-.85 1.11h-.46z" class="st1"/><path d="m22.22 26.48 1.79-4.35c.56 1.35 1.1 2.66 1.65 3.97.13.31-.01.39-.29.38-1.02-.01-2.05 0-3.15 0z" class="st0"/></svg>